<?xml version="1.0" encoding="UTF-8"?>
<svg id="Layer_2" data-name="Layer 2" xmlns="http://www.w3.org/2000/svg" viewBox="0 0 488.41 171.94">
  <defs>
    <style>
      .cls-1 {
        fill: #fff;
      }

      .cls-2 {
        fill: #192321;
      }
    </style>
  </defs>
  <g id="Layer_1-2" data-name="Layer 1">
    <g>
      <g>
        <path class="cls-2" d="m228.87,30.08v13.15c0,1.77,1.44,3.21,3.21,3.21h14.6c1.77,0,3.21,1.44,3.21,3.21v77.08c0,.61-.17,1.21-.5,1.73-1.08,1.65-3.26,4.37-6.98,5.95-2.02.86-3.88,1.12-5.24,1.19-.21.01-.43,0-.64-.04-14.17-2.29-13.45-13-13.45-13v-10.56c0-1.77-1.44-3.21-3.21-3.21h-19.67c-1.77,0-3.21,1.44-3.21,3.21v17.36c0,.34.05.67.15.99,1.07,3.35,8.31,21.28,41.17,21.94,1.27.03,20.27,1.4,33.34-12.16,3-3.11,5.06-6.35,6.47-9.13,1.01-2,1.51-4.21,1.51-6.45V49.65c0-1.77,1.44-3.21,3.21-3.21h6.62c1.77,0,3.21-1.44,3.21-3.21v-13.15c0-1.77-1.44-3.21-3.21-3.21h-57.37c-1.77,0-3.21,1.44-3.21,3.21Z"/>
        <path class="cls-1" d="m224.94,29.33v12.23c0,1.83,1.48,3.31,3.31,3.31h14.4c1.83,0,3.31,1.48,3.31,3.31v73.15c0,4.93-2.84,9.48-7.36,11.46-.04.02-.09.04-.13.06l-.07.03c-2.52,1.06-5.32,1.35-7.97.69-11.94-2.97-11.3-12.56-11.3-12.56v-10.46c0-1.83-1.48-3.31-3.31-3.31h-19.48c-1.83,0-3.31,1.48-3.31,3.31v14.95c0,2.47.62,4.89,1.82,7.04,3.57,6.37,13.54,17.68,39.5,18.2,1.27.03,20.27,1.4,33.34-12.16,3-3.12,5.06-6.35,6.47-9.13,1.01-2,1.51-4.21,1.51-6.45V48.18c0-1.83,1.48-3.31,3.31-3.31h6.43c1.83,0,3.31-1.48,3.31-3.31v-12.95c0-1.83-1.48-3.31-3.31-3.31h-56.45c-2.23,0-4.04,1.81-4.04,4.04Z"/>
        <path class="cls-2" d="m402.11,88.61c-2.78-1.28-3.07-5.06-.5-6.72,6.01-3.87,12.47-10.87,12.85-23.13.72-23.2-24.65-30.45-31.17-30.45h-75.93c-2.11,0-3.82,1.71-3.82,3.82v9.04c0,2.11,1.71,3.82,3.82,3.82h9.77c2.11,0,3.82,1.71,3.82,3.82v80.09c0,2.11-1.71,3.82-3.82,3.82h-9.77c-2.11,0-3.82,1.71-3.82,3.82v11.22c0,2.11,1.71,3.82,3.82,3.82h74.33c.09,0,.18,0,.27,0,1.98.15,29.74,1.65,33.24-31.91,2.04-19.62-5.83-27.72-13.08-31.05Zm-15.92,25.98c-.68,15.7-18.07,17.9-20.11,18.11-.12.01-.24.02-.37.02h-17.03c-2.11,0-3.82-1.71-3.82-3.82v-28.62c0-2.11,1.71-3.82,3.82-3.82h17.21c2.9,0,21.02,1.45,20.3,18.12Zm0-51.47c-.68,15.7-18.07,17.9-20.11,18.11-.12.01-.24.02-.37.02h-17.03c-2.11,0-3.82-1.71-3.82-3.82v-28.62c0-2.11,1.71-3.82,3.82-3.82h17.21c2.9,0,21.02,1.45,20.3,18.12Z"/>
        <path class="cls-1" d="m397.66,85.67c-2.74-1.24-3.02-4.99-.49-6.61,6.03-3.86,12.56-10.86,12.94-23.19.72-23.2-24.65-30.45-31.17-30.45h-75.99c-2.07,0-3.76,1.68-3.76,3.76v9.16c0,2.07,1.68,3.76,3.76,3.76h9.89c2.07,0,3.76,1.68,3.76,3.76v80.21c0,2.07-1.68,3.76-3.76,3.76h-9.89c-2.07,0-3.76,1.68-3.76,3.76v11.34c0,2.07,1.68,3.76,3.76,3.76h74.39c.09,0,.18,0,.27,0,1.98.15,29.74,1.65,33.24-31.91,2.05-19.72-5.9-27.8-13.18-31.1Zm-15.82,26.02c-.68,15.71-18.09,17.91-20.11,18.11-.12.01-.24.02-.36.02h-17.1c-2.07,0-3.76-1.68-3.76-3.76v-28.74c0-2.07,1.68-3.76,3.76-3.76h17.27c2.9,0,21.02,1.45,20.3,18.12Zm0-51.47c-.68,15.71-18.09,17.91-20.11,18.11-.12.01-.24.02-.36.02h-17.1c-2.07,0-3.76-1.68-3.76-3.76v-28.74c0-2.07,1.68-3.76,3.76-3.76h17.27c2.9,0,21.02,1.45,20.3,18.12Z"/>
        <path class="cls-2" d="m431.87,27.59h52.91c2.01,0,3.63,1.63,3.63,3.63v11.59c0,2.01-1.63,3.63-3.63,3.63h-9.41c-2.01,0-3.63,1.63-3.63,3.63v78.29c0,2.01,1.63,3.63,3.63,3.63h9.41c2.01,0,3.63,1.63,3.63,3.63v11.59c0,2.01-1.63,3.63-3.63,3.63h-52.91c-2.01,0-3.63-1.63-3.63-3.63v-11.59c0-2.01,1.63-3.63,3.63-3.63h9.41c2.01,0,3.63-1.63,3.63-3.63V47.9c0-2.01-1.63-3.63-3.63-3.63h-9.41c-2.01,0-3.63-1.63-3.63-3.63v-9.41c0-2.01,1.63-3.63,3.63-3.63Z"/>
        <path class="cls-1" d="m428.6,25.41h53.65c1.8,0,3.26,1.46,3.26,3.26v12.33c0,1.8-1.46,3.26-3.26,3.26h-10.15c-1.8,0-3.26,1.46-3.26,3.26v79.02c0,1.8,1.46,3.26,3.26,3.26h10.15c1.8,0,3.26,1.46,3.26,3.26v12.33c0,1.8-1.46,3.26-3.26,3.26h-53.65c-1.8,0-3.26-1.46-3.26-3.26v-12.33c0-1.8,1.46-3.26,3.26-3.26h10.15c1.8,0,3.26-1.46,3.26-3.26V45.35c0-1.8-1.46-3.26-3.26-3.26h-10.15c-1.8,0-3.26-1.46-3.26-3.26v-10.15c0-1.8,1.46-3.26,3.26-3.26Z"/>
      </g>
      <path id="Icon_metro-fire" data-name="Icon metro-fire" class="cls-2" d="m42.75,170.3c.42.24.89-.2.69-.64-10.41-22.69-4.02-35.32,4.52-47.79,5.53-8.08,9.51-17.11,11.74-26.64.1-.42.65-.53.89-.16,1.66,2.65,5.89,10.76,4.17,22.31-.07.49.55.77.87.38,11.7-14.16,14.3-35.25,12.8-44.68-.07-.43.42-.73.78-.47,28.71,20.94,37.39,65.56,21.31,98.62-.21.44.27.89.69.64,87.2-50.38,33.55-117.52,12.39-138.12-.38-.37-.99.04-.8.53,3.44,8.78,5.7,22.46-1.02,29.3-.26.27-.72.13-.81-.23C98.39,16.76,69.52,3.88,64.47,1.95c-.35-.13-.7.15-.65.52,3.36,26.16-19.69,57.11-37.25,78.71-.29.35-.86.15-.88-.3-.35-9.6,1.54-18.37-2.81-27.58-.22-.46-.89-.33-.94.17-1.85,18.56-13.63,33.55-17.52,52.37-5.36,25.95,3.4,44.43,38.34,64.46Z"/>
      <path id="Icon_metro-fire-2" data-name="Icon metro-fire-2" class="cls-1" d="m39.79,168.68c.54.31,1.17-.25.91-.82-10.17-22.46-4.22-35.6,4.26-47.99,5.46-7.98,9.41-16.89,11.66-26.29.13-.56.86-.68,1.16-.19,1.74,2.89,5.51,10.61,4.05,21.45-.09.65.73,1.01,1.14.5,11.26-13.98,13.87-34.4,12.5-43.9-.08-.56.55-.96,1.01-.62,28.47,20.9,40.73,64.11,25.13,96.99-.27.56.37,1.14.91.82,86.5-50.45,24.5-124.34,10.08-136.34-.28-.24-.7.06-.56.41,3.38,8.53,3.81,21.62-3.05,28.69-.35.36-.96.21-1.09-.28C95.47,15.39,67.34,2.26,61.7.04c-.45-.18-.91.2-.85.68,3.31,25.93-14.16,54.08-31.43,75.49-.37.46-1.1.21-1.14-.37-.57-9.13-1.37-15.93-5.78-24.64-.29-.57-1.14-.42-1.21.21-2.14,18.4-16.01,33.74-19.87,52.42-5.34,25.85,3.76,44.88,38.37,64.84Z"/>
    </g>
  </g>
</svg>