<svg width="2472" height="1341" viewBox="0 0 2472 1341" fill="none" xmlns="http://www.w3.org/2000/svg">
<path d="M0.0078125 414.663C-0.270752 448.123 6.92188 478.891 20.9822 508.545C31.562 530.867 41.8169 553.375 53.1858 575.232C77.0835 621.222 88.22 668.186 86.5496 721.601C82.0947 865.185 83.4866 1008.96 82.8833 1152.63C82.8369 1167.99 83.7197 1183.59 86.272 1198.71C89.0562 1215.1 98.9397 1226.28 116.155 1230.18C183.858 1245.49 251.375 1261.36 319.077 1276.49C377.731 1289.63 436.848 1300.86 495.177 1315.24C529.562 1323.69 565.339 1324.9 599.12 1337.52C612.716 1342.58 630.118 1341.37 644.967 1338.63C749.839 1319.37 856.335 1313.16 961.995 1300.72C1069.14 1288.1 1176.75 1277.51 1283.8 1264.06C1366.45 1253.66 1450.11 1252.87 1531.97 1234.96C1567.98 1227.02 1605.66 1228.55 1642.55 1225.12C1711.69 1218.76 1779.76 1204.33 1849.46 1201.87C1911.04 1199.64 1971.31 1183.35 2033.17 1180.43C2114.84 1176.58 2194.84 1157.41 2276.88 1154.44C2360.13 1151.47 2363.93 1145.11 2364.35 1061.4C2364.58 1007.28 2364.4 953.22 2364.4 899.156H2364.72C2364.72 835.763 2365 772.417 2364.58 709.071C2364.4 682.062 2370.15 657.234 2385.28 634.495C2392.98 622.939 2397.16 608.785 2405.97 598.39C2480.96 509.984 2473.07 404.222 2470.38 299.248C2469.73 275.07 2460.27 262.401 2435.58 259.477C2378.83 252.748 2322.45 241.517 2265.56 237.944C2153.08 230.936 2041.57 214.694 1929.69 202.489C1848.53 193.625 1766.72 189.959 1686.03 175.758C1646.58 168.797 1606.35 164.388 1566.31 163.042C1485.89 160.304 1407.42 141.092 1326.86 138.447C1269.97 136.59 1213.55 124.153 1156.66 119.837C1072.06 113.387 988.816 96.2624 903.852 92.5034C853.04 90.2294 802.6 81.1799 751.927 75.611C624.736 61.596 497.498 47.6739 370.213 33.9373C265.991 22.7532 161.723 11.801 57.4546 0.941651C48.2666 -0.0329033 38.9395 -0.125684 29.6589 0.106353C13.2786 0.431204 3.67334 9.10939 2.0957 25.352C0.842773 37.6499 0.332764 50.0406 0.332764 62.3849C0.23999 179.795 0.935791 297.253 0.0078125 414.663Z" fill="#3DBAE1"/>
<path d="M111.007 462.78C110.752 490.6 117.334 516.183 130.2 540.84C139.881 559.4 149.265 578.114 159.668 596.288C181.535 634.527 191.726 673.576 190.197 717.989C186.121 837.375 187.394 956.915 186.842 1076.38C186.8 1089.15 187.608 1102.12 189.943 1114.69C192.491 1128.32 201.535 1137.61 217.288 1140.86C279.239 1153.59 341.02 1166.79 402.971 1179.36C456.642 1190.28 510.737 1199.62 564.111 1211.58C595.575 1218.61 628.312 1219.61 659.224 1230.11C671.665 1234.31 687.589 1233.31 701.176 1231.03C797.139 1215.02 894.588 1209.85 991.272 1199.51C1089.32 1189.01 1187.78 1180.21 1285.74 1169.02C1361.36 1160.38 1437.92 1159.72 1512.82 1144.83C1545.77 1138.23 1580.25 1139.51 1614.01 1136.65C1677.28 1131.36 1739.57 1119.36 1803.34 1117.32C1859.69 1115.47 1914.85 1101.92 1971.45 1099.49C2046.18 1096.29 2119.38 1080.35 2194.45 1077.88C2270.63 1075.41 2274.11 1070.13 2274.49 1000.52C2274.71 955.526 2274.54 910.573 2274.54 865.62H2274.83C2274.83 812.911 2275.09 760.241 2274.71 707.571C2274.54 685.114 2279.8 664.47 2293.64 645.563C2300.69 635.955 2304.51 624.186 2312.58 615.542C2381.2 542.036 2373.98 454.098 2371.52 366.816C2370.92 346.712 2362.26 336.178 2339.67 333.747C2287.74 328.152 2236.15 318.814 2184.09 315.843C2081.17 310.017 1979.13 296.511 1876.76 286.363C1802.49 278.993 1727.64 275.945 1653.8 264.137C1617.7 258.35 1580.89 254.684 1544.25 253.565C1470.66 251.288 1398.86 235.313 1325.14 233.114C1273.09 231.571 1221.45 221.229 1169.4 217.641C1091.99 212.277 1015.81 198.039 938.068 194.914C891.573 193.023 845.418 185.499 799.05 180.868C682.663 169.215 566.235 157.639 449.763 146.218C354.395 136.919 258.984 127.812 163.574 118.783C155.166 117.973 146.632 117.895 138.139 118.088C123.15 118.359 114.361 125.574 112.918 139.079C111.771 149.305 111.304 159.607 111.304 169.871C111.22 267.494 111.856 365.156 111.007 462.78Z" fill="#1980A0"/>
</svg>

