<svg width="390" height="499" viewBox="0 0 390 499" fill="none" xmlns="http://www.w3.org/2000/svg">
<path d="M434 0L0 64.2758V440.409L434 499V0Z" fill="#3DBAE1"/>
<path d="M373.078 35.3227C373.176 37.0841 373.435 38.8106 373.491 40.562C373.64 45.2868 374.104 49.9494 374.408 54.6382C374.606 57.6918 374.72 60.7772 375.039 63.8145C375.361 66.8795 375.24 67.156 373.623 67.8397C372.283 68.4072 370.936 68.9382 369.592 69.4857L369.587 69.4469C368.075 70.0627 366.568 70.7269 365.049 71.2776C364.043 71.6407 363.969 71.4687 363.751 69.5951C363.464 67.1219 363.198 64.6462 363.125 62.117C363.108 61.4907 363.041 60.8652 362.972 60.2478C362.876 59.3778 362.563 58.9515 362.085 58.9617C361.845 58.9663 361.603 59.0121 361.365 59.0646C359.591 59.4604 357.826 59.925 356.038 60.1714C354.604 60.3687 353.179 60.922 351.735 61.1156C349.917 61.3588 348.124 61.9492 346.301 62.1961C344.768 62.4047 343.232 62.9289 341.694 63.2526C340.579 63.4888 340.338 63.1617 340.14 61.1907C339.538 55.2278 338.791 49.3205 338.048 43.4114C337.647 40.2288 337.706 40.1642 339.434 39.7768C341.345 39.3484 343.273 39.2469 345.175 38.6356C346.389 38.246 347.648 38.3026 348.872 37.9792C350.471 37.5589 352.091 37.55 353.687 37.0516C354.939 36.6602 356.219 36.5488 357.487 36.3064C360.016 35.8223 362.542 35.2657 365.077 34.8685C366.859 34.5895 368.618 33.9237 370.418 33.9288C370.859 33.9299 371.3 33.6727 371.742 33.5584C372.665 33.3189 372.988 33.6711 373.078 35.3227Z" fill="#39D0FF"/>
<path d="M17.8411 405.386C17.9561 403.628 17.9087 401.84 18.0632 400.108C18.4817 395.437 18.5846 390.703 18.8469 386.005C19.0184 382.947 19.2745 379.889 19.3259 376.799C19.3772 373.68 19.528 373.458 21.1878 373.427C22.5644 373.401 23.9423 373.413 25.3201 373.408L25.3203 373.448C26.8696 373.443 28.4198 373.388 29.9684 373.448C30.994 373.49 31.0457 373.687 31.0347 375.602C31.0198 378.13 30.984 380.651 30.7539 383.149C30.6961 383.767 30.687 384.404 30.6799 385.034C30.6699 385.921 30.9249 386.461 31.393 386.639C31.6281 386.729 31.8692 386.78 32.1082 386.822C33.8866 387.134 35.6656 387.376 37.4406 387.84C38.8637 388.212 40.3212 388.234 41.7537 388.613C43.5577 389.092 45.3786 389.222 47.1878 389.699C48.7092 390.1 50.2704 390.193 51.811 390.483C52.9273 390.691 53.1238 391.105 53.0823 393.108C52.9582 399.166 52.983 405.227 53.0037 411.288C53.0152 414.553 52.9503 414.593 51.2164 414.29C49.3005 413.956 47.4055 413.295 45.476 413.143C44.2445 413.045 43.022 412.494 41.7891 412.328C40.1776 412.108 38.595 411.478 36.9778 411.336C35.709 411.225 34.4459 410.83 33.1795 410.567C30.6527 410.043 28.1201 409.592 25.598 408.981C23.8253 408.551 22.0287 408.508 20.272 407.794C19.8411 407.619 19.3805 407.697 18.9348 407.634C18.0059 407.505 17.7326 407.033 17.8411 405.386Z" fill="#39D0FF"/>
</svg>
