<svg width="1440" height="1016" viewBox="0 0 1440 1016" fill="none" xmlns="http://www.w3.org/2000/svg">
<path d="M1622.99 300.252C1623.2 324.48 1617.98 346.758 1607.8 368.231C1600.13 384.394 1592.7 400.691 1584.47 416.518C1567.15 449.819 1559.08 483.825 1560.29 522.502C1563.52 626.469 1562.51 730.571 1562.95 834.606C1562.98 845.728 1562.34 857.019 1560.49 867.973C1558.48 879.835 1551.32 887.933 1538.84 890.756C1489.79 901.845 1440.88 913.337 1391.82 924.292C1349.33 933.801 1306.5 941.933 1264.24 952.35C1239.32 958.466 1213.4 959.34 1188.93 968.48C1179.08 972.142 1166.47 971.269 1155.71 969.286C1079.73 955.341 1002.57 950.838 926.02 941.833C848.392 932.693 770.428 925.031 692.867 915.286C632.99 907.759 572.373 907.188 513.068 894.217C486.979 888.471 459.679 889.58 432.952 887.093C382.858 882.49 333.538 872.039 283.041 870.258C238.427 868.645 194.755 856.851 149.939 854.734C90.7683 851.945 32.808 838.067 -26.6319 835.916C-86.946 833.766 -89.7031 829.162 -90.0057 768.542C-90.1738 729.361 -90.0394 690.214 -90.0394 651.066H-90.2745C-90.2745 605.165 -90.4762 559.297 -90.1736 513.429C-90.0391 493.872 -94.2082 475.894 -105.168 459.429C-110.749 451.062 -113.775 440.813 -120.163 433.286C-174.492 369.272 -168.777 292.691 -166.827 216.682C-166.356 199.174 -159.498 190.001 -141.612 187.884C-100.495 183.011 -59.6468 174.879 -18.4289 172.292C63.0657 167.218 143.854 155.457 224.912 146.619C283.713 140.201 342.985 137.547 401.45 127.264C430.027 122.224 459.175 119.031 488.189 118.057C546.452 116.074 603.304 102.163 661.668 100.247C702.886 98.9032 743.767 89.8976 784.985 86.7725C846.274 82.1017 906.588 69.7023 968.146 66.9804C1004.96 65.3339 1041.5 58.7813 1078.22 54.7489C1170.37 44.6008 1262.56 34.52 1354.77 24.5736C1430.29 16.4753 1505.83 8.54492 1581.37 0.681837C1588.03 -0.0238248 1594.79 -0.0910061 1601.51 0.0770085C1613.38 0.312229 1620.34 6.59598 1621.48 18.357C1622.39 27.2618 1622.76 36.2337 1622.76 45.1721C1622.83 130.187 1622.32 215.237 1622.99 300.252Z" fill="#3DBAE1"/>
<path d="M89 266.09C89 258.378 94.849 251.922 102.524 251.163L1337.02 129.129C1345.85 128.256 1353.5 135.188 1353.5 144.056V838.422C1353.5 845.473 1348.59 851.573 1341.7 853.077L1181.88 887.98C1180.3 888.324 1178.68 888.412 1177.08 888.239L102.393 772.443C94.7749 771.622 89 765.192 89 757.529V266.09Z" fill="#1980A0"/>
<rect x="643.5" y="634" width="169" height="37" rx="18.5" fill="#FFDA1D"/>
<path d="M664.58 657V648.6H667.652C669.128 648.6 670.052 649.38 670.052 650.868C670.052 651.552 669.752 652.14 669.224 652.416C670.064 652.764 670.484 653.448 670.484 654.468C670.484 656.088 669.44 657 667.712 657H664.58ZM667.532 650.04H666.14V651.864H667.568C668.228 651.864 668.552 651.612 668.552 650.952C668.552 650.292 668.216 650.04 667.532 650.04ZM667.568 653.304H666.14V655.56H667.568C668.468 655.56 668.924 655.188 668.924 654.432C668.924 653.676 668.468 653.304 667.568 653.304ZM671.846 657V648.6H677.042V650.04H673.406V651.804H676.322V653.244H673.406V655.56H677.162V657H671.846ZM685.544 651.048L684.14 651.408C683.768 650.436 683.084 649.944 682.064 649.944C681.38 649.944 680.804 650.184 680.348 650.676C679.904 651.168 679.676 651.876 679.676 652.8C679.676 653.724 679.904 654.432 680.348 654.924C680.804 655.416 681.38 655.656 682.064 655.656C683.084 655.656 683.768 655.164 684.14 654.192L685.544 654.552C685.148 656.172 683.888 657.096 682.064 657.096C680.948 657.096 680.012 656.712 679.244 655.956C678.476 655.2 678.092 654.144 678.092 652.8C678.092 651.456 678.476 650.4 679.244 649.644C680.012 648.888 680.948 648.504 682.064 648.504C683.888 648.504 685.148 649.428 685.544 651.048ZM688.65 648.96C689.238 648.66 689.886 648.504 690.618 648.504C692.07 648.504 693.282 649.068 694.014 650.4C694.386 651.06 694.578 651.864 694.578 652.8C694.578 654.672 693.75 656.04 692.586 656.652C691.998 656.952 691.35 657.096 690.618 657.096C689.166 657.096 687.966 656.532 687.21 655.2C686.838 654.54 686.658 653.736 686.658 652.8C686.658 650.928 687.486 649.548 688.65 648.96ZM692.31 650.664C691.866 650.184 691.302 649.944 690.618 649.944C689.934 649.944 689.37 650.184 688.914 650.664C688.47 651.144 688.242 651.852 688.242 652.8C688.242 653.748 688.47 654.456 688.914 654.936C689.37 655.416 689.934 655.656 690.618 655.656C691.302 655.656 691.866 655.416 692.31 654.936C692.766 654.456 692.994 653.748 692.994 652.8C692.994 651.852 692.766 651.144 692.31 650.664ZM697.792 657H696.232V648.6H697.984L699.964 653.844L701.944 648.6H703.696V657H702.136V651.816L700.528 656.232H699.4L697.792 651.816V657ZM705.408 657V648.6H710.604V650.04H706.968V651.804H709.884V653.244H706.968V655.56H710.724V657H705.408ZM721.515 657H719.835L719.223 655.02H716.559L715.947 657H714.267L717.111 648.6H718.671L721.515 657ZM718.779 653.58L717.891 650.664L717.003 653.58H718.779ZM730.195 650.028L728.935 650.832C728.635 650.244 728.239 649.944 727.771 649.944C727.303 649.944 726.967 650.268 726.967 650.712C726.967 651.24 727.543 651.636 728.227 651.96C729.235 652.404 730.567 653.028 730.555 654.48C730.555 656.112 729.499 657.096 727.867 657.096C727.135 657.096 726.499 656.868 725.971 656.424C725.443 655.968 725.107 655.404 724.975 654.744L726.235 653.952C726.559 655.092 727.111 655.656 727.903 655.656C728.635 655.656 728.995 655.296 728.995 654.564C728.995 654.072 728.455 653.688 727.747 653.388C726.751 652.968 725.455 652.332 725.479 650.784C725.479 650.148 725.695 649.608 726.127 649.164C726.571 648.72 727.111 648.504 727.771 648.504C728.911 648.504 729.715 649.008 730.195 650.028ZM735.107 653.712H733.499V657H731.939V648.6H735.107C736.823 648.6 737.735 649.62 737.735 651.156C737.735 652.692 736.823 653.712 735.107 653.712ZM733.499 652.272H735.047C735.779 652.272 736.151 651.9 736.151 651.156C736.151 650.412 735.779 650.04 735.047 650.04H733.499V652.272ZM740.529 648.96C741.117 648.66 741.765 648.504 742.497 648.504C743.949 648.504 745.161 649.068 745.893 650.4C746.265 651.06 746.457 651.864 746.457 652.8C746.457 654.672 745.629 656.04 744.465 656.652C743.877 656.952 743.229 657.096 742.497 657.096C741.045 657.096 739.845 656.532 739.089 655.2C738.717 654.54 738.537 653.736 738.537 652.8C738.537 650.928 739.365 649.548 740.529 648.96ZM744.189 650.664C743.745 650.184 743.181 649.944 742.497 649.944C741.813 649.944 741.249 650.184 740.793 650.664C740.349 651.144 740.121 651.852 740.121 652.8C740.121 653.748 740.349 654.456 740.793 654.936C741.249 655.416 741.813 655.656 742.497 655.656C743.181 655.656 743.745 655.416 744.189 654.936C744.645 654.456 744.873 653.748 744.873 652.8C744.873 651.852 744.645 651.144 744.189 650.664ZM752.581 654.144V648.6H754.141V657H752.497L749.413 651.456V657H747.853V648.6H749.497L752.581 654.144ZM760.57 650.028L759.31 650.832C759.01 650.244 758.614 649.944 758.146 649.944C757.678 649.944 757.342 650.268 757.342 650.712C757.342 651.24 757.918 651.636 758.602 651.96C759.61 652.404 760.942 653.028 760.93 654.48C760.93 656.112 759.874 657.096 758.242 657.096C757.51 657.096 756.874 656.868 756.346 656.424C755.818 655.968 755.482 655.404 755.35 654.744L756.61 653.952C756.934 655.092 757.486 655.656 758.278 655.656C759.01 655.656 759.37 655.296 759.37 654.564C759.37 654.072 758.83 653.688 758.122 653.388C757.126 652.968 755.83 652.332 755.854 650.784C755.854 650.148 756.07 649.608 756.502 649.164C756.946 648.72 757.486 648.504 758.146 648.504C759.286 648.504 760.09 649.008 760.57 650.028ZM764.025 648.96C764.613 648.66 765.261 648.504 765.993 648.504C767.445 648.504 768.657 649.068 769.389 650.4C769.761 651.06 769.953 651.864 769.953 652.8C769.953 654.672 769.125 656.04 767.961 656.652C767.373 656.952 766.725 657.096 765.993 657.096C764.541 657.096 763.341 656.532 762.585 655.2C762.213 654.54 762.033 653.736 762.033 652.8C762.033 650.928 762.861 649.548 764.025 648.96ZM767.685 650.664C767.241 650.184 766.677 649.944 765.993 649.944C765.309 649.944 764.745 650.184 764.289 650.664C763.845 651.144 763.617 651.852 763.617 652.8C763.617 653.748 763.845 654.456 764.289 654.936C764.745 655.416 765.309 655.656 765.993 655.656C766.677 655.656 767.241 655.416 767.685 654.936C768.141 654.456 768.369 653.748 768.369 652.8C768.369 651.852 768.141 651.144 767.685 650.664ZM776.966 650.988C776.966 652.104 776.402 652.944 775.394 653.244L777.722 657H775.982L773.726 653.376H772.91V657H771.35V648.6H774.41C776.042 648.6 776.966 649.548 776.966 650.988ZM772.91 651.936H774.422C775.082 651.936 775.406 651.624 775.406 650.988C775.406 650.352 775.082 650.04 774.422 650.04H772.91V651.936Z" fill="#051A1A"/>
<path d="M787.642 647.25L786.5 648.484L790.209 652.5L786.5 656.516L787.642 657.75L792.5 652.5L787.642 647.25Z" fill="#051A1A"/>
<path d="M529.888 384.06L519.328 350.4C518.848 349.02 518.428 348.66 517.468 348.66H514.768V344.16H531.508V348.66H528.628C527.608 348.66 527.248 348.96 527.668 350.34L534.508 371.94L542.128 350.1C542.488 348.96 542.188 348.66 541.288 348.66H537.868V344.16H555.268V348.66H551.908C551.128 348.66 550.768 349.02 551.128 350.1L558.988 372.06L565.648 350.34C566.008 348.96 565.648 348.66 564.688 348.66H561.208V344.16H575.908V348.66H572.908C571.708 348.66 571.228 348.96 570.808 350.4L560.068 384.06H554.848L545.008 356.04L535.108 384.06H529.888ZM607.4 370.92H586.16C586.34 376.38 589.04 379.98 594.5 379.98C598.64 379.98 601.04 377.88 602.42 374.34L606.98 376.38C605.36 381.06 601.4 384.78 593.84 384.78C583.22 384.78 577.88 378.36 577.88 369.36C577.88 360.24 584.06 354 593.06 354C602.3 354 607.4 359.76 607.4 369.42V370.92ZM593.06 358.62C588.8 358.62 586.4 361.08 586.04 366.84H599.24C599.12 360.9 597.32 358.62 593.06 358.62ZM644.578 384.78C638.758 384.78 634.798 381.9 633.118 377.22L630.898 384H626.338C626.518 382.8 626.638 380.22 626.638 374.04V350.46C626.638 349.02 626.398 348.66 625.618 348.66H622.858V344.16H627.658C630.598 344.16 633.418 343.86 634.738 343.56V360.3C636.538 356.34 639.958 354 644.938 354C652.798 354 657.718 360.06 657.718 369.36C657.718 378.66 652.558 384.78 644.578 384.78ZM641.998 379.68C646.438 379.68 649.318 376.32 649.318 369.84V368.94C649.318 362.46 646.438 359.1 641.998 359.1C637.678 359.1 634.738 362.4 634.738 368.94V369.84C634.738 376.32 637.738 379.68 641.998 379.68ZM689.666 370.92H668.426C668.606 376.38 671.306 379.98 676.766 379.98C680.906 379.98 683.306 377.88 684.686 374.34L689.246 376.38C687.626 381.06 683.666 384.78 676.106 384.78C665.486 384.78 660.146 378.36 660.146 369.36C660.146 360.24 666.326 354 675.326 354C684.566 354 689.666 359.76 689.666 369.42V370.92ZM675.326 358.62C671.066 358.62 668.666 361.08 668.306 366.84H681.506C681.386 360.9 679.586 358.62 675.326 358.62ZM710.862 366C710.862 363.6 712.362 361.8 714.762 361.32C713.862 359.52 711.882 358.56 708.522 358.56C703.122 358.56 700.182 362.04 700.182 368.58V369.54C700.182 376.26 702.822 379.92 708.222 379.92C712.482 379.92 715.062 378.12 716.502 374.22L721.002 376.32C719.202 381.18 715.422 384.78 707.922 384.78C697.602 384.78 691.962 379.08 691.962 369.3C691.962 359.76 697.962 354 708.042 354C716.442 354 721.482 357.9 721.482 363.96C721.482 367.92 719.022 370.44 715.602 370.44C712.842 370.44 710.862 368.52 710.862 366ZM738.556 384.78C729.256 384.78 723.076 378.6 723.076 369.36C723.076 360.24 729.376 354 738.796 354C747.976 354 754.156 360.18 754.156 369.36C754.156 378.54 747.916 384.78 738.556 384.78ZM738.616 379.98C743.716 379.98 746.056 376.74 746.056 369.78V369C746.056 361.98 743.716 358.8 738.676 358.8C733.576 358.8 731.236 361.98 731.236 369V369.78C731.236 376.8 733.516 379.98 738.616 379.98ZM756.234 384V379.5H758.874C759.534 379.5 759.894 379.32 759.894 377.94V361.08C759.894 359.64 759.654 359.28 758.874 359.28H756.234V354.78H760.914C763.854 354.78 766.554 354.48 767.874 354.18V359.94C769.674 356.1 772.554 354 776.994 354C781.674 354 784.674 356.16 785.694 360.66C787.254 356.34 790.374 354 795.294 354C801.654 354 804.954 357.54 804.954 365.4V377.94C804.954 379.32 805.314 379.5 805.974 379.5H808.614V384H793.614V379.5H795.834C796.494 379.5 796.854 379.32 796.854 377.94V365.88C796.854 361.38 795.354 359.4 792.054 359.4C788.334 359.4 786.474 362.34 786.474 367.92V377.94C786.474 379.32 786.834 379.5 787.494 379.5H790.014V384H775.134V379.5H777.354C778.014 379.5 778.374 379.32 778.374 377.94V365.34C778.374 361.38 776.694 359.4 773.574 359.4C769.854 359.4 767.994 362.34 767.994 367.92V377.94C767.994 379.32 768.354 379.5 769.014 379.5H771.354V384H756.234ZM839.666 370.92H818.426C818.606 376.38 821.306 379.98 826.766 379.98C830.906 379.98 833.306 377.88 834.686 374.34L839.246 376.38C837.626 381.06 833.666 384.78 826.106 384.78C815.486 384.78 810.146 378.36 810.146 369.36C810.146 360.24 816.326 354 825.326 354C834.566 354 839.666 359.76 839.666 369.42V370.92ZM825.326 358.62C821.066 358.62 818.666 361.08 818.306 366.84H831.506C831.386 360.9 829.586 358.62 825.326 358.62ZM868.203 384.72C861.603 384.72 859.023 382.2 859.023 375.66V359.28H855.063V355.26C855.063 355.26 857.523 355.08 857.343 355.08C859.383 354.72 860.703 353.94 860.943 351.78L861.543 346.5H867.123V354.78H872.943V359.28H866.943V375.54C866.943 378.72 868.083 379.8 870.663 379.8C871.923 379.8 872.703 379.56 873.423 379.32V383.94C872.283 384.3 870.303 384.72 868.203 384.72ZM886.874 343.56V359.76C888.734 355.86 892.094 354 896.654 354C902.894 354 906.134 357.54 906.134 364.8V377.94C906.134 379.32 906.494 379.5 907.154 379.5H909.794V384H894.674V379.5H897.014C897.674 379.5 898.034 379.32 898.034 377.94V365.16C898.034 361.08 896.594 359.28 893.234 359.28C889.214 359.28 886.874 362.46 886.874 368.94V377.94C886.874 379.32 887.234 379.5 887.894 379.5H890.234V384H875.114V379.5H877.754C878.414 379.5 878.774 379.32 878.774 377.94V350.46C878.774 349.02 878.534 348.66 877.754 348.66H874.934V344.16H879.914C882.854 344.16 885.554 343.86 886.874 343.56ZM940.916 370.92H919.676C919.856 376.38 922.556 379.98 928.016 379.98C932.156 379.98 934.556 377.88 935.936 374.34L940.496 376.38C938.876 381.06 934.916 384.78 927.356 384.78C916.736 384.78 911.396 378.36 911.396 369.36C911.396 360.24 917.576 354 926.576 354C935.816 354 940.916 359.76 940.916 369.42V370.92ZM926.576 358.62C922.316 358.62 919.916 361.08 919.556 366.84H932.756C932.636 360.9 930.836 358.62 926.576 358.62ZM514.588 438.78C508.768 438.78 504.808 435.9 503.128 431.22L500.908 438H496.348C496.528 436.8 496.647 434.22 496.647 428.04V404.46C496.647 403.02 496.408 402.66 495.628 402.66H492.868V398.16H497.668C500.607 398.16 503.428 397.86 504.748 397.56V414.3C506.548 410.34 509.968 408 514.948 408C522.808 408 527.728 414.06 527.728 423.36C527.728 432.66 522.568 438.78 514.588 438.78ZM512.008 433.68C516.448 433.68 519.328 430.32 519.328 423.84V422.94C519.328 416.46 516.448 413.1 512.008 413.1C507.688 413.1 504.748 416.4 504.748 422.94V423.84C504.748 430.32 507.748 433.68 512.008 433.68ZM537.656 406.08C534.596 406.08 532.616 403.86 532.616 401.16C532.616 398.46 534.596 396.24 537.656 396.24C540.596 396.24 542.696 398.46 542.696 401.16C542.696 403.86 540.596 406.08 537.656 406.08ZM529.976 438V433.5H532.676C533.336 433.5 533.636 433.2 533.636 431.94V415.68C533.636 413.82 533.336 413.28 532.316 413.28H529.976V408.78H534.776C537.716 408.78 540.416 408.48 541.796 408.18V431.94C541.796 433.2 542.096 433.5 542.756 433.5H545.276V438H529.976ZM562.499 450.36C551.099 450.36 546.659 448.32 546.659 444.3C546.659 441.3 549.479 439.5 554.399 438.6C550.259 437.88 548.099 435.78 548.099 432.54C548.099 429.72 550.019 427.56 553.499 426.6C550.559 424.92 548.939 422.22 548.939 418.5C548.939 412.2 554.879 408 562.979 408C566.579 408 569.759 408.84 572.159 410.34C572.759 406.44 574.679 403.86 578.099 403.86C580.559 403.86 582.299 405.48 582.299 407.7C582.299 409.86 580.799 411.48 578.819 411.48C577.199 411.48 576.119 410.7 575.639 409.26C574.979 409.86 574.379 410.88 574.079 411.9C575.759 413.64 576.719 415.86 576.719 418.44C576.719 424.92 571.139 428.64 562.619 428.64C560.159 428.64 557.939 428.4 556.079 427.8C554.699 428.1 554.219 428.76 554.219 429.72C554.219 431.34 555.179 431.88 558.059 431.88C560.759 431.88 568.439 431.76 570.839 431.76C577.559 431.76 580.079 435.18 580.079 440.04C580.079 446.7 573.959 450.36 562.499 450.36ZM568.499 439.38H557.039C554.339 440.16 553.019 441.72 553.019 443.7C553.019 446.04 556.079 447 562.799 447C570.059 447 573.959 445.5 573.959 442.5C573.959 440.04 572.579 439.38 568.499 439.38ZM562.679 424.86C566.399 424.86 568.439 422.7 568.439 418.86V418.02C568.439 413.94 566.579 411.9 562.859 411.9C559.019 411.9 557.099 414 557.099 418.08V418.92C557.099 422.76 559.079 424.86 562.679 424.86ZM596.015 450.36C584.615 450.36 580.175 448.32 580.175 444.3C580.175 441.3 582.995 439.5 587.915 438.6C583.775 437.88 581.615 435.78 581.615 432.54C581.615 429.72 583.535 427.56 587.015 426.6C584.075 424.92 582.455 422.22 582.455 418.5C582.455 412.2 588.395 408 596.495 408C600.095 408 603.275 408.84 605.675 410.34C606.275 406.44 608.195 403.86 611.615 403.86C614.075 403.86 615.815 405.48 615.815 407.7C615.815 409.86 614.315 411.48 612.335 411.48C610.715 411.48 609.635 410.7 609.155 409.26C608.495 409.86 607.895 410.88 607.595 411.9C609.275 413.64 610.235 415.86 610.235 418.44C610.235 424.92 604.655 428.64 596.135 428.64C593.675 428.64 591.455 428.4 589.595 427.8C588.215 428.1 587.735 428.76 587.735 429.72C587.735 431.34 588.695 431.88 591.575 431.88C594.275 431.88 601.955 431.76 604.355 431.76C611.075 431.76 613.595 435.18 613.595 440.04C613.595 446.7 607.475 450.36 596.015 450.36ZM602.015 439.38H590.555C587.855 440.16 586.535 441.72 586.535 443.7C586.535 446.04 589.595 447 596.315 447C603.575 447 607.475 445.5 607.475 442.5C607.475 440.04 606.095 439.38 602.015 439.38ZM596.195 424.86C599.915 424.86 601.955 422.7 601.955 418.86V418.02C601.955 413.94 600.095 411.9 596.375 411.9C592.535 411.9 590.615 414 590.615 418.08V418.92C590.615 422.76 592.595 424.86 596.195 424.86ZM644.637 424.92H623.397C623.577 430.38 626.277 433.98 631.737 433.98C635.877 433.98 638.277 431.88 639.657 428.34L644.217 430.38C642.597 435.06 638.637 438.78 631.077 438.78C620.457 438.78 615.117 432.36 615.117 423.36C615.117 414.24 621.297 408 630.297 408C639.537 408 644.637 413.76 644.637 423.42V424.92ZM630.297 412.62C626.037 412.62 623.637 415.08 623.277 420.84H636.477C636.357 414.9 634.557 412.62 630.297 412.62ZM647.113 436.38V428.52H653.233V433.92C654.373 434.28 656.173 434.52 658.513 434.52C661.993 434.52 664.333 433.38 664.333 430.62C664.333 427.74 661.393 427.02 657.433 426.3C652.273 425.34 646.993 423.78 646.993 417.54C646.993 411.84 651.613 408 659.953 408C664.153 408 668.773 409.32 670.873 410.34V418.08H664.753V413.04C664.033 412.68 661.873 412.32 660.193 412.32C656.593 412.32 654.493 413.7 654.493 416.04C654.493 418.98 657.493 419.34 661.333 420.06C666.553 421.08 671.833 422.64 671.833 429C671.833 434.88 666.973 438.78 658.633 438.78C654.193 438.78 649.993 437.52 647.113 436.38ZM686.123 438.72C679.523 438.72 676.943 436.2 676.943 429.66V413.28H672.983V409.26C672.983 409.26 675.443 409.08 675.263 409.08C677.303 408.72 678.623 407.94 678.863 405.78L679.463 400.5H685.043V408.78H690.863V413.28H684.863V429.54C684.863 432.72 686.003 433.8 688.583 433.8C689.843 433.8 690.623 433.56 691.343 433.32V437.94C690.203 438.3 688.223 438.72 686.123 438.72ZM726.595 420C726.595 417.6 728.095 415.8 730.495 415.32C729.595 413.52 727.615 412.56 724.255 412.56C718.855 412.56 715.915 416.04 715.915 422.58V423.54C715.915 430.26 718.555 433.92 723.955 433.92C728.215 433.92 730.795 432.12 732.235 428.22L736.735 430.32C734.935 435.18 731.155 438.78 723.655 438.78C713.335 438.78 707.695 433.08 707.695 423.3C707.695 413.76 713.695 408 723.775 408C732.175 408 737.215 411.9 737.215 417.96C737.215 421.92 734.755 424.44 731.335 424.44C728.575 424.44 726.595 422.52 726.595 420ZM738.628 438V433.5H741.328C741.928 433.5 742.288 433.32 742.288 431.94V404.46C742.288 403.02 742.048 402.66 741.328 402.66H738.508V398.16H743.428C746.368 398.16 749.068 397.86 750.448 397.56V431.94C750.448 433.32 750.808 433.5 751.408 433.5H753.808V438H738.628ZM785.19 438C782.25 438 779.55 438.3 778.17 438.6V433.26C776.31 436.92 773.01 438.78 768.57 438.78C762.45 438.78 759.03 435.54 759.03 428.1V414.84C759.03 413.46 758.67 413.28 758.07 413.28H755.37V408.78H767.19V427.92C767.19 432.18 768.93 433.62 771.99 433.62C776.01 433.62 778.17 430.5 778.17 424.92V414.84C778.17 413.46 777.81 413.28 777.15 413.28H774.21V408.78H786.27V431.7C786.27 433.14 786.51 433.5 787.29 433.5H790.11V438H785.19ZM812.537 438.78C806.717 438.78 802.757 435.9 801.077 431.22L798.857 438H794.297C794.477 436.8 794.597 434.22 794.597 428.04V404.46C794.597 403.02 794.357 402.66 793.577 402.66H790.817V398.16H795.617C798.557 398.16 801.377 397.86 802.697 397.56V414.3C804.497 410.34 807.917 408 812.897 408C820.757 408 825.677 414.06 825.677 423.36C825.677 432.66 820.517 438.78 812.537 438.78ZM809.957 433.68C814.397 433.68 817.277 430.32 817.277 423.84V422.94C817.277 416.46 814.397 413.1 809.957 413.1C805.637 413.1 802.697 416.4 802.697 422.94V423.84C802.697 430.32 805.697 433.68 809.957 433.68ZM853.326 438.36L844.866 414.84C844.386 413.52 844.026 413.28 843.306 413.28H841.386V408.78H856.026V413.28H854.166C853.206 413.28 852.726 413.88 853.146 415.02C853.386 415.74 856.266 424.2 857.886 428.88C859.686 424.08 862.686 415.8 862.926 415.02C863.346 413.88 862.806 413.28 861.906 413.28H860.286V408.78H874.566V413.28H872.766C871.806 413.28 871.326 413.88 871.746 415.02C871.986 415.74 875.286 424.02 877.266 429C878.886 424.14 881.646 415.98 881.886 415.14C882.246 413.76 881.766 413.28 880.866 413.28H878.826V408.78H890.346V413.28H888.486C887.706 413.28 887.406 413.46 886.926 414.84L878.586 438.36H873.126L866.046 419.46L858.786 438.36H853.326ZM899.296 406.08C896.236 406.08 894.256 403.86 894.256 401.16C894.256 398.46 896.236 396.24 899.296 396.24C902.236 396.24 904.336 398.46 904.336 401.16C904.336 403.86 902.236 406.08 899.296 406.08ZM891.616 438V433.5H894.316C894.976 433.5 895.276 433.2 895.276 431.94V415.68C895.276 413.82 894.976 413.28 893.956 413.28H891.616V408.78H896.416C899.356 408.78 902.056 408.48 903.436 408.18V431.94C903.436 433.2 903.736 433.5 904.396 433.5H906.916V438H891.616ZM921.26 438.72C914.66 438.72 912.08 436.2 912.08 429.66V413.28H908.12V409.26C908.12 409.26 910.58 409.08 910.4 409.08C912.44 408.72 913.76 407.94 914 405.78L914.6 400.5H920.18V408.78H926V413.28H920V429.54C920 432.72 921.14 433.8 923.72 433.8C924.98 433.8 925.76 433.56 926.48 433.32V437.94C925.34 438.3 923.36 438.72 921.26 438.72ZM939.93 397.56V413.76C941.79 409.86 945.15 408 949.71 408C955.95 408 959.19 411.54 959.19 418.8V431.94C959.19 433.32 959.55 433.5 960.21 433.5H962.85V438H947.73V433.5H950.07C950.73 433.5 951.09 433.32 951.09 431.94V419.16C951.09 415.08 949.65 413.28 946.29 413.28C942.27 413.28 939.93 416.46 939.93 422.94V431.94C939.93 433.32 940.29 433.5 940.95 433.5H943.29V438H928.17V433.5H930.81C931.47 433.5 931.83 433.32 931.83 431.94V404.46C931.83 403.02 931.59 402.66 930.81 402.66H927.99V398.16H932.97C935.91 398.16 938.61 397.86 939.93 397.56ZM520.839 460.08C517.779 460.08 515.799 457.86 515.799 455.16C515.799 452.46 517.779 450.24 520.839 450.24C523.779 450.24 525.879 452.46 525.879 455.16C525.879 457.86 523.779 460.08 520.839 460.08ZM513.159 492V487.5H515.859C516.519 487.5 516.819 487.2 516.819 485.94V469.68C516.819 467.82 516.519 467.28 515.499 467.28H513.159V462.78H517.959C520.899 462.78 523.599 462.48 524.979 462.18V485.94C524.979 487.2 525.279 487.5 525.939 487.5H528.459V492H513.159ZM530.443 492V487.5H533.083C533.743 487.5 534.103 487.32 534.103 485.94V469.08C534.103 467.64 533.863 467.28 533.083 467.28H530.443V462.78H535.123C538.063 462.78 540.763 462.48 542.083 462.18V467.94C543.883 464.1 546.763 462 551.203 462C555.883 462 558.883 464.16 559.903 468.66C561.463 464.34 564.583 462 569.503 462C575.863 462 579.163 465.54 579.163 473.4V485.94C579.163 487.32 579.523 487.5 580.183 487.5H582.823V492H567.823V487.5H570.043C570.703 487.5 571.063 487.32 571.063 485.94V473.88C571.063 469.38 569.563 467.4 566.263 467.4C562.543 467.4 560.683 470.34 560.683 475.92V485.94C560.683 487.32 561.043 487.5 561.703 487.5H564.223V492H549.343V487.5H551.563C552.223 487.5 552.583 487.32 552.583 485.94V473.34C552.583 469.38 550.903 467.4 547.783 467.4C544.063 467.4 542.203 470.34 542.203 475.92V485.94C542.203 487.32 542.563 487.5 543.223 487.5H545.563V492H530.443ZM583.815 502.32V497.82H586.455C587.115 497.82 587.475 497.64 587.475 496.26V469.08C587.475 467.64 587.235 467.28 586.455 467.28H583.635V462.78H588.495C591.435 462.78 594.135 462.48 595.455 462.18V468.72C597.195 464.52 600.675 462 605.775 462C613.635 462 618.555 468.06 618.555 477.36C618.555 486.66 613.395 492.78 605.415 492.78C600.435 492.78 597.255 490.38 595.575 486.6V496.26C595.575 497.64 595.935 497.82 596.595 497.82H599.235V502.32H583.815ZM602.835 487.56C607.275 487.56 610.155 484.32 610.155 477.84V476.94C610.155 470.46 607.275 467.22 602.835 467.22C598.515 467.22 595.575 470.4 595.575 476.94V477.84C595.575 484.32 598.575 487.56 602.835 487.56ZM634.536 466.56C632.916 466.56 631.656 466.74 630.696 467.04C631.416 467.88 631.836 468.96 631.836 470.28C631.836 472.92 629.796 474.66 627.156 474.66C624.096 474.66 622.176 472.98 622.176 469.86C622.176 464.1 628.416 462 635.976 462C645.036 462 648.876 464.76 648.876 471.9V485.94C648.876 487.08 649.116 487.5 649.836 487.5H652.356V492H642.636C641.736 490.5 641.256 489.06 640.836 487.02C639.336 490.2 635.016 492.78 630.156 492.78C624.636 492.78 621.336 489.42 621.336 485.1C621.336 477.78 628.716 475.5 640.776 473.7V472.02C640.776 468.12 638.796 466.56 634.536 466.56ZM633.396 487.8C637.896 487.8 640.716 484.44 640.776 479.52V477.24C633.516 478.26 629.196 479.7 629.196 483.72C629.196 486.24 630.816 487.8 633.396 487.8ZM672.981 474C672.981 471.6 674.481 469.8 676.881 469.32C675.981 467.52 674.001 466.56 670.641 466.56C665.241 466.56 662.301 470.04 662.301 476.58V477.54C662.301 484.26 664.941 487.92 670.341 487.92C674.601 487.92 677.181 486.12 678.621 482.22L683.121 484.32C681.321 489.18 677.541 492.78 670.041 492.78C659.721 492.78 654.081 487.08 654.081 477.3C654.081 467.76 660.081 462 670.161 462C678.561 462 683.601 465.9 683.601 471.96C683.601 475.92 681.141 478.44 677.721 478.44C674.961 478.44 672.981 476.52 672.981 474ZM697.315 492.72C690.715 492.72 688.135 490.2 688.135 483.66V467.28H684.175V463.26C684.175 463.26 686.635 463.08 686.455 463.08C688.495 462.72 689.815 461.94 690.055 459.78L690.655 454.5H696.235V462.78H702.055V467.28H696.055V483.54C696.055 486.72 697.195 487.8 699.775 487.8C701.035 487.8 701.815 487.56 702.535 487.32V491.94C701.395 492.3 699.415 492.72 697.315 492.72ZM734.366 492.78C725.066 492.78 718.886 486.6 718.886 477.36C718.886 468.24 725.186 462 734.606 462C743.786 462 749.966 468.18 749.966 477.36C749.966 486.54 743.726 492.78 734.366 492.78ZM734.426 487.98C739.526 487.98 741.866 484.74 741.866 477.78V477C741.866 469.98 739.526 466.8 734.486 466.8C729.386 466.8 727.046 469.98 727.046 477V477.78C727.046 484.8 729.326 487.98 734.426 487.98ZM751.865 467.28V462.78H755.825V460.68C755.825 453.6 758.525 451.02 765.065 451.02C767.405 451.02 769.385 451.62 770.165 452.1V456.48C769.685 456.18 768.485 455.94 767.645 455.94C764.465 455.94 763.445 457.08 763.685 461.82V462.78H769.025V467.28H763.805V485.94C763.805 487.32 764.165 487.5 764.825 487.5H767.945V492H752.165V487.5H754.805C755.465 487.5 755.825 487.32 755.825 485.94V467.28H751.865ZM819.471 481.08C819.471 488.7 814.371 492 802.611 492H785.151V487.5H788.151C788.991 487.5 789.291 487.02 789.291 485.76V458.34C789.291 457.08 788.991 456.66 788.151 456.66H785.151V452.16H802.671C813.531 452.16 817.851 455.04 817.851 462.18C817.851 466.98 815.271 469.98 809.871 471.18C816.351 472.14 819.471 475.38 819.471 481.08ZM797.511 473.58V487.5H802.971C808.611 487.5 810.711 485.64 810.711 480.66C810.711 475.5 808.431 473.58 803.331 473.58H797.511ZM797.511 469.68H802.071C806.931 469.68 809.271 467.76 809.271 463.2C809.271 458.34 807.471 456.66 802.431 456.66H797.511V469.68ZM833.534 462.18V468.6C834.914 463.92 837.974 462 841.454 462C845.774 462 848.474 464.76 848.474 469.08C848.474 472.86 846.194 475.38 842.774 475.38C840.554 475.38 838.694 473.58 838.694 471.42C838.694 469.8 839.774 468.12 841.574 467.58C841.154 467.22 840.494 466.98 839.594 466.98C835.634 466.98 833.594 470.64 833.594 476.76V485.94C833.594 487.32 833.954 487.5 834.614 487.5H837.434V492H821.834V487.5H824.474C825.134 487.5 825.494 487.32 825.494 485.94V469.08C825.494 467.64 825.254 467.28 824.474 467.28H821.654V462.78H826.514C829.454 462.78 832.154 462.48 833.534 462.18ZM863.579 466.56C861.959 466.56 860.699 466.74 859.739 467.04C860.459 467.88 860.879 468.96 860.879 470.28C860.879 472.92 858.839 474.66 856.199 474.66C853.139 474.66 851.219 472.98 851.219 469.86C851.219 464.1 857.459 462 865.019 462C874.079 462 877.919 464.76 877.919 471.9V485.94C877.919 487.08 878.159 487.5 878.879 487.5H881.399V492H871.679C870.779 490.5 870.299 489.06 869.879 487.02C868.379 490.2 864.059 492.78 859.199 492.78C853.679 492.78 850.379 489.42 850.379 485.1C850.379 477.78 857.759 475.5 869.819 473.7V472.02C869.819 468.12 867.839 466.56 863.579 466.56ZM862.439 487.8C866.939 487.8 869.759 484.44 869.819 479.52V477.24C862.559 478.26 858.239 479.7 858.239 483.72C858.239 486.24 859.859 487.8 862.439 487.8ZM883.304 490.38V482.52H889.424V487.92C890.564 488.28 892.364 488.52 894.704 488.52C898.184 488.52 900.524 487.38 900.524 484.62C900.524 481.74 897.584 481.02 893.624 480.3C888.464 479.34 883.184 477.78 883.184 471.54C883.184 465.84 887.804 462 896.144 462C900.344 462 904.964 463.32 907.064 464.34V472.08H900.944V467.04C900.224 466.68 898.064 466.32 896.384 466.32C892.784 466.32 890.684 467.7 890.684 470.04C890.684 472.98 893.684 473.34 897.524 474.06C902.744 475.08 908.024 476.64 908.024 483C908.024 488.88 903.164 492.78 894.824 492.78C890.384 492.78 886.184 491.52 883.304 490.38ZM917.695 460.08C914.635 460.08 912.655 457.86 912.655 455.16C912.655 452.46 914.635 450.24 917.695 450.24C920.635 450.24 922.735 452.46 922.735 455.16C922.735 457.86 920.635 460.08 917.695 460.08ZM910.015 492V487.5H912.715C913.375 487.5 913.675 487.2 913.675 485.94V469.68C913.675 467.82 913.375 467.28 912.355 467.28H910.015V462.78H914.815C917.755 462.78 920.455 462.48 921.835 462.18V485.94C921.835 487.2 922.135 487.5 922.795 487.5H925.315V492H910.015ZM927.358 492V487.5H930.058C930.658 487.5 931.018 487.32 931.018 485.94V458.46C931.018 457.02 930.778 456.66 930.058 456.66H927.238V452.16H932.158C935.098 452.16 937.798 451.86 939.178 451.56V485.94C939.178 487.32 939.538 487.5 940.138 487.5H942.538V492H927.358Z" fill="white"/>
<path d="M496.158 549V536.4H503.79V538.272H498.138V541.53H502.692V543.402H498.138V549H496.158ZM505.835 547.794C505.025 546.894 504.629 545.778 504.629 544.464C504.629 543.15 505.025 542.034 505.835 541.134C506.645 540.234 507.743 539.784 509.093 539.784C510.443 539.784 511.523 540.234 512.333 541.134C513.143 542.034 513.557 543.15 513.557 544.464C513.557 545.778 513.143 546.894 512.333 547.794C511.523 548.694 510.443 549.144 509.093 549.144C507.743 549.144 506.645 548.694 505.835 547.794ZM507.257 542.34C506.825 542.934 506.609 543.636 506.609 544.464C506.609 545.292 506.825 546.012 507.257 546.606C507.707 547.2 508.319 547.488 509.093 547.488C509.867 547.488 510.479 547.2 510.911 546.606C511.361 546.012 511.577 545.292 511.577 544.464C511.577 543.636 511.361 542.934 510.911 542.34C510.479 541.746 509.867 541.44 509.093 541.44C508.319 541.44 507.707 541.746 507.257 542.34ZM516.452 547.794C515.642 546.894 515.246 545.778 515.246 544.464C515.246 543.15 515.642 542.034 516.452 541.134C517.262 540.234 518.36 539.784 519.71 539.784C521.06 539.784 522.14 540.234 522.95 541.134C523.76 542.034 524.174 543.15 524.174 544.464C524.174 545.778 523.76 546.894 522.95 547.794C522.14 548.694 521.06 549.144 519.71 549.144C518.36 549.144 517.262 548.694 516.452 547.794ZM517.874 542.34C517.442 542.934 517.226 543.636 517.226 544.464C517.226 545.292 517.442 546.012 517.874 546.606C518.324 547.2 518.936 547.488 519.71 547.488C520.484 547.488 521.096 547.2 521.528 546.606C521.978 546.012 522.194 545.292 522.194 544.464C522.194 543.636 521.978 542.934 521.528 542.34C521.096 541.746 520.484 541.44 519.71 541.44C518.936 541.44 518.324 541.746 517.874 542.34ZM526.52 541.584H525.008V539.928H526.52V537.426L528.392 536.256V539.928H530.75V541.584H528.392V546.012C528.392 547.002 528.788 547.488 529.598 547.488C529.904 547.488 530.192 547.398 530.462 547.236L530.948 548.82C530.498 549.036 530.012 549.144 529.49 549.144C527.69 549.144 526.52 548.046 526.52 545.904V541.584ZM541.263 544.464C541.263 547.416 539.859 549.144 537.213 549.144C536.115 549.144 535.089 548.55 534.747 547.956V549H532.875V536.256H534.747V540.936C534.963 540.63 535.305 540.378 535.791 540.144C536.277 539.91 536.727 539.784 537.177 539.784C539.841 539.784 541.263 541.584 541.263 544.464ZM538.635 546.678C539.067 546.12 539.283 545.382 539.283 544.464C539.283 543.546 539.067 542.808 538.635 542.268C538.203 541.71 537.645 541.44 536.961 541.44C536.277 541.44 535.719 541.71 535.287 542.268C534.855 542.808 534.639 543.546 534.639 544.464C534.639 545.382 534.855 546.12 535.287 546.678C535.719 547.218 536.277 547.488 536.961 547.488C537.645 547.488 538.203 547.218 538.635 546.678ZM542.842 546.39C542.842 544.536 544.408 543.42 546.766 543.42H548.332V543.024C548.332 541.944 547.594 541.44 546.568 541.44C545.74 541.44 545.182 541.836 544.876 542.646L543.166 542.286C543.544 540.756 544.858 539.784 546.586 539.784C548.998 539.784 550.204 540.972 550.204 543.366V549H548.62L548.44 547.812C547.81 548.694 546.874 549.144 545.632 549.144C544.03 549.144 542.842 548.19 542.842 546.39ZM544.822 546.39C544.822 547.038 545.218 547.488 545.956 547.488C546.586 547.488 547.144 547.29 547.612 546.894C548.098 546.48 548.332 545.922 548.332 545.184V544.986H546.694C545.542 544.986 544.822 545.526 544.822 546.39ZM552.579 549V536.256H554.451V549H552.579ZM556.904 549V536.256H558.776V549H556.904ZM566.377 538.29C565.891 537.786 565.891 536.958 566.395 536.454C566.899 535.932 567.727 535.932 568.231 536.454C568.735 536.958 568.735 537.786 568.231 538.29C567.745 538.776 566.881 538.776 566.377 538.29ZM566.377 549V539.928H568.249V549H566.377ZM573.561 539.784C574.659 539.784 575.667 540.342 576.243 541.224L575.055 542.268C574.623 541.71 574.101 541.44 573.471 541.44C572.967 541.44 572.571 541.764 572.571 542.34C572.571 542.538 572.643 542.736 572.805 542.898C573.111 543.204 573.417 543.348 574.191 543.636C574.821 543.87 575.091 543.96 575.595 544.302C576.315 544.734 576.657 545.274 576.729 546.264C576.729 547.074 576.441 547.758 575.865 548.316C575.289 548.874 574.533 549.144 573.579 549.144C571.851 549.144 570.627 548.028 570.069 546.714L571.653 545.85C572.139 546.948 572.805 547.488 573.651 547.488C574.461 547.488 574.875 547.092 574.875 546.3C574.875 545.994 574.749 545.778 574.407 545.58C574.245 545.472 574.083 545.382 573.939 545.328C573.669 545.202 573.003 544.968 572.715 544.842C571.419 544.302 570.771 543.474 570.771 542.358C570.771 541.638 571.041 541.026 571.563 540.54C572.085 540.036 572.751 539.784 573.561 539.784ZM583.641 549V539.928H585.513V541.476C586.251 540.342 587.151 539.784 588.249 539.784C589.473 539.784 590.481 540.522 590.751 541.656C591.381 540.45 592.407 539.784 593.577 539.784C595.215 539.784 596.169 540.864 596.169 542.502V549H594.297V542.916C594.297 541.962 593.775 541.44 592.965 541.44C591.795 541.44 590.841 542.97 590.841 545.364V549H588.969V542.916C588.969 541.962 588.447 541.44 587.637 541.44C586.431 541.44 585.513 542.97 585.513 545.562V549H583.641ZM599.456 547.794C598.646 546.894 598.25 545.778 598.25 544.464C598.25 543.15 598.646 542.034 599.456 541.134C600.266 540.234 601.364 539.784 602.714 539.784C604.064 539.784 605.144 540.234 605.954 541.134C606.764 542.034 607.178 543.15 607.178 544.464C607.178 545.778 606.764 546.894 605.954 547.794C605.144 548.694 604.064 549.144 602.714 549.144C601.364 549.144 600.266 548.694 599.456 547.794ZM600.878 542.34C600.446 542.934 600.23 543.636 600.23 544.464C600.23 545.292 600.446 546.012 600.878 546.606C601.328 547.2 601.94 547.488 602.714 547.488C603.488 547.488 604.1 547.2 604.532 546.606C604.982 546.012 605.198 545.292 605.198 544.464C605.198 543.636 604.982 542.934 604.532 542.34C604.1 541.746 603.488 541.44 602.714 541.44C601.94 541.44 601.328 541.746 600.878 542.34ZM611.036 545.634V549H609.164V539.928H611.036V541.44C611.63 540.378 612.71 539.784 613.718 539.784C614.132 539.784 614.51 539.856 614.87 540L614.546 541.71C614.258 541.53 613.898 541.44 613.484 541.44C612.818 541.44 612.242 541.8 611.756 542.538C611.27 543.258 611.036 544.284 611.036 545.634ZM620.041 541.44C618.835 541.44 618.043 542.25 617.827 543.42H622.237C622.075 542.286 621.319 541.44 620.041 541.44ZM624.217 544.176V544.986H617.791C617.791 546.408 618.619 547.488 620.041 547.488C621.049 547.488 621.967 546.912 622.417 545.958L624.019 546.588C623.101 548.37 622.039 549.144 620.041 549.144C617.053 549.144 615.811 546.624 615.811 544.464C615.811 542.304 617.053 539.784 620.041 539.784C622.939 539.784 624.217 542.142 624.217 544.176ZM631.514 541.584H630.002V539.928H631.514V537.426L633.386 536.256V539.928H635.744V541.584H633.386V546.012C633.386 547.002 633.782 547.488 634.592 547.488C634.898 547.488 635.186 547.398 635.456 547.236L635.942 548.82C635.492 549.036 635.006 549.144 634.484 549.144C632.684 549.144 631.514 548.046 631.514 545.904V541.584ZM637.764 549V536.256H639.636V541.476C640.41 540.342 641.436 539.784 642.696 539.784C644.406 539.784 645.378 540.72 645.378 542.61V549H643.506V543.096C643.506 541.8 643.02 541.44 642.084 541.44C641.508 541.44 640.95 541.782 640.428 542.466C639.906 543.15 639.636 544.05 639.636 545.166V549H637.764ZM647.467 546.39C647.467 544.536 649.033 543.42 651.391 543.42H652.957V543.024C652.957 541.944 652.219 541.44 651.193 541.44C650.365 541.44 649.807 541.836 649.501 542.646L647.791 542.286C648.169 540.756 649.483 539.784 651.211 539.784C653.623 539.784 654.829 540.972 654.829 543.366V549H653.245L653.065 547.812C652.435 548.694 651.499 549.144 650.257 549.144C648.655 549.144 647.467 548.19 647.467 546.39ZM649.447 546.39C649.447 547.038 649.843 547.488 650.581 547.488C651.211 547.488 651.769 547.29 652.237 546.894C652.723 546.48 652.957 545.922 652.957 545.184V544.986H651.319C650.167 544.986 649.447 545.526 649.447 546.39ZM657.293 549V539.928H659.165V541.476C659.813 540.396 660.893 539.784 662.099 539.784C663.701 539.784 664.763 540.774 664.763 542.502V549H662.891V543.096C662.891 541.998 662.423 541.44 661.487 541.44C660.857 541.44 660.317 541.8 659.849 542.502C659.399 543.204 659.165 544.14 659.165 545.328V549H657.293ZM671.619 546.39C671.619 544.536 673.185 543.42 675.543 543.42H677.109V543.024C677.109 541.944 676.371 541.44 675.345 541.44C674.517 541.44 673.959 541.836 673.653 542.646L671.943 542.286C672.321 540.756 673.635 539.784 675.363 539.784C677.775 539.784 678.981 540.972 678.981 543.366V549H677.397L677.217 547.812C676.587 548.694 675.651 549.144 674.409 549.144C672.807 549.144 671.619 548.19 671.619 546.39ZM673.599 546.39C673.599 547.038 673.995 547.488 674.733 547.488C675.363 547.488 675.921 547.29 676.389 546.894C676.875 546.48 677.109 545.922 677.109 545.184V544.986H675.471C674.319 544.986 673.599 545.526 673.599 546.39ZM686.28 542.826C686.28 541.908 686.586 541.17 687.198 540.612C687.81 540.054 688.584 539.784 689.52 539.784C690.114 539.784 690.672 539.91 691.176 540.18L692.85 539.28L693.606 540.63L692.382 541.314C692.652 541.764 692.778 542.268 692.778 542.826C692.778 543.762 692.472 544.5 691.86 545.058C691.248 545.598 690.474 545.868 689.52 545.868C688.998 545.868 688.512 545.778 688.062 545.598C687.738 545.778 687.576 546.048 687.576 546.39C687.576 546.858 687.882 547.092 688.512 547.092H690.51C692.328 547.092 693.516 548.01 693.516 549.684C693.516 550.746 693.138 551.52 692.364 552.042C691.608 552.564 690.672 552.816 689.538 552.816C687.162 552.816 685.542 551.754 685.542 549.828C685.542 549.09 685.794 548.478 686.316 547.992C685.974 547.65 685.794 547.164 685.794 546.57C685.794 545.76 686.154 545.148 686.892 544.734C686.478 544.23 686.28 543.6 686.28 542.826ZM690.114 548.676H688.656C688.332 548.676 688.026 548.658 687.738 548.622C687.468 548.892 687.342 549.27 687.342 549.72C687.342 550.638 688.17 551.196 689.538 551.196C690.834 551.196 691.608 550.692 691.608 549.828C691.608 549.054 691.104 548.676 690.114 548.676ZM689.52 544.302C690.384 544.302 690.96 543.708 690.96 542.826C690.96 541.944 690.384 541.35 689.52 541.35C688.674 541.35 688.098 541.944 688.098 542.826C688.098 543.708 688.674 544.302 689.52 544.302ZM694.576 546.39C694.576 544.536 696.142 543.42 698.5 543.42H700.066V543.024C700.066 541.944 699.328 541.44 698.302 541.44C697.474 541.44 696.916 541.836 696.61 542.646L694.9 542.286C695.278 540.756 696.592 539.784 698.32 539.784C700.732 539.784 701.938 540.972 701.938 543.366V549H700.354L700.174 547.812C699.544 548.694 698.608 549.144 697.366 549.144C695.764 549.144 694.576 548.19 694.576 546.39ZM696.556 546.39C696.556 547.038 696.952 547.488 697.69 547.488C698.32 547.488 698.878 547.29 699.346 546.894C699.832 546.48 700.066 545.922 700.066 545.184V544.986H698.428C697.276 544.986 696.556 545.526 696.556 546.39ZM704.262 549V539.928H706.134V541.476C706.872 540.342 707.772 539.784 708.87 539.784C710.094 539.784 711.102 540.522 711.372 541.656C712.002 540.45 713.028 539.784 714.198 539.784C715.836 539.784 716.79 540.864 716.79 542.502V549H714.918V542.916C714.918 541.962 714.396 541.44 713.586 541.44C712.416 541.44 711.462 542.97 711.462 545.364V549H709.59V542.916C709.59 541.962 709.068 541.44 708.258 541.44C707.052 541.44 706.134 542.97 706.134 545.562V549H704.262ZM723.101 541.44C721.895 541.44 721.103 542.25 720.887 543.42H725.297C725.135 542.286 724.379 541.44 723.101 541.44ZM727.277 544.176V544.986H720.851C720.851 546.408 721.679 547.488 723.101 547.488C724.109 547.488 725.027 546.912 725.477 545.958L727.079 546.588C726.161 548.37 725.099 549.144 723.101 549.144C720.113 549.144 718.871 546.624 718.871 544.464C718.871 542.304 720.113 539.784 723.101 539.784C725.999 539.784 727.277 542.142 727.277 544.176ZM728.774 546.822C729.296 546.3 730.16 546.3 730.664 546.822C731.186 547.326 731.186 548.19 730.664 548.712C730.16 549.216 729.296 549.216 728.774 548.712C728.27 548.19 728.27 547.326 728.774 546.822ZM740.909 549H738.929V536.4H740.909V549ZM743.742 549V539.928H745.614V541.476C746.262 540.396 747.342 539.784 748.548 539.784C750.15 539.784 751.212 540.774 751.212 542.502V549H749.34V543.096C749.34 541.998 748.872 541.44 747.936 541.44C747.306 541.44 746.766 541.8 746.298 542.502C745.848 543.204 745.614 544.14 745.614 545.328V549H743.742ZM759.166 541.584H757.654V539.928H759.166V537.426L761.038 536.256V539.928H763.396V541.584H761.038V546.012C761.038 547.002 761.434 547.488 762.244 547.488C762.55 547.488 762.838 547.398 763.108 547.236L763.594 548.82C763.144 549.036 762.658 549.144 762.136 549.144C760.336 549.144 759.166 548.046 759.166 545.904V541.584ZM765.416 549V536.256H767.288V541.476C768.062 540.342 769.088 539.784 770.348 539.784C772.058 539.784 773.03 540.72 773.03 542.61V549H771.158V543.096C771.158 541.8 770.672 541.44 769.736 541.44C769.16 541.44 768.602 541.782 768.08 542.466C767.558 543.15 767.288 544.05 767.288 545.166V549H765.416ZM779.211 541.44C778.005 541.44 777.213 542.25 776.997 543.42H781.407C781.245 542.286 780.489 541.44 779.211 541.44ZM783.387 544.176V544.986H776.961C776.961 546.408 777.789 547.488 779.211 547.488C780.219 547.488 781.137 546.912 781.587 545.958L783.189 546.588C782.271 548.37 781.209 549.144 779.211 549.144C776.223 549.144 774.981 546.624 774.981 544.464C774.981 542.304 776.223 539.784 779.211 539.784C782.109 539.784 783.387 542.142 783.387 544.176ZM790.648 541.584H789.478V539.928H790.648V539.46C790.648 537.318 791.8 536.256 793.69 536.256C794.284 536.256 794.77 536.364 795.184 536.58L794.806 538.164C794.482 538.002 794.122 537.912 793.744 537.912C792.934 537.912 792.52 538.38 792.52 539.334V539.928H794.518V541.584H792.52V549H790.648V541.584ZM795.791 546.39C795.791 544.536 797.357 543.42 799.715 543.42H801.281V543.024C801.281 541.944 800.543 541.44 799.517 541.44C798.689 541.44 798.131 541.836 797.825 542.646L796.115 542.286C796.493 540.756 797.807 539.784 799.535 539.784C801.947 539.784 803.153 540.972 803.153 543.366V549H801.569L801.389 547.812C800.759 548.694 799.823 549.144 798.581 549.144C796.979 549.144 795.791 548.19 795.791 546.39ZM797.771 546.39C797.771 547.038 798.167 547.488 798.905 547.488C799.535 547.488 800.093 547.29 800.561 546.894C801.047 546.48 801.281 545.922 801.281 545.184V544.986H799.643C798.491 544.986 797.771 545.526 797.771 546.39ZM807.256 549L804.25 539.928H806.158L808.138 546.444L810.118 539.928H812.026L809.02 549H807.256ZM816.951 541.44C815.745 541.44 814.953 542.25 814.737 543.42H819.147C818.985 542.286 818.229 541.44 816.951 541.44ZM821.127 544.176V544.986H814.701C814.701 546.408 815.529 547.488 816.951 547.488C817.959 547.488 818.877 546.912 819.327 545.958L820.929 546.588C820.011 548.37 818.949 549.144 816.951 549.144C813.963 549.144 812.721 546.624 812.721 544.464C812.721 542.304 813.963 539.784 816.951 539.784C819.849 539.784 821.127 542.142 821.127 544.176ZM823.159 549V536.256H825.031V549H823.159ZM827.15 546.39C827.15 544.536 828.716 543.42 831.074 543.42H832.64V543.024C832.64 541.944 831.902 541.44 830.876 541.44C830.048 541.44 829.49 541.836 829.184 542.646L827.474 542.286C827.852 540.756 829.166 539.784 830.894 539.784C833.306 539.784 834.512 540.972 834.512 543.366V549H832.928L832.748 547.812C832.118 548.694 831.182 549.144 829.94 549.144C828.338 549.144 827.15 548.19 827.15 546.39ZM829.13 546.39C829.13 547.038 829.526 547.488 830.264 547.488C830.894 547.488 831.452 547.29 831.92 546.894C832.406 546.48 832.64 545.922 832.64 545.184V544.986H831.002C829.85 544.986 829.13 545.526 829.13 546.39ZM841.037 546.39C841.037 544.536 842.603 543.42 844.961 543.42H846.527V543.024C846.527 541.944 845.789 541.44 844.763 541.44C843.935 541.44 843.377 541.836 843.071 542.646L841.361 542.286C841.739 540.756 843.053 539.784 844.781 539.784C847.193 539.784 848.399 540.972 848.399 543.366V549H846.815L846.635 547.812C846.005 548.694 845.069 549.144 843.827 549.144C842.225 549.144 841.037 548.19 841.037 546.39ZM843.017 546.39C843.017 547.038 843.413 547.488 844.151 547.488C844.781 547.488 845.339 547.29 845.807 546.894C846.293 546.48 846.527 545.922 846.527 545.184V544.986H844.889C843.737 544.986 843.017 545.526 843.017 546.39ZM852.577 545.634V549H850.705V539.928H852.577V541.44C853.171 540.378 854.251 539.784 855.259 539.784C855.673 539.784 856.051 539.856 856.411 540L856.087 541.71C855.799 541.53 855.439 541.44 855.025 541.44C854.359 541.44 853.783 541.8 853.297 542.538C852.811 543.258 852.577 544.284 852.577 545.634ZM861.582 541.44C860.376 541.44 859.584 542.25 859.368 543.42H863.778C863.616 542.286 862.86 541.44 861.582 541.44ZM865.758 544.176V544.986H859.332C859.332 546.408 860.16 547.488 861.582 547.488C862.59 547.488 863.508 546.912 863.958 545.958L865.56 546.588C864.642 548.37 863.58 549.144 861.582 549.144C858.594 549.144 857.352 546.624 857.352 544.464C857.352 542.304 858.594 539.784 861.582 539.784C864.48 539.784 865.758 542.142 865.758 544.176ZM867.316 546.39C867.316 544.536 868.882 543.42 871.24 543.42H872.806V543.024C872.806 541.944 872.068 541.44 871.042 541.44C870.214 541.44 869.656 541.836 869.35 542.646L867.64 542.286C868.018 540.756 869.332 539.784 871.06 539.784C873.472 539.784 874.678 540.972 874.678 543.366V549H873.094L872.914 547.812C872.284 548.694 871.348 549.144 870.106 549.144C868.504 549.144 867.316 548.19 867.316 546.39ZM869.296 546.39C869.296 547.038 869.692 547.488 870.43 547.488C871.06 547.488 871.618 547.29 872.086 546.894C872.572 546.48 872.806 545.922 872.806 545.184V544.986H871.168C870.016 544.986 869.296 545.526 869.296 546.39ZM879.895 539.784C880.993 539.784 882.001 540.342 882.577 541.224L881.389 542.268C880.957 541.71 880.435 541.44 879.805 541.44C879.301 541.44 878.905 541.764 878.905 542.34C878.905 542.538 878.977 542.736 879.139 542.898C879.445 543.204 879.751 543.348 880.525 543.636C881.155 543.87 881.425 543.96 881.929 544.302C882.649 544.734 882.991 545.274 883.063 546.264C883.063 547.074 882.775 547.758 882.199 548.316C881.623 548.874 880.867 549.144 879.913 549.144C878.185 549.144 876.961 548.028 876.403 546.714L877.987 545.85C878.473 546.948 879.139 547.488 879.985 547.488C880.795 547.488 881.209 547.092 881.209 546.3C881.209 545.994 881.083 545.778 880.741 545.58C880.579 545.472 880.417 545.382 880.273 545.328C880.003 545.202 879.337 544.968 879.049 544.842C877.753 544.302 877.105 543.474 877.105 542.358C877.105 541.638 877.375 541.026 877.897 540.54C878.419 540.036 879.085 539.784 879.895 539.784ZM890.515 547.794C889.705 546.894 889.309 545.778 889.309 544.464C889.309 543.15 889.705 542.034 890.515 541.134C891.325 540.234 892.423 539.784 893.773 539.784C895.123 539.784 896.203 540.234 897.013 541.134C897.823 542.034 898.237 543.15 898.237 544.464C898.237 545.778 897.823 546.894 897.013 547.794C896.203 548.694 895.123 549.144 893.773 549.144C892.423 549.144 891.325 548.694 890.515 547.794ZM891.937 542.34C891.505 542.934 891.289 543.636 891.289 544.464C891.289 545.292 891.505 546.012 891.937 546.606C892.387 547.2 892.999 547.488 893.773 547.488C894.547 547.488 895.159 547.2 895.591 546.606C896.041 546.012 896.257 545.292 896.257 544.464C896.257 543.636 896.041 542.934 895.591 542.34C895.159 541.746 894.547 541.44 893.773 541.44C892.999 541.44 892.387 541.746 891.937 542.34ZM900.634 541.584H899.464V539.928H900.634V539.46C900.634 537.318 901.786 536.256 903.676 536.256C904.27 536.256 904.756 536.364 905.17 536.58L904.792 538.164C904.468 538.002 904.108 537.912 903.73 537.912C902.92 537.912 902.506 538.38 902.506 539.334V539.928H904.504V541.584H902.506V549H900.634V541.584ZM919.77 539.874C919.77 541.602 918.888 542.79 917.322 543.204L920.958 549H918.618L915.072 543.348H913.614V549H911.634V536.4H916.044C918.402 536.4 919.77 537.714 919.77 539.874ZM913.614 541.476H916.098C917.106 541.476 917.754 540.954 917.754 539.874C917.754 538.794 917.106 538.272 916.098 538.272H913.614V541.476ZM922.686 538.29C922.2 537.786 922.2 536.958 922.704 536.454C923.208 535.932 924.036 535.932 924.54 536.454C925.044 536.958 925.044 537.786 924.54 538.29C924.054 538.776 923.19 538.776 922.686 538.29ZM922.686 549V539.928H924.558V549H922.686ZM927.78 547.794C926.97 546.894 926.574 545.778 926.574 544.464C926.574 543.15 926.97 542.034 927.78 541.134C928.59 540.234 929.688 539.784 931.038 539.784C932.388 539.784 933.468 540.234 934.278 541.134C935.088 542.034 935.502 543.15 935.502 544.464C935.502 545.778 935.088 546.894 934.278 547.794C933.468 548.694 932.388 549.144 931.038 549.144C929.688 549.144 928.59 548.694 927.78 547.794ZM929.202 542.34C928.77 542.934 928.554 543.636 928.554 544.464C928.554 545.292 928.77 546.012 929.202 546.606C929.652 547.2 930.264 547.488 931.038 547.488C931.812 547.488 932.424 547.2 932.856 546.606C933.306 546.012 933.522 545.292 933.522 544.464C933.522 543.636 933.306 542.934 932.856 542.34C932.424 541.746 931.812 541.44 931.038 541.44C930.264 541.44 929.652 541.746 929.202 542.34ZM941.903 544.464C941.903 541.584 943.325 539.784 945.989 539.784C946.439 539.784 946.889 539.91 947.375 540.144C947.861 540.378 948.203 540.63 948.419 540.936V536.256H950.291V549H948.419V547.956C948.077 548.55 947.051 549.144 945.953 549.144C943.307 549.144 941.903 547.416 941.903 544.464ZM944.531 542.268C944.099 542.808 943.883 543.546 943.883 544.464C943.883 545.382 944.099 546.12 944.531 546.678C944.963 547.218 945.521 547.488 946.205 547.488C946.889 547.488 947.447 547.218 947.879 546.678C948.311 546.12 948.527 545.382 948.527 544.464C948.527 543.546 948.311 542.808 947.879 542.268C947.447 541.71 946.889 541.44 946.205 541.44C945.521 541.44 944.963 541.71 944.531 542.268ZM956.591 541.44C955.385 541.44 954.593 542.25 954.377 543.42H958.787C958.625 542.286 957.869 541.44 956.591 541.44ZM960.767 544.176V544.986H954.341C954.341 546.408 955.169 547.488 956.591 547.488C957.599 547.488 958.517 546.912 958.967 545.958L960.569 546.588C959.651 548.37 958.589 549.144 956.591 549.144C953.603 549.144 952.361 546.624 952.361 544.464C952.361 542.304 953.603 539.784 956.591 539.784C959.489 539.784 960.767 542.142 960.767 544.176ZM499.261 568.004V559.4H501.241V567.914C501.241 569.354 500.881 570.416 500.161 571.118C499.441 571.802 498.523 572.144 497.389 572.144C496.309 572.144 495.427 571.838 494.761 571.208C494.095 570.578 493.681 569.786 493.537 568.832L495.535 568.418C495.751 569.588 496.399 570.272 497.389 570.272C498.613 570.272 499.261 569.642 499.261 568.004ZM503.115 569.39C503.115 567.536 504.681 566.42 507.039 566.42H508.605V566.024C508.605 564.944 507.867 564.44 506.841 564.44C506.013 564.44 505.455 564.836 505.149 565.646L503.439 565.286C503.817 563.756 505.131 562.784 506.859 562.784C509.271 562.784 510.477 563.972 510.477 566.366V572H508.893L508.713 570.812C508.083 571.694 507.147 572.144 505.905 572.144C504.303 572.144 503.115 571.19 503.115 569.39ZM505.095 569.39C505.095 570.038 505.491 570.488 506.229 570.488C506.859 570.488 507.417 570.29 507.885 569.894C508.371 569.48 508.605 568.922 508.605 568.184V567.986H506.967C505.815 567.986 505.095 568.526 505.095 569.39ZM512.942 572V562.928H514.814V564.476C515.462 563.396 516.542 562.784 517.748 562.784C519.35 562.784 520.412 563.774 520.412 565.502V572H518.54V566.096C518.54 564.998 518.072 564.44 517.136 564.44C516.506 564.44 515.966 564.8 515.498 565.502C515.048 566.204 514.814 567.14 514.814 568.328V572H512.942ZM526.543 564.44C525.337 564.44 524.545 565.25 524.329 566.42H528.739C528.577 565.286 527.821 564.44 526.543 564.44ZM530.719 567.176V567.986H524.293C524.293 569.408 525.121 570.488 526.543 570.488C527.551 570.488 528.469 569.912 528.919 568.958L530.521 569.588C529.603 571.37 528.541 572.144 526.543 572.144C523.555 572.144 522.313 569.624 522.313 567.464C522.313 565.304 523.555 562.784 526.543 562.784C529.441 562.784 530.719 565.142 530.719 567.176ZM532.82 561.29C532.334 560.786 532.334 559.958 532.838 559.454C533.342 558.932 534.17 558.932 534.674 559.454C535.178 559.958 535.178 560.786 534.674 561.29C534.188 561.776 533.324 561.776 532.82 561.29ZM532.82 572V562.928H534.692V572H532.82ZM538.983 568.634V572H537.111V562.928H538.983V564.44C539.577 563.378 540.657 562.784 541.665 562.784C542.079 562.784 542.457 562.856 542.817 563L542.493 564.71C542.205 564.53 541.845 564.44 541.431 564.44C540.765 564.44 540.189 564.8 539.703 565.538C539.217 566.258 538.983 567.284 538.983 568.634ZM544.964 570.794C544.154 569.894 543.758 568.778 543.758 567.464C543.758 566.15 544.154 565.034 544.964 564.134C545.774 563.234 546.872 562.784 548.222 562.784C549.572 562.784 550.652 563.234 551.462 564.134C552.272 565.034 552.686 566.15 552.686 567.464C552.686 568.778 552.272 569.894 551.462 570.794C550.652 571.694 549.572 572.144 548.222 572.144C546.872 572.144 545.774 571.694 544.964 570.794ZM546.386 565.34C545.954 565.934 545.738 566.636 545.738 567.464C545.738 568.292 545.954 569.012 546.386 569.606C546.836 570.2 547.448 570.488 548.222 570.488C548.996 570.488 549.608 570.2 550.04 569.606C550.49 569.012 550.706 568.292 550.706 567.464C550.706 566.636 550.49 565.934 550.04 565.34C549.608 564.746 548.996 564.44 548.222 564.44C547.448 564.44 546.836 564.746 546.386 565.34ZM555.908 574.376H554.504L555.782 569.696H558.356L555.908 574.376ZM573.486 569.552L575.232 562.928H577.212L574.332 572H572.622L570.984 565.592L569.346 572H567.636L564.756 562.928H566.736L568.482 569.552L570.084 562.928H571.884L573.486 569.552ZM579.088 572V559.256H580.96V564.476C581.734 563.342 582.76 562.784 584.02 562.784C585.73 562.784 586.702 563.72 586.702 565.61V572H584.83V566.096C584.83 564.8 584.344 564.44 583.408 564.44C582.832 564.44 582.274 564.782 581.752 565.466C581.23 566.15 580.96 567.05 580.96 568.166V572H579.088ZM592.883 564.44C591.677 564.44 590.885 565.25 590.669 566.42H595.079C594.917 565.286 594.161 564.44 592.883 564.44ZM597.059 567.176V567.986H590.633C590.633 569.408 591.461 570.488 592.883 570.488C593.891 570.488 594.809 569.912 595.259 568.958L596.861 569.588C595.943 571.37 594.881 572.144 592.883 572.144C589.895 572.144 588.653 569.624 588.653 567.464C588.653 565.304 589.895 562.784 592.883 562.784C595.781 562.784 597.059 565.142 597.059 567.176ZM600.841 568.634V572H598.969V562.928H600.841V564.44C601.435 563.378 602.515 562.784 603.523 562.784C603.937 562.784 604.315 562.856 604.675 563L604.351 564.71C604.063 564.53 603.703 564.44 603.289 564.44C602.623 564.44 602.047 564.8 601.561 565.538C601.075 566.258 600.841 567.284 600.841 568.634ZM609.845 564.44C608.639 564.44 607.847 565.25 607.631 566.42H612.041C611.879 565.286 611.123 564.44 609.845 564.44ZM614.021 567.176V567.986H607.595C607.595 569.408 608.423 570.488 609.845 570.488C610.853 570.488 611.771 569.912 612.221 568.958L613.823 569.588C612.905 571.37 611.843 572.144 609.845 572.144C606.857 572.144 605.615 569.624 605.615 567.464C605.615 565.304 606.857 562.784 609.845 562.784C612.743 562.784 614.021 565.142 614.021 567.176ZM620.311 567.464C620.311 564.584 621.733 562.784 624.397 562.784C624.847 562.784 625.297 562.91 625.783 563.144C626.269 563.378 626.611 563.63 626.827 563.936V559.256H628.699V572H626.827V570.956C626.485 571.55 625.459 572.144 624.361 572.144C621.715 572.144 620.311 570.416 620.311 567.464ZM622.939 565.268C622.507 565.808 622.291 566.546 622.291 567.464C622.291 568.382 622.507 569.12 622.939 569.678C623.371 570.218 623.929 570.488 624.613 570.488C625.297 570.488 625.855 570.218 626.287 569.678C626.719 569.12 626.935 568.382 626.935 567.464C626.935 566.546 626.719 565.808 626.287 565.268C625.855 564.71 625.297 564.44 624.613 564.44C623.929 564.44 623.371 564.71 622.939 565.268ZM630.732 569.39C630.732 567.536 632.298 566.42 634.656 566.42H636.222V566.024C636.222 564.944 635.484 564.44 634.458 564.44C633.63 564.44 633.072 564.836 632.766 565.646L631.056 565.286C631.434 563.756 632.748 562.784 634.476 562.784C636.888 562.784 638.094 563.972 638.094 566.366V572H636.51L636.33 570.812C635.7 571.694 634.764 572.144 633.522 572.144C631.92 572.144 630.732 571.19 630.732 569.39ZM632.712 569.39C632.712 570.038 633.108 570.488 633.846 570.488C634.476 570.488 635.034 570.29 635.502 569.894C635.988 569.48 636.222 568.922 636.222 568.184V567.986H634.584C633.432 567.986 632.712 568.526 632.712 569.39ZM640.559 572V562.928H642.431V564.476C643.079 563.396 644.159 562.784 645.365 562.784C646.967 562.784 648.029 563.774 648.029 565.502V572H646.157V566.096C646.157 564.998 645.689 564.44 644.753 564.44C644.123 564.44 643.583 564.8 643.115 565.502C642.665 566.204 642.431 567.14 642.431 568.328V572H640.559ZM650.614 565.826C650.614 564.908 650.92 564.17 651.532 563.612C652.144 563.054 652.918 562.784 653.854 562.784C654.448 562.784 655.006 562.91 655.51 563.18L657.184 562.28L657.94 563.63L656.716 564.314C656.986 564.764 657.112 565.268 657.112 565.826C657.112 566.762 656.806 567.5 656.194 568.058C655.582 568.598 654.808 568.868 653.854 568.868C653.332 568.868 652.846 568.778 652.396 568.598C652.072 568.778 651.91 569.048 651.91 569.39C651.91 569.858 652.216 570.092 652.846 570.092H654.844C656.662 570.092 657.85 571.01 657.85 572.684C657.85 573.746 657.472 574.52 656.698 575.042C655.942 575.564 655.006 575.816 653.872 575.816C651.496 575.816 649.876 574.754 649.876 572.828C649.876 572.09 650.128 571.478 650.65 570.992C650.308 570.65 650.128 570.164 650.128 569.57C650.128 568.76 650.488 568.148 651.226 567.734C650.812 567.23 650.614 566.6 650.614 565.826ZM654.448 571.676H652.99C652.666 571.676 652.36 571.658 652.072 571.622C651.802 571.892 651.676 572.27 651.676 572.72C651.676 573.638 652.504 574.196 653.872 574.196C655.168 574.196 655.942 573.692 655.942 572.828C655.942 572.054 655.438 571.676 654.448 571.676ZM653.854 567.302C654.718 567.302 655.294 566.708 655.294 565.826C655.294 564.944 654.718 564.35 653.854 564.35C653.008 564.35 652.432 564.944 652.432 565.826C652.432 566.708 653.008 567.302 653.854 567.302ZM663.142 564.44C661.936 564.44 661.144 565.25 660.928 566.42H665.338C665.176 565.286 664.42 564.44 663.142 564.44ZM667.318 567.176V567.986H660.892C660.892 569.408 661.72 570.488 663.142 570.488C664.15 570.488 665.068 569.912 665.518 568.958L667.12 569.588C666.202 571.37 665.14 572.144 663.142 572.144C660.154 572.144 658.912 569.624 658.912 567.464C658.912 565.304 660.154 562.784 663.142 562.784C666.04 562.784 667.318 565.142 667.318 567.176ZM671.101 568.634V572H669.229V562.928H671.101V564.44C671.695 563.378 672.775 562.784 673.783 562.784C674.197 562.784 674.575 562.856 674.935 563L674.611 564.71C674.323 564.53 673.963 564.44 673.549 564.44C672.883 564.44 672.307 564.8 671.821 565.538C671.335 566.258 671.101 567.284 671.101 568.634ZM680.619 569.39C680.619 567.536 682.185 566.42 684.543 566.42H686.109V566.024C686.109 564.944 685.371 564.44 684.345 564.44C683.517 564.44 682.959 564.836 682.653 565.646L680.943 565.286C681.321 563.756 682.635 562.784 684.363 562.784C686.775 562.784 687.981 563.972 687.981 566.366V572H686.397L686.217 570.812C685.587 571.694 684.651 572.144 683.409 572.144C681.807 572.144 680.619 571.19 680.619 569.39ZM682.599 569.39C682.599 570.038 682.995 570.488 683.733 570.488C684.363 570.488 684.921 570.29 685.389 569.894C685.875 569.48 686.109 568.922 686.109 568.184V567.986H684.471C683.319 567.986 682.599 568.526 682.599 569.39ZM690.445 572V562.928H692.317V564.476C692.965 563.396 694.045 562.784 695.251 562.784C696.853 562.784 697.915 563.774 697.915 565.502V572H696.043V566.096C696.043 564.998 695.575 564.44 694.639 564.44C694.009 564.44 693.469 564.8 693.001 565.502C692.551 566.204 692.317 567.14 692.317 568.328V572H690.445ZM699.817 567.464C699.817 564.584 701.239 562.784 703.903 562.784C704.353 562.784 704.803 562.91 705.289 563.144C705.775 563.378 706.117 563.63 706.333 563.936V559.256H708.205V572H706.333V570.956C705.991 571.55 704.965 572.144 703.867 572.144C701.221 572.144 699.817 570.416 699.817 567.464ZM702.445 565.268C702.013 565.808 701.797 566.546 701.797 567.464C701.797 568.382 702.013 569.12 702.445 569.678C702.877 570.218 703.435 570.488 704.119 570.488C704.803 570.488 705.361 570.218 705.793 569.678C706.225 569.12 706.441 568.382 706.441 567.464C706.441 566.546 706.225 565.808 705.793 565.268C705.361 564.71 704.803 564.44 704.119 564.44C703.435 564.44 702.877 564.71 702.445 565.268ZM717.608 572L714.602 562.928H716.51L718.49 569.444L720.47 562.928H722.378L719.372 572H717.608ZM723.859 561.29C723.373 560.786 723.373 559.958 723.877 559.454C724.381 558.932 725.209 558.932 725.713 559.454C726.217 559.958 726.217 560.786 725.713 561.29C725.227 561.776 724.363 561.776 723.859 561.29ZM723.859 572V562.928H725.731V572H723.859ZM728.954 570.794C728.144 569.894 727.748 568.778 727.748 567.464C727.748 566.15 728.144 565.034 728.954 564.134C729.764 563.234 730.862 562.784 732.212 562.784C733.562 562.784 734.642 563.234 735.452 564.134C736.262 565.034 736.676 566.15 736.676 567.464C736.676 568.778 736.262 569.894 735.452 570.794C734.642 571.694 733.562 572.144 732.212 572.144C730.862 572.144 729.764 571.694 728.954 570.794ZM730.376 565.34C729.944 565.934 729.728 566.636 729.728 567.464C729.728 568.292 729.944 569.012 730.376 569.606C730.826 570.2 731.438 570.488 732.212 570.488C732.986 570.488 733.598 570.2 734.03 569.606C734.48 569.012 734.696 568.292 734.696 567.464C734.696 566.636 734.48 565.934 734.03 565.34C733.598 564.746 732.986 564.44 732.212 564.44C731.438 564.44 730.826 564.746 730.376 565.34ZM738.714 572V559.256H740.586V572H738.714ZM746.849 564.44C745.643 564.44 744.851 565.25 744.635 566.42H749.045C748.883 565.286 748.127 564.44 746.849 564.44ZM751.025 567.176V567.986H744.599C744.599 569.408 745.427 570.488 746.849 570.488C747.857 570.488 748.775 569.912 749.225 568.958L750.827 569.588C749.909 571.37 748.847 572.144 746.849 572.144C743.861 572.144 742.619 569.624 742.619 567.464C742.619 565.304 743.861 562.784 746.849 562.784C749.747 562.784 751.025 565.142 751.025 567.176ZM753.024 572V562.928H754.896V564.476C755.544 563.396 756.624 562.784 757.83 562.784C759.432 562.784 760.494 563.774 760.494 565.502V572H758.622V566.096C758.622 564.998 758.154 564.44 757.218 564.44C756.588 564.44 756.048 564.8 755.58 565.502C755.13 566.204 754.896 567.14 754.896 568.328V572H753.024ZM768.911 568.922L770.585 569.642C769.847 571.316 768.551 572.144 766.661 572.144C765.293 572.144 764.231 571.694 763.493 570.812C762.755 569.912 762.395 568.796 762.395 567.464C762.395 566.132 762.755 565.016 763.493 564.134C764.231 563.234 765.293 562.784 766.661 562.784C768.551 562.784 769.847 563.612 770.585 565.286L768.911 566.006C768.443 564.962 767.687 564.44 766.661 564.44C765.131 564.44 764.375 565.646 764.375 567.464C764.375 569.282 765.131 570.488 766.661 570.488C767.687 570.488 768.443 569.966 768.911 568.922ZM776.328 564.44C775.122 564.44 774.33 565.25 774.114 566.42H778.524C778.362 565.286 777.606 564.44 776.328 564.44ZM780.504 567.176V567.986H774.078C774.078 569.408 774.906 570.488 776.328 570.488C777.336 570.488 778.254 569.912 778.704 568.958L780.306 569.588C779.388 571.37 778.326 572.144 776.328 572.144C773.34 572.144 772.098 569.624 772.098 567.464C772.098 565.304 773.34 562.784 776.328 562.784C779.226 562.784 780.504 565.142 780.504 567.176ZM786.703 569.39C786.703 567.536 788.269 566.42 790.627 566.42H792.193V566.024C792.193 564.944 791.455 564.44 790.429 564.44C789.601 564.44 789.043 564.836 788.737 565.646L787.027 565.286C787.405 563.756 788.719 562.784 790.447 562.784C792.859 562.784 794.065 563.972 794.065 566.366V572H792.481L792.301 570.812C791.671 571.694 790.735 572.144 789.493 572.144C787.891 572.144 786.703 571.19 786.703 569.39ZM788.683 569.39C788.683 570.038 789.079 570.488 789.817 570.488C790.447 570.488 791.005 570.29 791.473 569.894C791.959 569.48 792.193 568.922 792.193 568.184V567.986H790.555C789.403 567.986 788.683 568.526 788.683 569.39ZM798.243 568.634V572H796.371V562.928H798.243V564.44C798.837 563.378 799.917 562.784 800.925 562.784C801.339 562.784 801.717 562.856 802.077 563L801.753 564.71C801.465 564.53 801.105 564.44 800.691 564.44C800.025 564.44 799.449 564.8 798.963 565.538C798.477 566.258 798.243 567.284 798.243 568.634ZM807.248 564.44C806.042 564.44 805.25 565.25 805.034 566.42H809.444C809.282 565.286 808.526 564.44 807.248 564.44ZM811.424 567.176V567.986H804.998C804.998 569.408 805.826 570.488 807.248 570.488C808.256 570.488 809.174 569.912 809.624 568.958L811.226 569.588C810.308 571.37 809.246 572.144 807.248 572.144C804.26 572.144 803.018 569.624 803.018 567.464C803.018 565.304 804.26 562.784 807.248 562.784C810.146 562.784 811.424 565.142 811.424 567.176ZM817.623 569.39C817.623 567.536 819.189 566.42 821.547 566.42H823.113V566.024C823.113 564.944 822.375 564.44 821.349 564.44C820.521 564.44 819.963 564.836 819.657 565.646L817.947 565.286C818.325 563.756 819.639 562.784 821.367 562.784C823.779 562.784 824.985 563.972 824.985 566.366V572H823.401L823.221 570.812C822.591 571.694 821.655 572.144 820.413 572.144C818.811 572.144 817.623 571.19 817.623 569.39ZM819.603 569.39C819.603 570.038 819.999 570.488 820.737 570.488C821.367 570.488 821.925 570.29 822.393 569.894C822.879 569.48 823.113 568.922 823.113 568.184V567.986H821.475C820.323 567.986 819.603 568.526 819.603 569.39ZM838.116 568.922L839.79 569.642C839.052 571.316 837.756 572.144 835.866 572.144C834.498 572.144 833.436 571.694 832.698 570.812C831.96 569.912 831.6 568.796 831.6 567.464C831.6 566.132 831.96 565.016 832.698 564.134C833.436 563.234 834.498 562.784 835.866 562.784C837.756 562.784 839.052 563.612 839.79 565.286L838.116 566.006C837.648 564.962 836.892 564.44 835.866 564.44C834.336 564.44 833.58 565.646 833.58 567.464C833.58 569.282 834.336 570.488 835.866 570.488C836.892 570.488 837.648 569.966 838.116 568.922ZM842.509 570.794C841.699 569.894 841.303 568.778 841.303 567.464C841.303 566.15 841.699 565.034 842.509 564.134C843.319 563.234 844.417 562.784 845.767 562.784C847.117 562.784 848.197 563.234 849.007 564.134C849.817 565.034 850.231 566.15 850.231 567.464C850.231 568.778 849.817 569.894 849.007 570.794C848.197 571.694 847.117 572.144 845.767 572.144C844.417 572.144 843.319 571.694 842.509 570.794ZM843.931 565.34C843.499 565.934 843.283 566.636 843.283 567.464C843.283 568.292 843.499 569.012 843.931 569.606C844.381 570.2 844.993 570.488 845.767 570.488C846.541 570.488 847.153 570.2 847.585 569.606C848.035 569.012 848.251 568.292 848.251 567.464C848.251 566.636 848.035 565.934 847.585 565.34C847.153 564.746 846.541 564.44 845.767 564.44C844.993 564.44 844.381 564.746 843.931 565.34ZM852.305 572V562.928H854.177V564.476C854.825 563.396 855.905 562.784 857.111 562.784C858.713 562.784 859.775 563.774 859.775 565.502V572H857.903V566.096C857.903 564.998 857.435 564.44 856.499 564.44C855.869 564.44 855.329 564.8 854.861 565.502C854.411 566.204 854.177 567.14 854.177 568.328V572H852.305ZM865.147 562.784C866.245 562.784 867.253 563.342 867.829 564.224L866.641 565.268C866.209 564.71 865.687 564.44 865.057 564.44C864.553 564.44 864.157 564.764 864.157 565.34C864.157 565.538 864.229 565.736 864.391 565.898C864.697 566.204 865.003 566.348 865.777 566.636C866.407 566.87 866.677 566.96 867.181 567.302C867.901 567.734 868.243 568.274 868.315 569.264C868.315 570.074 868.027 570.758 867.451 571.316C866.875 571.874 866.119 572.144 865.165 572.144C863.437 572.144 862.213 571.028 861.655 569.714L863.239 568.85C863.725 569.948 864.391 570.488 865.237 570.488C866.047 570.488 866.461 570.092 866.461 569.3C866.461 568.994 866.335 568.778 865.993 568.58C865.831 568.472 865.669 568.382 865.525 568.328C865.255 568.202 864.589 567.968 864.301 567.842C863.005 567.302 862.357 566.474 862.357 565.358C862.357 564.638 862.627 564.026 863.149 563.54C863.671 563.036 864.337 562.784 865.147 562.784ZM870.823 564.584H869.311V562.928H870.823V560.426L872.695 559.256V562.928H875.053V564.584H872.695V569.012C872.695 570.002 873.091 570.488 873.901 570.488C874.207 570.488 874.495 570.398 874.765 570.236L875.251 571.82C874.801 572.036 874.315 572.144 873.793 572.144C871.993 572.144 870.823 571.046 870.823 568.904V564.584ZM876.598 569.39C876.598 567.536 878.164 566.42 880.522 566.42H882.088V566.024C882.088 564.944 881.35 564.44 880.324 564.44C879.496 564.44 878.938 564.836 878.632 565.646L876.922 565.286C877.3 563.756 878.614 562.784 880.342 562.784C882.754 562.784 883.96 563.972 883.96 566.366V572H882.376L882.196 570.812C881.566 571.694 880.63 572.144 879.388 572.144C877.786 572.144 876.598 571.19 876.598 569.39ZM878.578 569.39C878.578 570.038 878.974 570.488 879.712 570.488C880.342 570.488 880.9 570.29 881.368 569.894C881.854 569.48 882.088 568.922 882.088 568.184V567.986H880.45C879.298 567.986 878.578 568.526 878.578 569.39ZM886.424 572V562.928H888.296V564.476C888.944 563.396 890.024 562.784 891.23 562.784C892.832 562.784 893.894 563.774 893.894 565.502V572H892.022V566.096C892.022 564.998 891.554 564.44 890.618 564.44C889.988 564.44 889.448 564.8 888.98 565.502C888.53 566.204 888.296 567.14 888.296 568.328V572H886.424ZM896.891 564.584H895.379V562.928H896.891V560.426L898.763 559.256V562.928H901.121V564.584H898.763V569.012C898.763 570.002 899.159 570.488 899.969 570.488C900.275 570.488 900.563 570.398 900.833 570.236L901.319 571.82C900.869 572.036 900.383 572.144 899.861 572.144C898.061 572.144 896.891 571.046 896.891 568.904V564.584ZM908.457 564.584H906.945V562.928H908.457V560.426L910.329 559.256V562.928H912.687V564.584H910.329V569.012C910.329 570.002 910.725 570.488 911.535 570.488C911.841 570.488 912.129 570.398 912.399 570.236L912.885 571.82C912.435 572.036 911.949 572.144 911.427 572.144C909.627 572.144 908.457 571.046 908.457 568.904V564.584ZM914.707 572V559.256H916.579V564.476C917.353 563.342 918.379 562.784 919.639 562.784C921.349 562.784 922.321 563.72 922.321 565.61V572H920.449V566.096C920.449 564.8 919.963 564.44 919.027 564.44C918.451 564.44 917.893 564.782 917.371 565.466C916.849 566.15 916.579 567.05 916.579 568.166V572H914.707ZM926.634 568.634V572H924.762V562.928H926.634V564.44C927.228 563.378 928.308 562.784 929.316 562.784C929.73 562.784 930.108 562.856 930.468 563L930.144 564.71C929.856 564.53 929.496 564.44 929.082 564.44C928.416 564.44 927.84 564.8 927.354 565.538C926.868 566.258 926.634 567.284 926.634 568.634ZM935.638 564.44C934.432 564.44 933.64 565.25 933.424 566.42H937.834C937.672 565.286 936.916 564.44 935.638 564.44ZM939.814 567.176V567.986H933.388C933.388 569.408 934.216 570.488 935.638 570.488C936.646 570.488 937.564 569.912 938.014 568.958L939.616 569.588C938.698 571.37 937.636 572.144 935.638 572.144C932.65 572.144 931.408 569.624 931.408 567.464C931.408 565.304 932.65 562.784 935.638 562.784C938.536 562.784 939.814 565.142 939.814 567.176ZM941.373 569.39C941.373 567.536 942.939 566.42 945.297 566.42H946.863V566.024C946.863 564.944 946.125 564.44 945.099 564.44C944.271 564.44 943.713 564.836 943.407 565.646L941.697 565.286C942.075 563.756 943.389 562.784 945.117 562.784C947.529 562.784 948.735 563.972 948.735 566.366V572H947.151L946.971 570.812C946.341 571.694 945.405 572.144 944.163 572.144C942.561 572.144 941.373 571.19 941.373 569.39ZM943.353 569.39C943.353 570.038 943.749 570.488 944.487 570.488C945.117 570.488 945.675 570.29 946.143 569.894C946.629 569.48 946.863 568.922 946.863 568.184V567.986H945.225C944.073 567.986 943.353 568.526 943.353 569.39ZM951.664 564.584H950.152V562.928H951.664V560.426L953.536 559.256V562.928H955.894V564.584H953.536V569.012C953.536 570.002 953.932 570.488 954.742 570.488C955.048 570.488 955.336 570.398 955.606 570.236L956.092 571.82C955.642 572.036 955.156 572.144 954.634 572.144C952.834 572.144 951.664 571.046 951.664 568.904V564.584ZM958.921 574.376H957.517L958.795 569.696H961.369L958.921 574.376ZM571.871 587.584H570.701V585.928H571.871V585.46C571.871 583.318 573.023 582.256 574.913 582.256C575.507 582.256 575.993 582.364 576.407 582.58L576.029 584.164C575.705 584.002 575.345 583.912 574.967 583.912C574.157 583.912 573.743 584.38 573.743 585.334V585.928H575.741V587.584H573.743V595H571.871V587.584ZM578.028 593.794C577.218 592.894 576.822 591.778 576.822 590.464C576.822 589.15 577.218 588.034 578.028 587.134C578.838 586.234 579.936 585.784 581.286 585.784C582.636 585.784 583.716 586.234 584.526 587.134C585.336 588.034 585.75 589.15 585.75 590.464C585.75 591.778 585.336 592.894 584.526 593.794C583.716 594.694 582.636 595.144 581.286 595.144C579.936 595.144 578.838 594.694 578.028 593.794ZM579.45 588.34C579.018 588.934 578.802 589.636 578.802 590.464C578.802 591.292 579.018 592.012 579.45 592.606C579.9 593.2 580.512 593.488 581.286 593.488C582.06 593.488 582.672 593.2 583.104 592.606C583.554 592.012 583.77 591.292 583.77 590.464C583.77 589.636 583.554 588.934 583.104 588.34C582.672 587.746 582.06 587.44 581.286 587.44C580.512 587.44 579.9 587.746 579.45 588.34ZM588.646 593.794C587.836 592.894 587.44 591.778 587.44 590.464C587.44 589.15 587.836 588.034 588.646 587.134C589.456 586.234 590.554 585.784 591.904 585.784C593.254 585.784 594.334 586.234 595.144 587.134C595.954 588.034 596.368 589.15 596.368 590.464C596.368 591.778 595.954 592.894 595.144 593.794C594.334 594.694 593.254 595.144 591.904 595.144C590.554 595.144 589.456 594.694 588.646 593.794ZM590.068 588.34C589.636 588.934 589.42 589.636 589.42 590.464C589.42 591.292 589.636 592.012 590.068 592.606C590.518 593.2 591.13 593.488 591.904 593.488C592.678 593.488 593.29 593.2 593.722 592.606C594.172 592.012 594.388 591.292 594.388 590.464C594.388 589.636 594.172 588.934 593.722 588.34C593.29 587.746 592.678 587.44 591.904 587.44C591.13 587.44 590.518 587.746 590.068 588.34ZM598.713 587.584H597.201V585.928H598.713V583.426L600.585 582.256V585.928H602.943V587.584H600.585V592.012C600.585 593.002 600.981 593.488 601.791 593.488C602.097 593.488 602.385 593.398 602.655 593.236L603.141 594.82C602.691 595.036 602.205 595.144 601.683 595.144C599.883 595.144 598.713 594.046 598.713 591.904V587.584ZM613.457 590.464C613.457 593.416 612.053 595.144 609.407 595.144C608.309 595.144 607.283 594.55 606.941 593.956V595H605.069V582.256H606.941V586.936C607.157 586.63 607.499 586.378 607.985 586.144C608.471 585.91 608.921 585.784 609.371 585.784C612.035 585.784 613.457 587.584 613.457 590.464ZM610.829 592.678C611.261 592.12 611.477 591.382 611.477 590.464C611.477 589.546 611.261 588.808 610.829 588.268C610.397 587.71 609.839 587.44 609.155 587.44C608.471 587.44 607.913 587.71 607.481 588.268C607.049 588.808 606.833 589.546 606.833 590.464C606.833 591.382 607.049 592.12 607.481 592.678C607.913 593.218 608.471 593.488 609.155 593.488C609.839 593.488 610.397 593.218 610.829 592.678ZM615.035 592.39C615.035 590.536 616.601 589.42 618.959 589.42H620.525V589.024C620.525 587.944 619.787 587.44 618.761 587.44C617.933 587.44 617.375 587.836 617.069 588.646L615.359 588.286C615.737 586.756 617.051 585.784 618.779 585.784C621.191 585.784 622.397 586.972 622.397 589.366V595H620.813L620.633 593.812C620.003 594.694 619.067 595.144 617.825 595.144C616.223 595.144 615.035 594.19 615.035 592.39ZM617.015 592.39C617.015 593.038 617.411 593.488 618.149 593.488C618.779 593.488 619.337 593.29 619.805 592.894C620.291 592.48 620.525 591.922 620.525 591.184V590.986H618.887C617.735 590.986 617.015 591.526 617.015 592.39ZM624.773 595V582.256H626.645V595H624.773ZM629.097 595V582.256H630.969V595H629.097ZM644.51 591.922L646.184 592.642C645.446 594.316 644.15 595.144 642.26 595.144C640.892 595.144 639.83 594.694 639.092 593.812C638.354 592.912 637.994 591.796 637.994 590.464C637.994 589.132 638.354 588.016 639.092 587.134C639.83 586.234 640.892 585.784 642.26 585.784C644.15 585.784 645.446 586.612 646.184 588.286L644.51 589.006C644.042 587.962 643.286 587.44 642.26 587.44C640.73 587.44 639.974 588.646 639.974 590.464C639.974 592.282 640.73 593.488 642.26 593.488C643.286 593.488 644.042 592.966 644.51 591.922ZM647.625 592.39C647.625 590.536 649.191 589.42 651.549 589.42H653.115V589.024C653.115 587.944 652.377 587.44 651.351 587.44C650.523 587.44 649.965 587.836 649.659 588.646L647.949 588.286C648.327 586.756 649.641 585.784 651.369 585.784C653.781 585.784 654.987 586.972 654.987 589.366V595H653.403L653.223 593.812C652.593 594.694 651.657 595.144 650.415 595.144C648.813 595.144 647.625 594.19 647.625 592.39ZM649.605 592.39C649.605 593.038 650.001 593.488 650.739 593.488C651.369 593.488 651.927 593.29 652.395 592.894C652.881 592.48 653.115 591.922 653.115 591.184V590.986H651.477C650.325 590.986 649.605 591.526 649.605 592.39ZM657.451 595V585.928H659.323V587.476C659.971 586.396 661.051 585.784 662.257 585.784C663.859 585.784 664.921 586.774 664.921 588.502V595H663.049V589.096C663.049 587.998 662.581 587.44 661.645 587.44C661.015 587.44 660.475 587.8 660.007 588.502C659.557 589.204 659.323 590.14 659.323 591.328V595H657.451ZM680.921 590.464C680.921 593.416 679.517 595.144 676.871 595.144C675.773 595.144 674.747 594.55 674.405 593.956V595H672.533V582.256H674.405V586.936C674.621 586.63 674.963 586.378 675.449 586.144C675.935 585.91 676.385 585.784 676.835 585.784C679.499 585.784 680.921 587.584 680.921 590.464ZM678.293 592.678C678.725 592.12 678.941 591.382 678.941 590.464C678.941 589.546 678.725 588.808 678.293 588.268C677.861 587.71 677.303 587.44 676.619 587.44C675.935 587.44 675.377 587.71 674.945 588.268C674.513 588.808 674.297 589.546 674.297 590.464C674.297 591.382 674.513 592.12 674.945 592.678C675.377 593.218 675.935 593.488 676.619 593.488C677.303 593.488 677.861 593.218 678.293 592.678ZM686.838 587.44C685.632 587.44 684.84 588.25 684.624 589.42H689.034C688.872 588.286 688.116 587.44 686.838 587.44ZM691.014 590.176V590.986H684.588C684.588 592.408 685.416 593.488 686.838 593.488C687.846 593.488 688.764 592.912 689.214 591.958L690.816 592.588C689.898 594.37 688.836 595.144 686.838 595.144C683.85 595.144 682.608 592.624 682.608 590.464C682.608 588.304 683.85 585.784 686.838 585.784C689.736 585.784 691.014 588.142 691.014 590.176ZM697.213 592.39C697.213 590.536 698.779 589.42 701.137 589.42H702.703V589.024C702.703 587.944 701.965 587.44 700.939 587.44C700.111 587.44 699.553 587.836 699.247 588.646L697.537 588.286C697.915 586.756 699.229 585.784 700.957 585.784C703.369 585.784 704.575 586.972 704.575 589.366V595H702.991L702.811 593.812C702.181 594.694 701.245 595.144 700.003 595.144C698.401 595.144 697.213 594.19 697.213 592.39ZM699.193 592.39C699.193 593.038 699.589 593.488 700.327 593.488C700.957 593.488 701.515 593.29 701.983 592.894C702.469 592.48 702.703 591.922 702.703 591.184V590.986H701.065C699.913 590.986 699.193 591.526 699.193 592.39ZM711.82 595V582.256H713.692V595H711.82ZM716.055 584.29C715.569 583.786 715.569 582.958 716.073 582.454C716.577 581.932 717.405 581.932 717.909 582.454C718.413 582.958 718.413 583.786 717.909 584.29C717.423 584.776 716.559 584.776 716.055 584.29ZM716.055 595V585.928H717.927V595H716.055ZM720.845 587.584H719.675V585.928H720.845V585.46C720.845 583.318 721.997 582.256 723.887 582.256C724.481 582.256 724.967 582.364 725.381 582.58L725.003 584.164C724.679 584.002 724.319 583.912 723.941 583.912C723.131 583.912 722.717 584.38 722.717 585.334V585.928H724.715V587.584H722.717V595H720.845V587.584ZM730.027 587.44C728.821 587.44 728.029 588.25 727.813 589.42H732.223C732.061 588.286 731.305 587.44 730.027 587.44ZM734.203 590.176V590.986H727.777C727.777 592.408 728.605 593.488 730.027 593.488C731.035 593.488 731.953 592.912 732.403 591.958L734.005 592.588C733.087 594.37 732.025 595.144 730.027 595.144C727.039 595.144 725.797 592.624 725.797 590.464C725.797 588.304 727.039 585.784 730.027 585.784C732.925 585.784 734.203 588.142 734.203 590.176ZM736.236 595V582.256H738.108V595H736.236ZM740.471 584.29C739.985 583.786 739.985 582.958 740.489 582.454C740.993 581.932 741.821 581.932 742.325 582.454C742.829 582.958 742.829 583.786 742.325 584.29C741.839 584.776 740.975 584.776 740.471 584.29ZM740.471 595V585.928H742.343V595H740.471ZM744.762 595V585.928H746.634V587.476C747.282 586.396 748.362 585.784 749.568 585.784C751.17 585.784 752.232 586.774 752.232 588.502V595H750.36V589.096C750.36 587.998 749.892 587.44 748.956 587.44C748.326 587.44 747.786 587.8 747.318 588.502C746.868 589.204 746.634 590.14 746.634 591.328V595H744.762ZM758.363 587.44C757.157 587.44 756.365 588.25 756.149 589.42H760.559C760.397 588.286 759.641 587.44 758.363 587.44ZM762.539 590.176V590.986H756.113C756.113 592.408 756.941 593.488 758.363 593.488C759.371 593.488 760.289 592.912 760.739 591.958L762.341 592.588C761.423 594.37 760.361 595.144 758.363 595.144C755.375 595.144 754.133 592.624 754.133 590.464C754.133 588.304 755.375 585.784 758.363 585.784C761.261 585.784 762.539 588.142 762.539 590.176ZM769.8 587.584H768.63V585.928H769.8V585.46C769.8 583.318 770.952 582.256 772.842 582.256C773.436 582.256 773.922 582.364 774.336 582.58L773.958 584.164C773.634 584.002 773.274 583.912 772.896 583.912C772.086 583.912 771.672 584.38 771.672 585.334V585.928H773.67V587.584H771.672V595H769.8V587.584ZM775.958 593.794C775.148 592.894 774.752 591.778 774.752 590.464C774.752 589.15 775.148 588.034 775.958 587.134C776.768 586.234 777.866 585.784 779.216 585.784C780.566 585.784 781.646 586.234 782.456 587.134C783.266 588.034 783.68 589.15 783.68 590.464C783.68 591.778 783.266 592.894 782.456 593.794C781.646 594.694 780.566 595.144 779.216 595.144C777.866 595.144 776.768 594.694 775.958 593.794ZM777.38 588.34C776.948 588.934 776.732 589.636 776.732 590.464C776.732 591.292 776.948 592.012 777.38 592.606C777.83 593.2 778.442 593.488 779.216 593.488C779.99 593.488 780.602 593.2 781.034 592.606C781.484 592.012 781.7 591.292 781.7 590.464C781.7 589.636 781.484 588.934 781.034 588.34C780.602 587.746 779.99 587.44 779.216 587.44C778.442 587.44 777.83 587.746 777.38 588.34ZM787.538 591.634V595H785.666V585.928H787.538V587.44C788.132 586.378 789.212 585.784 790.22 585.784C790.634 585.784 791.012 585.856 791.372 586L791.048 587.71C790.76 587.53 790.4 587.44 789.986 587.44C789.32 587.44 788.744 587.8 788.258 588.538C787.772 589.258 787.538 590.284 787.538 591.634ZM799.595 594.55L796.409 585.928H798.389L800.531 592.03L802.601 585.928H804.581L799.991 598.672H798.119L799.595 594.55ZM806.491 593.794C805.681 592.894 805.285 591.778 805.285 590.464C805.285 589.15 805.681 588.034 806.491 587.134C807.301 586.234 808.399 585.784 809.749 585.784C811.099 585.784 812.179 586.234 812.989 587.134C813.799 588.034 814.213 589.15 814.213 590.464C814.213 591.778 813.799 592.894 812.989 593.794C812.179 594.694 811.099 595.144 809.749 595.144C808.399 595.144 807.301 594.694 806.491 593.794ZM807.913 588.34C807.481 588.934 807.265 589.636 807.265 590.464C807.265 591.292 807.481 592.012 807.913 592.606C808.363 593.2 808.975 593.488 809.749 593.488C810.523 593.488 811.135 593.2 811.567 592.606C812.017 592.012 812.233 591.292 812.233 590.464C812.233 589.636 812.017 588.934 811.567 588.34C811.135 587.746 810.523 587.44 809.749 587.44C808.975 587.44 808.363 587.746 807.913 588.34ZM823.737 585.928V595H821.865V593.452C821.217 594.532 820.137 595.144 818.931 595.144C817.329 595.144 816.267 594.154 816.267 592.426V585.928H818.139V591.832C818.139 592.93 818.607 593.488 819.543 593.488C820.173 593.488 820.713 593.146 821.163 592.444C821.631 591.742 821.865 590.788 821.865 589.6V585.928H823.737ZM826.289 595V585.928H828.161V587.476C828.809 586.396 829.889 585.784 831.095 585.784C832.697 585.784 833.759 586.774 833.759 588.502V595H831.887V589.096C831.887 587.998 831.419 587.44 830.483 587.44C829.853 587.44 829.313 587.8 828.845 588.502C828.395 589.204 828.161 590.14 828.161 591.328V595H826.289ZM836.344 588.826C836.344 587.908 836.65 587.17 837.262 586.612C837.874 586.054 838.648 585.784 839.584 585.784C840.178 585.784 840.736 585.91 841.24 586.18L842.914 585.28L843.67 586.63L842.446 587.314C842.716 587.764 842.842 588.268 842.842 588.826C842.842 589.762 842.536 590.5 841.924 591.058C841.312 591.598 840.538 591.868 839.584 591.868C839.062 591.868 838.576 591.778 838.126 591.598C837.802 591.778 837.64 592.048 837.64 592.39C837.64 592.858 837.946 593.092 838.576 593.092H840.574C842.392 593.092 843.58 594.01 843.58 595.684C843.58 596.746 843.202 597.52 842.428 598.042C841.672 598.564 840.736 598.816 839.602 598.816C837.226 598.816 835.606 597.754 835.606 595.828C835.606 595.09 835.858 594.478 836.38 593.992C836.038 593.65 835.858 593.164 835.858 592.57C835.858 591.76 836.218 591.148 836.956 590.734C836.542 590.23 836.344 589.6 836.344 588.826ZM840.178 594.676H838.72C838.396 594.676 838.09 594.658 837.802 594.622C837.532 594.892 837.406 595.27 837.406 595.72C837.406 596.638 838.234 597.196 839.602 597.196C840.898 597.196 841.672 596.692 841.672 595.828C841.672 595.054 841.168 594.676 840.178 594.676ZM839.584 590.302C840.448 590.302 841.024 589.708 841.024 588.826C841.024 587.944 840.448 587.35 839.584 587.35C838.738 587.35 838.162 587.944 838.162 588.826C838.162 589.708 838.738 590.302 839.584 590.302ZM850.16 595V582.256H852.032V589.546L855.308 585.928H857.684L853.886 590.104L857.918 595H855.542L852.032 590.662V595H850.16ZM859.439 584.29C858.953 583.786 858.953 582.958 859.457 582.454C859.961 581.932 860.789 581.932 861.293 582.454C861.797 582.958 861.797 583.786 861.293 584.29C860.807 584.776 859.943 584.776 859.439 584.29ZM859.439 595V585.928H861.311V595H859.439ZM863.328 590.464C863.328 587.584 864.75 585.784 867.414 585.784C867.864 585.784 868.314 585.91 868.8 586.144C869.286 586.378 869.628 586.63 869.844 586.936V582.256H871.716V595H869.844V593.956C869.502 594.55 868.476 595.144 867.378 595.144C864.732 595.144 863.328 593.416 863.328 590.464ZM865.956 588.268C865.524 588.808 865.308 589.546 865.308 590.464C865.308 591.382 865.524 592.12 865.956 592.678C866.388 593.218 866.946 593.488 867.63 593.488C868.314 593.488 868.872 593.218 869.304 592.678C869.736 592.12 869.952 591.382 869.952 590.464C869.952 589.546 869.736 588.808 869.304 588.268C868.872 587.71 868.314 587.44 867.63 587.44C866.946 587.44 866.388 587.71 865.956 588.268ZM877.188 585.784C878.286 585.784 879.294 586.342 879.87 587.224L878.682 588.268C878.25 587.71 877.728 587.44 877.098 587.44C876.594 587.44 876.198 587.764 876.198 588.34C876.198 588.538 876.27 588.736 876.432 588.898C876.738 589.204 877.044 589.348 877.818 589.636C878.448 589.87 878.718 589.96 879.222 590.302C879.942 590.734 880.284 591.274 880.356 592.264C880.356 593.074 880.068 593.758 879.492 594.316C878.916 594.874 878.16 595.144 877.206 595.144C875.478 595.144 874.254 594.028 873.696 592.714L875.28 591.85C875.766 592.948 876.432 593.488 877.278 593.488C878.088 593.488 878.502 593.092 878.502 592.3C878.502 591.994 878.376 591.778 878.034 591.58C877.872 591.472 877.71 591.382 877.566 591.328C877.296 591.202 876.63 590.968 876.342 590.842C875.046 590.302 874.398 589.474 874.398 588.358C874.398 587.638 874.668 587.026 875.19 586.54C875.712 586.036 876.378 585.784 877.188 585.784ZM882.161 592.822C882.683 592.3 883.547 592.3 884.051 592.822C884.573 593.326 884.573 594.19 884.051 594.712C883.547 595.216 882.683 595.216 882.161 594.712C881.657 594.19 881.657 593.326 882.161 592.822Z" fill="white"/>
<path d="M1616.99 345.252C1617.2 369.48 1611.98 391.758 1601.8 413.231C1594.13 429.394 1586.7 445.691 1578.47 461.518C1561.15 494.819 1553.08 528.825 1554.29 567.502C1557.52 671.469 1556.51 775.571 1556.95 879.606C1556.98 890.728 1556.34 902.019 1554.49 912.973C1552.48 924.835 1545.32 932.933 1532.84 935.756C1483.79 946.845 1434.88 958.337 1385.82 969.292C1343.33 978.801 1300.5 986.933 1258.24 997.35C1233.32 1003.47 1207.4 1004.34 1182.93 1013.48C1173.08 1017.14 1160.47 1016.27 1149.71 1014.29C1073.73 1000.34 996.573 995.838 920.02 986.833C842.392 977.693 764.428 970.031 686.867 960.286C626.99 952.759 566.373 952.188 507.068 939.217C480.979 933.471 453.679 934.58 426.952 932.093C376.858 927.49 327.538 917.039 277.041 915.258C232.427 913.645 188.755 901.851 143.939 899.734C84.7683 896.945 26.808 883.067 -32.6319 880.916C-92.946 878.766 -95.7031 874.162 -96.0057 813.542C-96.1738 774.361 -96.0394 735.214 -96.0394 696.066H-96.2745C-96.2745 650.165 -96.4762 604.297 -96.1736 558.429C-96.0391 538.872 -100.208 520.894 -111.168 504.429C-116.749 496.062 -119.775 485.813 -126.163 478.286C-180.492 414.272 -174.777 337.691 -172.827 261.682C-172.356 244.174 -165.498 235.001 -147.612 232.884C-106.495 228.011 -65.6468 219.879 -24.4289 217.292C57.0657 212.218 137.854 200.457 218.912 191.619C277.713 185.201 336.985 182.547 395.45 172.264C424.027 167.224 453.175 164.031 482.189 163.057C540.452 161.074 597.304 147.163 655.668 145.247C696.886 143.903 737.767 134.898 778.985 131.773C840.274 127.102 900.588 114.702 962.146 111.98C998.96 110.334 1035.5 103.781 1072.22 99.7489C1164.37 89.6008 1256.56 79.52 1348.77 69.5736C1424.29 61.4753 1499.83 53.5449 1575.37 45.6818C1582.03 44.9762 1588.79 44.909 1595.51 45.077C1607.38 45.3122 1614.34 51.596 1615.48 63.357C1616.39 72.2618 1616.76 81.2337 1616.76 90.1721C1616.83 175.187 1616.32 260.237 1616.99 345.252Z" fill="#3DBAE1"/>
<path d="M83 311.09C83 303.377 88.849 296.922 96.5244 296.163L1331.02 174.129C1339.85 173.256 1347.5 180.188 1347.5 189.056V883.422C1347.5 890.473 1342.59 896.572 1335.7 898.077L1175.88 932.98C1174.3 933.324 1172.68 933.412 1171.08 933.239L96.3931 817.443C88.7749 816.622 83 810.192 83 802.529V311.09Z" fill="#1980A0"/>
</svg>
