<svg width="1512" height="1131" viewBox="0 0 1512 1131" fill="none" xmlns="http://www.w3.org/2000/svg">
<path d="M1512 0L0 145.683V998.201L1512 1131V0Z" fill="#3DBAE1"/>
<path d="M1453.87 73.7C1454.3 78.0016 1455.45 82.218 1455.7 86.4952C1456.36 98.0341 1458.42 109.421 1459.77 120.872C1460.65 128.329 1461.15 135.864 1462.57 143.282C1464 150.767 1463.46 151.442 1456.29 153.112C1450.34 154.498 1444.36 155.795 1438.39 157.132L1438.37 157.037C1431.66 158.541 1424.97 160.163 1418.23 161.508C1413.77 162.395 1413.44 161.975 1412.47 157.399C1411.2 151.359 1410.02 145.313 1409.69 139.136C1409.62 137.606 1409.32 136.079 1409.02 134.571C1408.59 132.446 1407.2 131.405 1405.08 131.43C1404.01 131.442 1402.94 131.554 1401.88 131.682C1394.01 132.648 1386.18 133.783 1378.24 134.385C1371.88 134.866 1365.55 136.218 1359.15 136.691C1351.08 137.284 1343.12 138.726 1335.03 139.329C1328.22 139.839 1321.41 141.119 1314.58 141.909C1309.64 142.486 1308.57 141.687 1307.69 136.874C1305.02 122.311 1301.7 107.885 1298.4 93.454C1296.62 85.6816 1296.88 85.5237 1304.56 84.5777C1313.03 83.5316 1321.59 83.2836 1330.03 81.7907C1335.42 80.8393 1341.01 80.9774 1346.44 80.1876C1353.54 79.1613 1360.73 79.1395 1367.81 77.9223C1373.36 76.9664 1379.05 76.6944 1384.67 76.1024C1395.9 74.9202 1407.11 73.5607 1418.36 72.5908C1426.26 71.9095 1434.07 70.2834 1442.06 70.296C1444.02 70.2986 1445.97 69.6705 1447.94 69.3914C1452.03 68.8066 1453.46 69.6667 1453.87 73.7Z" fill="#3CA9CC"/>
<path d="M51.7989 948.818C52.3093 944.525 52.0991 940.159 52.7846 935.93C54.642 924.522 55.0988 912.96 56.2628 901.489C57.0239 894.019 58.1606 886.552 58.3887 879.005C58.6161 871.388 59.2855 870.845 66.6518 870.77C72.7612 870.707 78.8761 870.736 84.9908 870.724L84.9918 870.822C91.8677 870.808 98.7472 870.674 105.62 870.822C110.172 870.925 110.401 871.406 110.352 876.082C110.286 882.255 110.127 888.413 109.106 894.513C108.85 896.023 108.809 897.578 108.778 899.116C108.733 901.283 109.865 902.6 111.942 903.036C112.986 903.256 114.056 903.379 115.116 903.484C123.009 904.246 130.904 904.837 138.782 905.969C145.097 906.878 151.566 906.93 157.923 907.858C165.929 909.027 174.01 909.345 182.04 910.51C188.792 911.487 195.72 911.714 202.557 912.423C207.512 912.932 208.384 913.944 208.2 918.834C207.649 933.628 207.759 948.431 207.851 963.234C207.902 971.207 207.614 971.304 199.919 970.565C191.416 969.748 183.006 968.135 174.443 967.763C168.977 967.524 163.552 966.178 158.08 965.772C150.929 965.235 143.905 963.698 136.728 963.351C131.097 963.08 125.491 962.114 119.871 961.472C108.657 960.193 97.4172 959.09 86.2242 957.598C78.3569 956.549 70.3836 956.444 62.5873 954.7C60.6751 954.273 58.631 954.463 56.6527 954.309C52.5306 953.993 51.3177 952.843 51.7989 948.818Z" fill="#3CA9CC"/>
<path d="M138 303.703C138 295.736 144.227 289.16 152.181 288.725L1357.18 222.865C1365.77 222.395 1373 229.236 1373 237.842V917.789C1373 926.531 1365.55 933.421 1356.84 932.744L151.838 839.076C144.028 838.469 138 831.954 138 824.121V303.703Z" fill="#1980A0"/>
</svg>
