<svg width="1025" height="883" viewBox="0 0 1025 883" fill="none" xmlns="http://www.w3.org/2000/svg">
<path fill-rule="evenodd" clip-rule="evenodd" d="M801.466 80.4718L752.52 150.91L720.719 138.607L646.884 251.717C648.322 252.806 649.747 253.91 651.161 255.027L686.996 196.368L704.955 232.697L798.167 136.464L841.106 248.104L720.529 333.658L718.004 334.705C718.992 336.556 719.957 338.421 720.898 340.298L758.028 315.265L814.502 393.895L996.487 299.739L1024.6 343.11L945.138 392.212L965.592 435.682L746.329 461.009C746.027 467.167 745.494 473.268 744.737 479.304L839.861 487.116L823.333 553.153L916.44 610.132L855.125 676.83L783.415 614.39L710.359 576.601C703.903 587.084 696.676 597.082 688.75 606.522L716.406 622.786L726.488 608.561L832.022 684.776L779.806 746.572L736.172 713.983L711.89 733.847L675.478 691.212L642.681 718.04L604.039 672.794C599.817 674.876 595.529 676.852 591.178 678.718L591.561 678.756L633.018 737.829L683.827 730.139L706.199 763.579L651.868 773.342L691.409 858.663L619.623 863.64L603.215 825.803L543.163 828.778L518.282 784.717L583.158 777.286L568.398 749.73L536.847 695.463C528.919 697.016 520.859 698.227 512.685 699.079L545.047 737.546L498.505 759.269L516.799 820.566L532.988 871.003L432.919 882.984L423.297 831.761L459.775 827.394L447.578 698.185C442.139 697.463 436.753 696.582 431.424 695.546L431.307 806.041L392.807 806L392.736 873.073L295.136 805.897L319.369 747.495L350.358 758.028L379.328 679.821C372.027 676.779 364.897 673.429 357.957 669.786L323.714 737.187L289.94 718.783L208.487 830.375L126.4 704.524L170.82 677.251L185.356 690.024L285.541 613.817C279.849 607.533 274.478 600.975 269.45 594.167L236.886 615.469L158.709 650.278L53.2105 573.148L188.427 532.412L237.665 536.431C235.442 530.678 233.433 524.825 231.646 518.881L137.087 514.125L147.39 466.225L0.387577 464.965L8.43213 397.775L155.293 412.88L160.162 370.642L231.451 380.046C236.617 362.697 243.681 346.106 252.417 330.495L209.46 316.224L206.079 358.517L131.308 352.539L132.133 393.876L41.4755 365.795L73.2181 270.512L137.735 272.16L141.345 227.011L301.387 268.403C305.334 264.741 309.401 261.197 313.583 257.775L279.888 225.047L245.661 239.866L202.199 206.295L257.201 164.546L202.672 112.535L303.228 46.8399L348.785 110.674L380.862 92.1713L419.94 155.487L458.796 152.575L467.8 198.042C471.119 197.847 474.456 197.711 477.808 197.635L487.834 72.2391L546.304 12.2081L575.097 103.794L608.551 137.066L585.508 217.005C591.127 219.261 596.648 221.699 602.063 224.312L645.057 81.8417L689.279 81.4544L713.596 0.874063L801.466 80.4718ZM564.615 448.166C564.984 479.225 536.841 517.986 484.845 518.568C432.848 519.15 403.792 481.029 403.423 449.97C403.054 418.911 431.198 380.149 483.194 379.567C535.191 378.986 564.247 417.107 564.615 448.166Z" fill="#0D2323" fill-opacity="0.8"/>
</svg>
