<svg width="936" height="913" viewBox="0 0 936 913" fill="none" xmlns="http://www.w3.org/2000/svg">
<path fill-rule="evenodd" clip-rule="evenodd" d="M540.51 226.717L556.353 157.813L508.561 114.003L460.445 0.578103L390.028 66.164L390.628 195.461L383.396 196.045L347.688 133.693L318.377 151.914L276.749 89.0512L184.865 153.747L234.691 204.966L184.432 246.08L224.146 279.14L255.422 264.546L268.702 278.448C261.049 285.028 253.759 292.017 246.866 299.383L128.826 266.481L125.528 310.943L66.5748 309.32L37.5696 403.153L120.409 430.807L119.655 390.099L187.977 395.986C185.977 401.614 184.153 407.325 182.512 413.113L146.023 407.926L141.574 449.522L7.37814 434.647L0.0273438 500.815L134.352 502.055L124.938 549.226L179.253 552.171C180.517 557.597 181.94 562.962 183.518 568.26L171.849 567.234L48.2927 607.35L144.693 683.307L216.128 649.027L220.611 645.867C225.63 653.175 230.99 660.231 236.668 667.012L169.042 722.451L155.76 709.873L115.171 736.731L190.178 860.667L264.606 750.772L295.468 768.897L313.409 730.839C320.746 734.976 328.291 738.79 336.023 742.26L319.814 789.417L291.497 779.045L269.354 836.558L358.538 902.712L358.603 836.66L393.782 836.7L393.857 760.872C399.698 762.061 405.607 763.067 411.576 763.883L419.795 857.728L386.463 862.029L395.255 912.473L486.695 900.673L471.901 851.004L455.185 790.64L497.714 769.247L492.903 763.085C497.903 762.3 502.859 761.381 507.767 760.333L519.05 781.249L532.537 808.385L473.257 815.703L495.992 859.094L550.865 856.164L565.858 893.425L631.453 888.524L595.322 804.501L644.968 794.887L624.525 761.956L578.098 769.529L560.941 743.182C572.833 737.962 584.289 731.933 595.238 725.164L620.634 757.211L646.382 734.512L692.116 792.225L711.179 775.418L761.603 823.395L798.077 765.408L676.738 652.354L670.239 666.176L665.948 662.654C673.192 653.639 679.884 644.163 685.974 634.275L741.982 666.003L825.134 744.033L894.189 663.077L786.637 591.391L786.637 525L726.321 508.809C726.487 506.47 726.623 504.122 726.73 501.767L785 483.999L800.5 517.999L935.915 557.499L925.5 471.499L863.301 471.498V429.168L935.915 380.814L910.222 338.103L743.931 430.826L850.5 338.103L823.5 270L692.328 353.393L691.889 353.711C690.836 351.828 689.762 349.958 688.667 348.102L768.241 287.253L729.005 177.312L643.831 272.08L627.42 236.304L611.813 263.837C610.723 263.049 609.626 262.269 608.523 261.497L658.235 179.421L687.294 191.537L732.019 122.171L651.727 43.7841L629.507 123.138L589.098 123.52L558.28 233.58C552.456 231.096 546.53 228.806 540.51 226.717ZM187.978 395.985C192.516 383.218 197.963 370.881 204.241 359.053L191.068 354.336L187.978 395.985Z" fill="#0B3A35"/>
</svg>
