<svg width="1053" height="947" viewBox="0 0 1053 947" fill="none" xmlns="http://www.w3.org/2000/svg">
<path fill-rule="evenodd" clip-rule="evenodd" d="M608.116 234.845L625.941 163.288L572.168 117.791L518.032 0L438.803 68.1107L439.479 202.386L431.341 202.992L391.165 138.239L358.186 157.162L311.349 91.8793L207.967 159.065L264.028 212.257L207.48 254.954L252.164 289.286L287.353 274.131L302.295 288.568C293.685 295.4 285.483 302.659 277.727 310.308L144.916 276.14L141.205 322.313L74.8747 320.628L42.24 418.073L135.445 446.792L134.598 404.517L211.469 410.63C209.218 416.475 207.166 422.406 205.319 428.417L164.265 423.03L159.259 466.227L8.27058 450.78L-6.10352e-05 519.495L151.133 520.783L140.541 569.77L201.653 572.828C203.075 578.463 204.677 584.034 206.451 589.537L193.322 588.471L54.3049 630.131L162.768 709.012L243.142 673.413L248.186 670.131C253.833 677.721 259.864 685.048 266.253 692.09L190.164 749.664L175.22 736.601L129.552 764.493L213.945 893.2L297.687 779.075L332.411 797.897L352.597 758.374C360.852 762.671 369.34 766.631 378.04 770.234L359.803 819.207L327.943 808.435L303.029 868.162L403.372 936.862L403.445 868.268L443.027 868.31L443.111 789.563C449.684 790.798 456.331 791.843 463.047 792.69L472.295 890.148L434.792 894.615L444.685 947.001L547.566 934.747L530.922 883.165L512.113 820.477L559.964 798.261L554.551 791.861C560.177 791.046 565.754 790.092 571.276 789.003L583.971 810.724L599.146 838.905L532.447 846.504L558.027 891.566L619.766 888.524L636.635 927.219L710.439 922.129L669.787 834.871L725.645 824.887L702.644 790.688L650.407 798.553L631.103 771.192C644.483 765.771 657.373 759.51 669.693 752.48L698.266 785.761L727.236 762.188L778.693 822.122L800.142 804.669L856.875 854.492L897.914 794.274L761.391 676.868L754.078 691.221L749.25 687.564C757.401 678.202 764.931 668.361 771.783 658.093L834.799 691.042L928.356 772.076L1006.05 688.003L885.041 613.557L885.042 544.611L817.179 527.796C817.365 525.367 817.518 522.93 817.638 520.484L883.2 502.032L900.64 537.341L1053 578.361L1041.28 489.051L971.299 489.051V445.091L1053 394.875L1024.09 350.519L836.992 446.812L956.896 350.519L926.518 279.795L778.931 366.398L778.438 366.728C777.253 364.773 776.045 362.831 774.812 360.903L864.343 297.712L820.198 183.538L724.365 281.955L705.902 244.802L688.342 273.394C687.114 272.576 685.88 271.766 684.639 270.964L740.573 185.728L773.267 198.31L823.589 126.274L733.25 44.8695L708.249 127.279L662.784 127.675L628.11 241.972C621.557 239.393 614.889 237.014 608.116 234.845ZM211.47 410.629C216.576 397.371 222.705 384.559 229.768 372.275L214.946 367.377L211.47 410.629Z" fill="#0D2323" fill-opacity="0.82"/>
</svg>
