<svg width="50" height="56" viewBox="0 0 50 56" fill="none" xmlns="http://www.w3.org/2000/svg">
<path d="M0.122147 53.0384C1.37692 45.2685 2.16115 37.4313 3.47111 29.6643C4.3599 24.3966 4.82751 19.0585 5.51879 13.7557C5.98352 10.1912 6.39019 6.61206 7.03791 3.07975C7.67691 -0.394031 8.05159 -0.557926 11.2117 0.767788C16.1117 2.82221 20.9623 4.99371 25.8536 7.08032C32.4266 9.88392 39.0141 12.6524 45.5987 15.4355C45.6859 15.4736 45.7817 15.497 45.8717 15.5321C48.6117 16.6286 49.9807 18.6849 49.9788 21.7012L49.9788 32.5177L49.9962 32.5177C49.9962 36.6089 50.0078 40.7002 49.9904 44.7915C49.9817 47.3141 49.7145 47.7443 47.3763 48.1482C40.9166 49.2661 34.4075 50.1324 27.9855 51.4288C24.0092 52.2336 19.998 52.7984 16.0217 53.5769C11.6677 54.4314 7.29639 55.1982 2.91342 55.8859C0.319653 56.2927 -0.301918 55.6723 0.122147 53.0384Z" fill="#FFDA1D"/>
<path d="M22.3333 20L20.4533 21.88L26.56 28L20.4533 34.12L22.3333 36L30.3333 28L22.3333 20Z" fill="#051A1A"/>
</svg>
