<svg width="1512" height="3027" viewBox="0 0 1512 3027" fill="none" xmlns="http://www.w3.org/2000/svg">
<path fill-rule="evenodd" clip-rule="evenodd" d="M-7.99321 2340.57L-7.77948 2342.4L-7.71894 2342.92C-0.59345 2404.01 6.53178 2465.1 13.6125 2526.21C15.3884 2541.67 -1.06476 2554.37 -35.7588 2564.31C-132.516 2591.94 -229.283 2619.54 -326.048 2647.14L-327.768 2647.63L-332.088 2648.86C-365.357 2658.35 -398.625 2667.84 -431.892 2677.33L-431.837 2677.81C-452.857 2683.81 -473.878 2689.81 -494.899 2695.8L-499.065 2388.59C-474.941 2379.03 -450.812 2369.48 -426.672 2359.94C-395.955 2347.81 -365.166 2335.76 -334.374 2323.71L-334.366 2323.7L-334.357 2323.7L-334.349 2323.7L-334.341 2323.69L-334.333 2323.69L-334.325 2323.69C-301.157 2310.7 -267.986 2297.72 -234.901 2284.63C-196.498 2269.44 -158.203 2254.06 -119.908 2238.68L-119.873 2238.67C-104.574 2232.53 -89.2757 2226.39 -73.97 2220.25C-72.0879 2219.5 -70.2184 2218.72 -68.3479 2217.94L-68.3452 2217.94L-68.3392 2217.93L-68.337 2217.93L-68.3303 2217.93C-64.6638 2216.4 -60.9936 2214.86 -57.2185 2213.54C-31.9684 2204.74 -25.4565 2205.25 -22.7108 2216.12C-22.1215 2218.39 -21.8847 2220.78 -21.6478 2223.16L-21.6467 2223.17L-21.6457 2223.18C-21.5674 2223.97 -21.4891 2224.76 -21.3978 2225.54C-17.0039 2263.32 -12.5988 2301.08 -8.19376 2338.85L-7.99321 2340.57ZM-494.861 2698.64L-494.607 2717.32C-494.383 2733.89 -480.784 2746.69 -464.233 2745.93L-160.582 2731.84C-198.631 2728.07 -236.642 2724.18 -274.649 2720.29L-274.659 2720.29L-274.961 2720.26L-274.963 2720.26L-275.035 2720.25C-348.246 2712.76 -421.439 2705.27 -494.861 2698.64ZM143.648 2717.72L932.445 2681.12C961.156 2670.93 989.863 2660.73 1018.55 2650.49C1044.68 2641.16 1051.68 2635.62 1050.24 2623.88C1048.05 2606.26 1045.78 2588.61 1040.65 2571.9C1028.81 2533.49 1020.45 2494.04 1012.08 2454.59C1006.59 2428.69 1001.1 2402.8 994.634 2377.2C993.104 2371.11 991.736 2364.97 990.367 2358.83C987.479 2345.87 984.59 2332.91 980.181 2320.4C975.528 2307.24 970.76 2306.79 939.769 2316.98C931.779 2319.61 923.805 2322.29 915.833 2324.96L915.83 2324.96L915.827 2324.96L915.824 2324.96L915.821 2324.96L915.818 2324.96L915.815 2324.96L915.812 2324.96L915.809 2324.96L915.792 2324.97C903.179 2329.2 890.573 2333.43 877.926 2337.49C811.143 2358.99 744.353 2380.44 677.573 2401.88L677.426 2401.93C632.884 2416.23 588.347 2430.54 543.818 2444.85C528.695 2449.71 513.598 2454.68 498.503 2459.64L498.471 2459.65L498.461 2459.65C468.821 2469.4 439.187 2479.14 409.385 2488.09C374.312 2498.63 339.613 2510.15 304.926 2521.66L304.921 2521.66C269.876 2533.29 234.842 2544.91 199.444 2555.53C187.862 2559 176.388 2562.88 164.918 2566.76C160.378 2568.3 155.839 2569.84 151.293 2571.35C134.85 2576.81 127.18 2583.05 128.51 2590.25C128.978 2592.68 129.171 2595.2 129.364 2597.72C129.483 2599.28 129.603 2600.85 129.788 2602.39L143.648 2717.72ZM1100.95 2673.31L2035.65 2629.94C2052.2 2629.17 2065.44 2615.12 2065.21 2598.55L2058.22 2082.96C2049.38 2092.1 2040.54 2101.23 2031.71 2110.37L2031.71 2110.37L2031.7 2110.37C1976.21 2167.72 1920.72 2225.07 1864.57 2282.42C1845.39 2301.98 1846.08 2312.85 1866.06 2321.95C1881.37 2328.91 1896.65 2335.89 1911.92 2342.88C1908.14 2353.8 1906.1 2365.1 1905.75 2376.83C1904.24 2425.75 1902.5 2474.64 1900.5 2523.53C1889.44 2518.21 1878.38 2512.9 1867.32 2507.58C1853.27 2500.83 1839.24 2494.07 1825.22 2487.31L1825.16 2487.28C1783.13 2467.03 1741.11 2446.77 1698.44 2426.86C1682.79 2419.55 1680.34 2410.01 1696.48 2393.99M2057.1 1999.94L2057.25 2011.14C2055.02 2013.82 2052.12 2017 2048.61 2020.73C1987.08 2086.03 1925.47 2151.32 1863.86 2216.61L1863.61 2216.88L1862.87 2217.66C1826.38 2256.33 1789.89 2295 1753.42 2333.68M2057.1 1999.94C2051.35 2000.21 2040.89 2002.71 2024.93 2006.97C2010.71 2010.77 1996.52 2014.76 1982.37 2018.81C1870.45 2050.87 1758.56 2082.96 1646.67 2115.04C1613.23 2124.63 1579.78 2134.22 1546.33 2143.81L1546.39 2144.29C1505.05 2156.14 1463.71 2167.99 1422.37 2179.84L1422.14 2179.9L1421.91 2179.97C1339.32 2203.64 1256.73 2227.32 1174.16 2251.01C1165.45 2253.51 1156.75 2255.99 1148.05 2258.48L1147.96 2258.5L1147.96 2258.5L1147.96 2258.5L1147.96 2258.5L1147.96 2258.5C1118.85 2266.82 1089.75 2275.12 1060.75 2283.92C1027.61 2293.98 1022.29 2298.38 1024.45 2313.21C1028.28 2340.02 1032.53 2366.7 1037.85 2393.07C1040.43 2405.97 1045.04 2418.28 1050.17 2430.37C1054.5 2440.48 1058.35 2440.62 1083.34 2434.33C1091.8 2432.21 1100.28 2429.76 1108.76 2427.31L1108.76 2427.31L1108.76 2427.3L1108.77 2427.3L1108.78 2427.3L1108.79 2427.3L1108.8 2427.29L1108.81 2427.29L1108.81 2427.29L1108.82 2427.29L1109 2427.24C1111.09 2426.63 1113.17 2426.03 1115.26 2425.43C1133.79 2420.12 1152.33 2414.82 1170.87 2409.52L1170.94 2409.5C1223.29 2394.52 1275.65 2379.54 1327.97 2364.39C1329.74 2363.88 1331.46 2363.39 1333.13 2362.9C1387.51 2347.15 1393.37 2345.45 1394.65 2377.78C1394.74 2379.4 1394.45 2381.12 1394.1 2382.83C1392.71 2389.45 1385.19 2395.21 1371.78 2399.59C1361.26 2403.04 1350.6 2406.22 1339.99 2409.26C1311.95 2417.33 1283.9 2425.38 1255.86 2433.43L1255.83 2433.44L1255.79 2433.45L1255.76 2433.46L1255.72 2433.47L1255.69 2433.48L1255.65 2433.49L1255.62 2433.5L1255.58 2433.51L1255.38 2433.56L1255.35 2433.57L1255.34 2433.58C1207.93 2447.19 1160.53 2460.79 1113.11 2474.48C1101.41 2477.85 1089.5 2481.64 1078.21 2486.03C1069.79 2489.3 1064.99 2493.99 1065.36 2498.24C1065.74 2502.74 1072.02 2503.55 1081.06 2501.52C1095.16 2498.35 1109.43 2494.95 1123.51 2490.94C1158.89 2480.86 1194.24 2470.7 1229.6 2460.55L1229.6 2460.54L1229.69 2460.52C1269.92 2448.96 1310.16 2437.4 1350.42 2425.95C1391.04 2414.4 1398.55 2415.73 1401.45 2433.2C1405.89 2459.89 1402.6 2462.48 1341.7 2479.94C1319.81 2486.21 1297.92 2492.48 1276.03 2498.74L1276.02 2498.74L1276.01 2498.75L1276.01 2498.75L1276 2498.75L1275.99 2498.75L1275.98 2498.75L1275.97 2498.76L1275.97 2498.76L1275.79 2498.81L1275.79 2498.81L1275.78 2498.81L1275.78 2498.81L1275.77 2498.82L1275.77 2498.82L1275.76 2498.82L1275.76 2498.82L1275.75 2498.82L1275.75 2498.82C1225.64 2513.16 1175.55 2527.5 1125.45 2541.97C1079.71 2555.2 1076.74 2557.68 1079.52 2577.34C1079.54 2577.45 1079.55 2577.55 1079.57 2577.66C1079.59 2577.82 1079.61 2577.97 1079.63 2578.13C1079.74 2578.92 1079.85 2579.71 1080.02 2580.49C1084.68 2601.28 1089.37 2622.06 1094.07 2642.84L1094.08 2642.9L1094.08 2642.91L1094.09 2642.91L1094.09 2642.91L1094.09 2642.91C1096.38 2653.04 1098.66 2663.17 1100.95 2673.31M2052.5 1660.63L2054.49 1807.77C1881.66 1855.31 1708.85 1903.04 1536.07 1950.96C1496.06 1962.05 1456.1 1973.38 1416.14 1984.7L1416.13 1984.71L1416.08 1984.72L1416.06 1984.73L1416.05 1984.73C1381.9 1994.41 1347.76 2004.09 1313.58 2013.62C1259.75 2028.63 1257.03 2028.12 1254.04 2004.68C1250.14 1974.3 1246.43 1943.86 1242.71 1913.43L1242.71 1913.38L1242.71 1913.37L1242.71 1913.36L1242.7 1913.35L1242.7 1913.34L1242.69 1913.27L1242.68 1913.15L1242.67 1913.05L1242.66 1912.96L1242.64 1912.86C1240.8 1897.76 1238.96 1882.66 1237.1 1867.56C1237.07 1867.37 1237.05 1867.18 1237.03 1867C1236.99 1866.66 1236.95 1866.33 1236.91 1866C1236.87 1865.6 1236.83 1865.2 1236.78 1864.81L1236.78 1864.8L1236.78 1864.8C1236.45 1861.73 1236.12 1858.67 1235.32 1855.73C1232.06 1844.16 1225.75 1843.18 1197.74 1850.12C1190.29 1851.96 1182.82 1854.05 1175.34 1856.14L1175.34 1856.14L1175.34 1856.14L1175.34 1856.14L1175.34 1856.14L1175.33 1856.14L1175.32 1856.14L1175.31 1856.15L1175.3 1856.15L1175.28 1856.15L1175.27 1856.16L1173.2 1856.73C1170.95 1857.36 1168.69 1857.99 1166.44 1858.61C1104.96 1875.55 1043.48 1892.5 982.005 1909.45L981.666 1909.54L981.327 1909.64L981.207 1909.67L981.087 1909.7L980.967 1909.74L980.847 1909.77L980.727 1909.8C857.058 1943.89 733.394 1977.98 609.709 2012.06C556.41 2026.72 554.449 2026.49 551.594 2003.88C544.36 1946.03 537.273 1888.14 530.187 1830.25L530.163 1830.05L530.148 1829.94L530.134 1829.82L530.12 1829.7L530.105 1829.59L530.091 1829.47L529.978 1828.55C527.28 1806.5 524.581 1784.46 521.873 1762.41L521.939 1762.39C519.206 1740.13 516.467 1717.88 513.729 1695.62L513.611 1694.67C506.668 1638.24 499.725 1581.81 492.866 1525.36C489.468 1497.7 490.808 1497.09 551.679 1488.78C594.433 1482.94 637.257 1476.98 680.082 1471.02L680.165 1471L680.236 1470.99L680.306 1470.98L680.377 1470.97L680.448 1470.97L680.518 1470.96C760.974 1459.75 841.436 1448.55 921.455 1438.16C929.997 1437.06 937.315 1436.03 943.602 1435.15C966.877 1431.89 976.004 1430.61 980.688 1434.54C983.71 1437.08 984.883 1441.78 986.811 1449.52L986.811 1449.52C986.936 1450.02 987.065 1450.53 987.197 1451.06C987.422 1451.96 987.659 1452.9 987.91 1453.88C995.938 1485 1003.66 1516.21 1009.19 1548.07C1012.28 1565.91 1014.76 1565.86 1056.03 1557.61C1082 1552.43 1107.91 1547.51 1133.81 1542.59L1133.82 1542.58L1133.83 1542.58L1133.84 1542.58L1133.85 1542.58L1133.86 1542.58L1133.89 1542.57C1158.45 1537.91 1183.02 1533.24 1207.64 1528.35C1240.03 1521.91 1272.46 1515.34 1304.89 1508.76L1304.94 1508.75L1305.01 1508.74L1305.04 1508.73C1353.09 1498.99 1401.13 1489.25 1449.05 1479.97C1461.31 1477.59 1473.57 1475.23 1485.82 1472.88C1517.19 1466.86 1548.56 1460.83 1580.06 1454.37C1595.78 1451.14 1605.36 1452.97 1607.28 1459.49C1609.12 1465.65 1610.5 1471.94 1611.29 1478.39C1617.54 1528.89 1623.73 1579.42 1629.93 1629.94L1629.93 1629.96C1634.59 1667.88 1639.24 1705.8 1643.91 1743.72C1647.13 1769.91 1647.52 1770.51 1709.6 1752.67C1714.66 1751.22 1719.71 1749.77 1724.76 1748.33C1714.23 1749.28 1711.31 1745.5 1709.96 1735.94C1705.79 1706.04 1702.28 1675.94 1698.77 1645.83L1698.77 1645.82C1697.93 1638.62 1697.09 1631.42 1696.24 1624.23C1691.81 1586.51 1687.46 1548.78 1683.1 1511.04C1680.54 1488.86 1677.99 1466.68 1675.41 1444.5C1674.98 1440.83 1674.41 1437.19 1673.81 1433.56C1672.61 1426.38 1664.41 1424.01 1647.78 1427.44C1635.11 1430.05 1622.44 1432.68 1609.77 1435.31L1609.36 1435.4L1609.35 1435.4C1576.82 1442.14 1544.29 1448.89 1511.82 1455.46C1483.33 1461.24 1454.89 1466.91 1426.44 1472.58L1426.42 1472.58L1426.37 1472.59L1426.21 1472.62C1400.17 1477.82 1374.12 1483.01 1348.03 1488.28C1336.89 1490.53 1325.74 1492.76 1314.6 1494.99L1314.6 1494.99L1314.59 1494.99L1314.59 1494.99L1314.59 1494.99L1314.58 1494.99C1276.93 1502.52 1239.27 1510.04 1201.46 1518.56C1187.63 1521.67 1173.98 1524.16 1160.34 1526.65L1160.34 1526.65L1160.33 1526.65L1160.33 1526.65L1160.33 1526.65C1140.51 1530.27 1120.7 1533.89 1100.33 1539.41C1081.14 1544.6 1070.76 1541.38 1068.06 1533.51C1067.8 1532.74 1067.53 1531.97 1067.27 1531.19C1066.93 1530.22 1066.59 1529.25 1066.25 1528.28L1066.24 1528.26C1063.93 1521.66 1061.61 1515.05 1060.35 1508.13L1060.13 1506.95L1060.13 1506.94L1060.13 1506.94L1060.13 1506.94L1060.13 1506.94L1060.13 1506.93C1056.52 1487.22 1052.91 1467.5 1050.85 1447.34C1046.95 1408.85 1039.47 1371.42 1031.98 1334L1031.98 1334L1031.98 1334L1031.98 1333.99L1031.98 1333.99L1031.98 1333.99L1031.97 1333.98C1027.14 1309.83 1022.31 1285.68 1018.44 1261.24C1014.83 1238.26 1017.61 1235.61 1070.3 1220.54C1202.46 1182.74 1334.6 1145 1466.76 1107.26L1467.39 1107.08L1468.56 1106.74L1468.71 1106.7L1468.86 1106.66L1469.01 1106.61L1472 1105.76C1515.23 1093.41 1558.46 1081.07 1601.69 1068.72L1601.62 1068.18C1653.68 1053.31 1705.75 1038.45 1757.81 1023.59L1757.96 1023.55L1758.1 1023.51L1758.24 1023.46L1758.39 1023.42L1758.53 1023.38L1759.05 1023.23L1759.14 1023.21L1759.17 1023.2L1759.21 1023.19L1759.24 1023.18C1853.75 996.201 1948.26 969.222 2042.75 942.19L2052.44 1656.52C1991.94 1673.77 1931.43 1691.01 1870.92 1708.23C1914 1696.77 1957.09 1685.53 2000.18 1674.29C2017.62 1669.75 2035.06 1665.2 2052.5 1660.63ZM2041.34 837.903C2036.7 839.191 2032.05 840.479 2027.41 841.765L2027.39 841.771L2027.35 841.783L2027.28 841.802C2017.9 844.4 2008.53 846.999 1999.15 849.606L1600.6 960.502C1598.53 961.076 1596.47 961.652 1594.41 962.228L1594.08 962.319L1594.01 962.339L1594 962.342C1588.04 964.002 1582.09 965.662 1576.14 967.293C1532.73 979.184 1532.26 979.109 1529.52 959.781C1528.91 955.415 1528.39 951.019 1527.87 946.62L1527.87 946.58C1527.76 945.691 1527.66 944.803 1527.55 943.914L1527.43 942.861C1527.38 942.463 1527.33 942.065 1527.28 941.668C1526.07 931.643 1524.87 921.613 1523.67 911.583L1523.67 911.579L1523.67 911.574C1520.59 885.855 1517.52 860.131 1514.21 834.482C1512.01 817.53 1508.84 817.072 1470.17 827.704C1418.88 841.802 1367.6 856.075 1316.34 870.521C1280.99 880.5 1275.52 884.288 1277.07 899.516C1281.06 938.476 1285.79 977.224 1290.79 1015.89C1294.77 1046.57 1288.5 1048.19 1251.62 1057.75L1251.62 1057.75C1244.21 1059.67 1235.56 1061.91 1225.5 1064.78C1171.72 1080.09 1117.86 1094.97 1063.98 1109.85L1063.96 1109.85L1063.94 1109.86L1063.92 1109.86L1058.9 1111.25C1049.16 1113.94 1039.43 1116.63 1029.69 1119.32C991.306 1129.94 989.368 1129.45 984.785 1113.1C973.222 1071.63 966.23 1028.83 961.34 985.435C957.963 955.092 950.988 925.825 944.011 896.553L944.011 896.551L944.011 896.55C940.535 881.967 937.06 867.383 934.029 852.665C932.008 842.89 922.407 839.713 900.044 842.593C892.9 843.511 885.778 844.39 878.671 845.242C882.505 868.295 886.41 891.329 890.315 914.363C900.73 975.797 911.145 1037.23 920.209 1099.05C923.709 1122.87 929.274 1146.07 934.838 1169.26L934.839 1169.26L934.839 1169.27C941.503 1197.05 948.166 1224.82 951.278 1253.66C954.134 1279.84 953.631 1280.78 898.369 1288.64C826.751 1298.83 755.277 1308.72 683.805 1318.6L683.736 1318.61C653.275 1322.83 622.814 1327.04 592.342 1331.28L572.734 1334.01L571.674 1334.15L571.52 1334.17C547.078 1337.57 522.637 1340.97 498.177 1344.38C467.016 1348.72 462.312 1347.89 460.406 1333.49C456.887 1306.59 453.79 1279.57 450.693 1252.54L450.685 1252.47L450.681 1252.43C449.392 1241.18 448.102 1229.93 446.783 1218.68L434.032 1110.04L433.966 1110.06C431.556 1089.53 429.139 1068.99 426.722 1048.46L426.617 1047.56C420.667 997.009 414.717 946.456 408.861 895.87C406.097 872.321 408.627 870.91 459.997 864.588C553.695 853.067 647.435 841.472 741.215 829.804C740.064 821.48 738.954 813.143 738.464 804.645C737.706 790.904 744.674 786.076 777.209 776.413C789.232 772.835 801.304 769.509 813.362 766.187L813.364 766.187C815.782 765.521 818.2 764.855 820.617 764.187C822.459 763.678 824.3 763.167 826.141 762.655L1126.81 678.996L1126.81 678.967C1155.67 670.936 1184.54 662.943 1213.41 654.95L1213.72 654.865L1214.03 654.779L1225.73 651.538C1072.59 631.633 919.454 611.69 766.36 591.645L2007.23 534.072C2023.78 533.304 2037.38 546.111 2037.61 562.678L2041.34 837.903ZM-510.765 1525.75L-516.337 1114.86C-479.296 1108.18 -442.28 1101.57 -405.266 1094.96L-405.157 1094.94C-364.63 1087.7 -324.105 1080.45 -283.55 1073.14C-277.169 1071.98 -270.761 1070.69 -264.351 1069.41C-252.724 1067.07 -241.092 1064.74 -229.614 1063.19C-215.256 1061.27 -208.347 1063.24 -207.843 1069.96C-207.276 1077.88 -206.538 1085.75 -205.629 1093.57C-193.741 1195.25 -181.81 1296.9 -169.877 1398.57L-169.876 1398.58L-169.875 1398.59C-168.488 1410.41 -180.375 1420.98 -205.525 1430.29C-230.767 1439.66 -256.45 1447.11 -282.14 1454.57L-282.141 1454.57L-282.149 1454.57L-282.164 1454.57C-291.713 1457.35 -301.263 1460.12 -310.791 1462.99C-324.922 1467.23 -332.241 1465.93 -333.722 1459.91C-335.012 1454.9 -336.001 1449.81 -336.688 1444.62C-338.839 1426.65 -340.923 1408.66 -343.007 1390.68L-343.015 1390.61C-344.313 1379.4 -345.611 1368.21 -346.925 1357.01L-346.993 1356.43L-346.993 1356.43C-347.397 1352.97 -347.802 1349.5 -348.727 1346.21C-348.853 1345.75 -348.956 1345.27 -349.062 1344.79C-349.523 1342.65 -350.008 1340.41 -352.463 1339.39C-367.357 1333.14 -386.867 1339.76 -406.195 1346.32C-413.48 1348.8 -420.739 1351.26 -427.716 1353.02C-446.575 1357.79 -451.475 1366.06 -450.609 1373.72C-449.957 1379.6 -449.31 1385.47 -448.663 1391.35L-448.659 1391.39L-448.655 1391.43C-447.522 1401.72 -446.389 1412.02 -445.225 1422.31C-444.446 1429.22 -443.604 1436.11 -442.762 1443L-442.762 1443C-440.932 1457.98 -439.102 1472.96 -437.922 1488.11C-436.639 1504.77 -467.864 1522.81 -502.39 1525.99C-505.856 1526.32 -508.601 1526.2 -510.765 1525.75ZM-504.503 1987.54L-508.687 1679.02C-506.422 1678.28 -504.158 1677.54 -501.893 1676.8L-501.878 1676.79L-501.504 1676.67C-477.282 1668.75 -453.06 1660.84 -428.834 1652.94C-425.504 1651.85 -422.183 1650.73 -418.863 1649.6L-418.86 1649.6L-418.851 1649.6L-418.816 1649.59L-418.814 1649.58C-411.898 1647.24 -404.987 1644.89 -398.013 1642.94C-354.5 1630.78 -311.663 1616.73 -268.825 1602.67L-268.822 1602.67C-240.936 1593.52 -213.049 1584.38 -184.976 1575.75C-182.721 1575.06 -180.465 1574.33 -178.208 1573.6L-178.202 1573.6L-178.181 1573.59L-178.18 1573.59C-173.568 1572.11 -168.952 1570.62 -164.332 1569.41C-143.198 1563.84 -137.462 1564.44 -134.923 1573.14C-133.787 1577.01 -133.468 1581.12 -133.149 1585.24L-133.149 1585.24C-133 1587.17 -132.85 1589.1 -132.616 1591.01C-128.649 1623.5 -124.653 1655.98 -120.656 1688.46L-120.53 1689.49L-120.407 1690.49L-120.286 1691.48C-118.409 1706.73 -116.533 1721.98 -114.659 1737.24L-114.736 1737.26C-112.956 1751.75 -111.168 1766.24 -109.38 1780.73L-109.378 1780.75L-109.377 1780.75L-109.376 1780.76L-109.375 1780.77L-109.374 1780.78C-104.721 1818.49 -100.068 1856.2 -95.5637 1893.94C-93.4951 1911.33 -93.8903 1911.98 -133.519 1927.03C-178.331 1944.04 -223.287 1960.86 -268.247 1977.67L-268.265 1977.68L-268.283 1977.68L-268.301 1977.69L-268.318 1977.7L-268.336 1977.7C-292.453 1986.72 -316.57 1995.74 -340.667 2004.79C-348.732 2007.82 -356.756 2010.91 -364.78 2014L-364.789 2014.01C-378.91 2019.45 -393.031 2024.89 -407.368 2029.99C-430.471 2038.21 -436.382 2037.94 -439.461 2028.06C-441.499 2021.57 -442.303 2014.68 -443.108 2007.8C-443.47 2004.71 -443.831 2001.62 -444.305 1998.56C-444.486 1997.4 -444.629 1996.22 -444.772 1995.05L-444.773 1995.04C-445.175 1991.74 -445.578 1988.43 -446.826 1985.39C-450.439 1976.41 -456.461 1975.52 -478.516 1980.67C-486.546 1982.55 -494.645 1984.8 -502.734 1987.05L-502.744 1987.05L-502.754 1987.05L-502.765 1987.06L-502.775 1987.06C-503.351 1987.22 -503.927 1987.38 -504.503 1987.54ZM-503.341 2073.24L-499.727 2339.8C-486.575 2334.6 -473.423 2329.41 -460.271 2324.22C-431.999 2313.05 -403.721 2301.89 -375.442 2290.72L-375.318 2290.67L-375.204 2290.63C-313.304 2266.19 -251.397 2241.75 -189.517 2217.26C-172.065 2210.35 -154.651 2203.39 -137.235 2196.43C-109.096 2185.18 -80.9522 2173.93 -52.6337 2162.91C-37.3757 2156.98 -31.8151 2151.28 -31.722 2144.64C-31.6822 2139.78 -31.9884 2134.99 -32.538 2130.27C-34.7381 2110.96 -36.9785 2091.67 -39.2192 2072.37L-39.2211 2072.35L-39.2556 2072.05L-39.2657 2071.97C-40.9018 2057.88 -42.5381 2043.79 -44.159 2029.69C-45.3034 2019.85 -46.4396 2010.01 -47.5757 2000.17L-47.5984 1999.97L-47.6217 1999.77L-47.6451 1999.57L-47.652 1999.51L-47.659 1999.46L-47.666 1999.4L-47.6717 1999.35C-50.4955 1974.89 -53.3191 1950.44 -56.2655 1926.01C-58.8957 1904.28 -63.2126 1904.02 -111.192 1921.84L-111.641 1922.01L-112.021 1922.16L-112.444 1922.32L-112.708 1922.42C-113.319 1922.66 -113.929 1922.9 -114.529 1923.14C-141.816 1933.83 -169.103 1944.52 -196.39 1955.21L-196.666 1955.32L-196.799 1955.37C-288.827 1991.42 -380.845 2027.47 -472.807 2063.6C-487.283 2069.29 -496.875 2072.57 -503.341 2073.24ZM1172.21 2133.05C1173.35 2146.99 1169.78 2150.29 1138.34 2159.66C1098.18 2171.65 1057.78 2182.8 1017.42 2193.82C954.666 2210.97 955.506 2214.27 959.287 2229.13C959.906 2231.56 960.603 2234.3 961.114 2237.46L961.137 2237.6L961.165 2237.77L961.197 2237.96C961.216 2238.07 961.235 2238.18 961.254 2238.29L961.308 2238.6C961.378 2239 961.451 2239.39 961.524 2239.79C962.021 2242.52 962.519 2245.25 962.364 2248.14C961.9 2257.95 956.058 2262.62 935.151 2270.35L935.053 2270.39C932.86 2271.21 930.606 2272.05 928.354 2272.63C894.109 2281.47 860.768 2292.93 827.397 2304.4L827.395 2304.4L827.393 2304.4C799.685 2313.92 771.956 2323.45 743.673 2331.49C710.447 2340.94 677.424 2352.33 644.637 2363.63L644.635 2363.63L644.624 2363.64C637.819 2365.99 631.024 2368.33 624.24 2370.65C599.666 2379.06 574.786 2386.51 549.91 2393.95L549.909 2393.95C512.854 2405.04 475.809 2416.12 439.801 2430.4C426.052 2435.86 411.059 2439.84 396.099 2443.81C390.018 2445.43 383.943 2447.04 377.959 2448.75C364.211 2452.68 356.049 2451.43 353.793 2446.05C351.607 2440.93 350.117 2435.57 349.328 2430.02C346.914 2411.28 344.663 2392.5 342.411 2373.72L342.399 2373.62L342.389 2373.53C341.172 2363.39 339.956 2353.24 338.714 2343.11C338.677 2342.8 338.642 2342.5 338.607 2342.2C338.588 2342.03 338.569 2341.85 338.55 2341.68C338.509 2341.31 338.468 2340.94 338.428 2340.56L338.421 2340.5L338.421 2340.5C338.016 2336.77 337.612 2333.04 336.44 2329.56C333.071 2319.35 326.893 2317.92 303.427 2324.07C229.215 2343.51 229.406 2345.03 232.597 2370.33L232.599 2370.35C232.668 2370.89 232.738 2371.45 232.809 2372.02C232.865 2372.46 232.921 2372.92 232.977 2373.38L233.052 2374C236.63 2403.48 240.207 2432.97 243.62 2462.5C244.283 2468.09 244.48 2473.82 244.209 2479.66C243.772 2488.19 234.578 2495.89 215.985 2502.32C190.996 2510.97 165.7 2518.11 140.332 2525.02C127.174 2528.59 121.384 2527.08 120.49 2521.71C120.344 2520.83 120.183 2519.96 120.021 2519.09L120.018 2519.07L120.016 2519.05C119.717 2517.44 119.42 2515.83 119.222 2514.18C109.316 2432.03 99.44 2349.86 89.5651 2267.69L89.3052 2265.52L89.6891 2265.42L60.5385 2022.85C60.525 2022.74 60.511 2022.62 60.4967 2022.51C60.4819 2022.39 60.4666 2022.27 60.4511 2022.15C60.4338 2022.02 60.416 2021.89 60.3982 2021.76L60.353 2021.43C60.3144 2021.15 60.2748 2020.87 60.2352 2020.59L60.235 2020.59C59.9838 2018.81 59.733 2017.04 59.6872 2015.2C59.4127 2006.98 67.9026 1999.26 85.1462 1992.07C119.229 1977.81 154.273 1964.88 189.319 1951.94L189.325 1951.94L189.336 1951.94C204.496 1946.34 219.656 1940.75 234.739 1935.05C243.167 1931.86 251.603 1928.68 260.04 1925.5L260.046 1925.5L260.052 1925.5L260.058 1925.5L260.063 1925.49L260.074 1925.49L260.089 1925.48C292.771 1913.17 325.461 1900.86 357.678 1888C370.176 1883.01 382.773 1878.85 395.381 1874.68L395.387 1874.67L395.395 1874.67C400.846 1872.87 406.299 1871.07 411.747 1869.19C429.815 1863.01 437.646 1865.19 439.678 1872.01C441.068 1876.67 441.657 1881.58 442.244 1886.47L442.244 1886.47L442.311 1887.03C447.217 1927.74 452.098 1968.45 456.979 2009.16L457.019 2009.49L457.043 2009.69C463.177 2060.85 469.31 2112.02 475.495 2163.17C478.902 2191.23 479.167 2191.65 544.128 2173.6C660.752 2141.22 777.332 2108.63 893.91 2076.05L894.153 2075.98L894.252 2075.96L894.351 2075.93L894.45 2075.9L894.543 2075.88L894.636 2075.85L894.729 2075.82L894.822 2075.8L894.915 2075.77L895.007 2075.75L895.1 2075.72L895.192 2075.69L895.321 2075.66C953.391 2059.43 1011.46 2043.2 1069.54 2026.99C1070.75 2026.65 1071.97 2026.31 1073.18 2025.97C1074.57 2025.59 1075.95 2025.2 1077.34 2024.81L1077.34 2024.81L1077.34 2024.81C1093.19 2020.37 1109.08 2015.93 1124.87 2012.22C1152.51 2005.71 1156.53 2006.45 1158.36 2018.66C1160.94 2035.75 1162.94 2053.01 1164.93 2070.27L1164.94 2070.27C1165.65 2076.43 1166.36 2082.59 1167.1 2088.75C1167.56 2092.46 1168.03 2096.17 1168.51 2099.89C1169.92 2110.89 1171.33 2121.89 1172.21 2133.05ZM380.397 1531.53C378.73 1518.03 377.065 1504.53 375.4 1491.03C375.143 1489 374.913 1486.96 374.683 1484.92L374.683 1484.92C373.957 1478.48 373.23 1472.03 371.629 1465.85C368.795 1454.64 364.032 1454.14 336.488 1460.81C327.32 1463.03 318.081 1465.58 308.911 1468.14L278.409 1476.63C193.346 1500.32 108.284 1524 23.2339 1547.78C-8.98615 1556.79 -10.6238 1558.18 -9.72807 1573.02C-9.54512 1576.01 -9.15827 1578.95 -8.77157 1581.88L-8.77043 1581.89C-8.63444 1582.92 -8.49844 1583.96 -8.37154 1584.99L7.38866 1713.33L7.11532 1713.41L23.9741 1850.69C24.1424 1851.93 24.3466 1853.15 24.5508 1854.38L24.5518 1854.39C24.7565 1855.62 24.9613 1856.85 25.1299 1858.08C26.0743 1865.22 35.9522 1865.85 50.6123 1860.12C60.9906 1856.07 71.5918 1852.41 82.1983 1848.75L82.2012 1848.75C97.3798 1843.51 112.57 1838.28 127.133 1831.86L127.811 1831.56C159.791 1817.47 162.197 1816.41 161.155 1801.07C160.438 1789.8 159.025 1778.72 157.611 1767.64L157.609 1767.62L157.607 1767.6L157.605 1767.58L157.603 1767.57C157.054 1763.27 156.506 1758.97 155.998 1754.66C155.299 1748.78 154.543 1742.9 153.787 1737.03L153.783 1737L153.778 1736.96L153.774 1736.93L153.77 1736.89L153.766 1736.86L153.763 1736.84L153.762 1736.83C152.29 1725.39 150.817 1713.94 149.749 1702.39C148.101 1684.28 152.514 1681.09 192.501 1669.78C200.533 1667.5 208.574 1665.29 216.622 1663.13C252.168 1653.69 256.997 1654.16 259.142 1669.24C261.586 1686.55 263.671 1703.97 265.756 1721.4L265.758 1721.41L265.773 1721.53C266.721 1729.46 267.67 1737.39 268.653 1745.3C268.892 1747.15 269.083 1749.02 269.274 1750.88L269.275 1750.89L269.275 1750.9C269.748 1755.53 270.223 1760.16 271.449 1764.58C273.748 1773.09 278.117 1773.86 297.687 1767.9C309.579 1764.27 321.285 1760 332.982 1755.74L332.984 1755.74L332.987 1755.73L332.989 1755.73L332.991 1755.73L332.993 1755.73C334.788 1755.08 336.582 1754.42 338.376 1753.77C340.498 1753 342.62 1752.24 344.744 1751.48C403.996 1730.24 404.71 1729.71 401.423 1702.94C394.499 1645.82 387.454 1588.73 380.408 1531.63L380.397 1531.53ZM325.446 1155.4C323.043 1135 320.639 1114.59 318.255 1094.18L318.222 1094.19C316.101 1076.12 313.984 1058.05 311.867 1039.98L311.692 1038.49C307.366 1001.57 303.041 964.653 298.686 927.743C298.426 925.594 298.193 923.437 297.961 921.28L297.96 921.276C297.183 914.072 296.406 906.868 294.607 899.966C291.5 888.131 284.78 887.669 258.188 897.693C246.224 902.207 234.408 906.961 222.598 911.713L222.589 911.717L222.574 911.723C207.918 917.62 193.27 923.513 178.359 928.94C130.203 946.469 82.7436 964.984 35.287 983.498L35.2852 983.498C7.28022 994.424 -20.7237 1005.35 -48.869 1016.07C-85.6963 1030.09 -86.5788 1031.68 -85.0645 1048.94L-84.6989 1052.06C-80.3059 1089.58 -75.9167 1127.11 -71.5278 1164.63L-71.4115 1165.62L-71.285 1166.71C-62.5931 1241.02 -53.9015 1315.33 -45.1795 1389.64C-44.9442 1391.65 -44.5956 1393.62 -44.2467 1395.6C-43.874 1397.71 -43.5014 1399.82 -43.2672 1401.96C-42.5248 1408.87 -35.3214 1410.73 -19.2771 1406.12C-14.2961 1404.69 -9.30402 1403.32 -4.30528 1401.95L-4.30136 1401.95L-4.28139 1401.94C-0.0451049 1400.78 4.19608 1399.62 8.43963 1398.41C100.753 1372.25 193.075 1346.06 285.396 1319.86C342.312 1303.7 342.618 1303.6 339.7 1277.77C335.057 1236.98 330.257 1196.24 325.457 1155.49L325.446 1155.4Z" fill="#051717"/>
</svg>
