<svg width="1508" height="1137" viewBox="0 0 1508 1137" fill="none" xmlns="http://www.w3.org/2000/svg">
<path d="M-5 0L1508 146.335V1002.67L-5 1136.06V0Z" fill="#FFDA1D"/>
<path d="M1365 283.703C1365 275.736 1358.77 269.16 1350.82 268.725L145.819 202.865C137.225 202.395 130 209.236 130 217.842V897.789C130 906.531 137.446 913.421 146.162 912.744L1351.16 819.076C1358.97 818.469 1365 811.954 1365 804.121V283.703Z" fill="#FFE356"/>
<path d="M1464.59 195.939C1464.29 200.251 1464.71 204.602 1464.22 208.859C1462.91 220.342 1463 231.913 1462.38 243.427C1461.98 250.925 1461.2 258.436 1461.33 265.986C1461.46 273.606 1460.82 274.18 1453.47 274.605C1447.37 274.958 1441.26 275.219 1435.15 275.522L1435.15 275.424C1428.28 275.765 1421.41 276.226 1414.54 276.404C1409.99 276.518 1409.74 276.049 1409.56 271.375C1409.34 265.207 1409.2 259.048 1409.93 252.906C1410.12 251.386 1410.08 249.83 1410.04 248.292C1409.98 246.126 1408.79 244.864 1406.69 244.527C1405.64 244.357 1404.57 244.285 1403.5 244.231C1395.58 243.845 1387.67 243.63 1379.75 242.873C1373.39 242.265 1366.93 242.52 1360.54 241.896C1352.48 241.109 1344.4 241.176 1336.32 240.394C1329.53 239.738 1322.6 239.841 1315.74 239.458C1310.76 239.185 1309.84 238.215 1309.79 233.322C1309.64 218.518 1308.83 203.737 1308.03 188.956C1307.6 180.994 1307.89 180.883 1315.61 181.256C1324.14 181.667 1332.62 182.879 1341.19 182.844C1346.66 182.823 1352.14 183.91 1357.63 184.055C1364.8 184.251 1371.88 185.453 1379.07 185.458C1384.71 185.462 1390.35 186.16 1396 186.534C1407.26 187.279 1418.54 187.846 1429.79 188.805C1437.7 189.478 1445.67 189.204 1453.54 190.576C1455.47 190.912 1457.5 190.625 1459.48 190.684C1463.62 190.804 1464.88 191.896 1464.59 195.939Z" fill="#FFE356"/>
<path d="M1464.59 195.939C1464.29 200.251 1464.71 204.602 1464.22 208.859C1462.91 220.342 1463 231.913 1462.38 243.427C1461.98 250.925 1461.2 258.436 1461.33 265.986C1461.46 273.606 1460.82 274.18 1453.47 274.605C1447.37 274.958 1441.26 275.219 1435.15 275.522L1435.15 275.424C1428.28 275.765 1421.41 276.226 1414.54 276.404C1409.99 276.518 1409.74 276.049 1409.56 271.375C1409.34 265.207 1409.2 259.048 1409.93 252.906C1410.12 251.386 1410.08 249.83 1410.04 248.292C1409.98 246.126 1408.79 244.864 1406.69 244.527C1405.64 244.357 1404.57 244.285 1403.5 244.231C1395.58 243.845 1387.67 243.63 1379.75 242.873C1373.39 242.265 1366.93 242.52 1360.54 241.896C1352.48 241.109 1344.4 241.176 1336.32 240.394C1329.53 239.738 1322.6 239.841 1315.74 239.458C1310.76 239.185 1309.84 238.215 1309.79 233.322C1309.64 218.518 1308.83 203.737 1308.03 188.956C1307.6 180.994 1307.89 180.883 1315.61 181.256C1324.14 181.667 1332.62 182.879 1341.19 182.844C1346.66 182.823 1352.14 183.91 1357.63 184.055C1364.8 184.251 1371.88 185.453 1379.07 185.458C1384.71 185.462 1390.35 186.16 1396 186.534C1407.26 187.279 1418.54 187.846 1429.79 188.805C1437.7 189.478 1445.67 189.204 1453.54 190.576C1455.47 190.912 1457.5 190.625 1459.48 190.684C1463.62 190.804 1464.88 191.896 1464.59 195.939Z" fill="#FFE356"/>
<path d="M48.0906 1058.5C47.8698 1054.18 46.9266 1049.91 46.8892 1045.63C46.7967 1034.07 45.2974 1022.6 44.5107 1011.09C44.0013 1003.6 43.8629 996.049 42.8152 988.571C41.7551 981.025 42.3234 980.377 49.5716 979.061C55.5829 977.969 61.6153 976.967 67.6405 975.924L67.6578 976.02C74.433 974.847 81.1914 973.555 87.9909 972.543C92.4945 971.876 92.8017 972.312 93.5423 976.929C94.5176 983.025 95.3995 989.121 95.4215 995.306C95.4232 996.838 95.6454 998.378 95.8737 999.899C96.1953 1002.04 97.533 1003.15 99.654 1003.23C100.72 1003.27 101.795 1003.21 102.858 1003.14C110.766 1002.56 118.648 1001.81 126.604 1001.6C132.982 1001.43 139.367 1000.39 145.789 1000.23C153.878 1000.03 161.897 998.983 170.008 998.777C176.828 998.602 183.696 997.658 190.554 997.204C195.524 996.87 196.554 997.721 197.197 1002.57C199.148 1017.25 201.753 1031.82 204.339 1046.39C205.734 1054.24 205.466 1054.39 197.756 1054.96C189.238 1055.59 180.676 1055.41 172.173 1056.49C166.745 1057.18 161.171 1056.77 155.709 1057.29C148.569 1057.96 141.387 1057.63 134.254 1058.5C128.658 1059.18 122.97 1059.18 117.321 1059.49C106.053 1060.12 94.7877 1060.93 83.5035 1061.35C75.5719 1061.64 67.695 1062.88 59.7163 1062.48C57.7595 1062.38 55.7766 1062.91 53.8007 1063.09C49.6843 1063.47 48.2948 1062.54 48.0906 1058.5Z" fill="#FFE356"/>
<path d="M48.0906 1058.5C47.8698 1054.18 46.9266 1049.91 46.8892 1045.63C46.7967 1034.07 45.2974 1022.6 44.5107 1011.09C44.0013 1003.6 43.8629 996.049 42.8152 988.571C41.7551 981.025 42.3234 980.377 49.5716 979.061C55.5829 977.969 61.6153 976.967 67.6405 975.924L67.6578 976.02C74.433 974.847 81.1914 973.555 87.9909 972.543C92.4945 971.876 92.8017 972.312 93.5423 976.929C94.5176 983.025 95.3995 989.121 95.4215 995.306C95.4232 996.838 95.6454 998.378 95.8737 999.899C96.1953 1002.04 97.533 1003.15 99.654 1003.23C100.72 1003.27 101.795 1003.21 102.858 1003.14C110.766 1002.56 118.648 1001.81 126.604 1001.6C132.982 1001.43 139.367 1000.39 145.789 1000.23C153.878 1000.03 161.897 998.983 170.008 998.777C176.828 998.602 183.696 997.658 190.554 997.204C195.524 996.87 196.554 997.721 197.197 1002.57C199.148 1017.25 201.753 1031.82 204.339 1046.39C205.734 1054.24 205.466 1054.39 197.756 1054.96C189.238 1055.59 180.676 1055.41 172.173 1056.49C166.745 1057.18 161.171 1056.77 155.709 1057.29C148.569 1057.96 141.387 1057.63 134.254 1058.5C128.658 1059.18 122.97 1059.18 117.321 1059.49C106.053 1060.12 94.7877 1060.93 83.5035 1061.35C75.5719 1061.64 67.695 1062.88 59.7163 1062.48C57.7595 1062.38 55.7766 1062.91 53.8007 1063.09C49.6843 1063.47 48.2948 1062.54 48.0906 1058.5Z" fill="#FFE356"/>
</svg>
