<svg width="95" height="80" viewBox="0 0 95 80" fill="none" xmlns="http://www.w3.org/2000/svg">
<path d="M6.97938 60.6776C7.08696 61.7542 7.11385 62.7232 7.06006 63.5845C7.00627 64.4458 6.92559 65.2533 6.818 66.0069C6.818 66.3299 6.73732 66.5722 6.57594 66.7337C6.03803 66.8413 5.41944 66.949 4.72016 67.0566C4.02087 67.1105 3.37538 67.1105 2.78368 67.0566C2.29956 67.0028 1.81544 67.0297 1.33133 67.1374C0.847208 67.1912 0.497567 67.2181 0.282403 67.2181C0.282403 66.8951 0.255507 66.5991 0.201716 66.3299C0.147925 66.0608 0.147925 65.6839 0.201716 65.1994C0.255507 64.7688 0.255507 64.3112 0.201716 63.8267C0.201716 63.3423 0.201716 62.8847 0.201716 62.454V58.4974C0.147925 57.2593 0.12103 55.9943 0.12103 54.7023C0.12103 53.4103 0.0941342 52.549 0.0403433 52.1184C-0.0134478 51.6339 -0.0134478 51.1494 0.0403433 50.6649C0.147925 50.1805 0.201716 49.696 0.201716 49.2115C0.147925 48.4578 0.12103 47.7042 0.12103 46.9506C0.174821 46.1431 0.201716 45.3625 0.201716 44.6089C0.201716 43.9629 0.174821 43.1285 0.12103 42.1057C0.0672387 41.0291 0.0941345 40.1678 0.201716 39.5218C0.632044 39.4141 1.16995 39.3603 1.81544 39.3603C2.46094 39.3603 3.16022 39.3334 3.91329 39.2796C4.50499 39.2257 5.09669 39.1988 5.68839 39.1988C6.28009 39.1988 6.71042 39.1988 6.97938 39.1988C7.08696 39.1988 7.11385 39.3603 7.06006 39.6833C7.06006 39.9525 7.06006 40.1409 7.06006 40.2485C7.00627 41.5943 7.00627 42.7786 7.06006 43.8014C7.11385 44.7704 7.08696 45.7932 6.97938 46.8698C7.03317 47.9464 7.03317 48.8885 6.97938 49.696C6.97938 50.4496 6.92559 51.3647 6.818 52.4414C6.818 52.6029 6.818 53.0335 6.818 53.7333C6.818 54.4331 6.8449 55.2406 6.89869 56.1558C6.95248 57.0171 6.97938 57.8784 6.97938 58.7397C6.97938 59.5471 6.97938 60.1931 6.97938 60.6776ZM0.12103 34.031C0.0672387 33.7618 0.0403433 33.3581 0.0403433 32.8198C0.0941342 32.2815 0.12103 31.7162 0.12103 31.1241C0.12103 30.8549 0.0941342 30.6127 0.0403433 30.3974C0.0403433 30.182 0.0403433 29.9667 0.0403433 29.7514C0.0403433 29.6437 0.0403433 29.563 0.0403433 29.5091C0.0941342 29.4553 0.12103 29.3746 0.12103 29.2669H5.93045C6.19941 29.2669 6.36078 29.2938 6.41457 29.3477C6.46836 29.3477 6.49526 29.4822 6.49526 29.7514V35C6.17251 35.0538 5.6615 35.0807 4.96221 35.0807C4.31672 35.0807 3.64434 35.0807 2.94505 35.0807C2.24577 35.0807 1.60028 35.0807 1.00858 35.0807C0.470671 35.0269 0.201716 34.9461 0.201716 34.8385C0.147925 34.677 0.12103 34.4078 0.12103 34.031Z" fill="white"/>
<path d="M13.7936 40.1678C13.7936 40.0063 13.7667 39.8448 13.7129 39.6833C13.6591 39.5218 13.6591 39.3603 13.7129 39.1988C13.7667 39.1988 13.8474 39.1988 13.955 39.1988C14.1163 39.145 14.2508 39.1181 14.3584 39.1181H14.8425C15.1115 39.0642 15.3804 39.0642 15.6494 39.1181C15.9183 39.1181 16.1873 39.0912 16.4562 39.0373H18.8768C18.9844 39.0373 19.092 39.0912 19.1996 39.1988C19.3072 39.3065 19.3879 39.3872 19.4416 39.4411L19.603 40.1678C19.603 40.3293 19.6299 40.5177 19.6837 40.733C19.7913 41.1637 19.8451 41.6212 19.8451 42.1057C19.8989 42.2672 19.9258 42.4287 19.9258 42.5902C19.9258 42.9132 19.9527 43.0747 20.0065 43.0747C20.2216 42.8594 20.383 42.644 20.4906 42.4287C20.5982 42.1596 20.7326 41.9711 20.894 41.8635C21.0554 41.702 21.163 41.5943 21.2167 41.5405C21.3243 41.4867 21.405 41.4328 21.4588 41.379C21.5664 41.3252 21.7009 41.2713 21.8622 41.2175C22.0236 41.1098 22.2657 40.9483 22.5884 40.733C23.0725 40.4639 23.5029 40.2485 23.8794 40.087C24.3097 39.9255 24.9552 39.6295 25.8159 39.1988C25.9772 39.145 26.2462 39.0642 26.6227 38.9566C27.0531 38.8489 27.5103 38.7682 27.9944 38.7143C28.4785 38.6067 28.9626 38.5528 29.4468 38.5528C29.9847 38.499 30.4419 38.4721 30.8184 38.4721C31.4101 38.5259 31.8942 38.6067 32.2708 38.7143C32.6473 38.7682 33.1583 38.8489 33.8038 38.9566C34.0728 39.0104 34.5031 39.0642 35.0948 39.1181C35.7403 39.1719 36.1706 39.2527 36.3858 39.3603C37.7306 40.114 38.8064 40.7599 39.6133 41.2983C40.4201 41.8366 41.1194 42.5633 41.7111 43.4784C41.8187 43.5861 41.9801 43.7207 42.1952 43.8822C42.4104 43.9898 42.6524 44.1782 42.9214 44.4474C43.1903 44.7166 43.4324 45.0934 43.6476 45.5779C43.9165 46.0085 44.051 46.2777 44.051 46.3853C44.2662 47.3005 44.5082 48.0541 44.7772 48.6463C45.0461 49.1846 45.2075 49.9113 45.2613 50.8264C45.3151 51.2571 45.4496 51.7416 45.6647 52.2799C45.8799 52.7644 45.9875 53.2758 45.9875 53.8141C45.9875 54.3524 46.0144 54.9715 46.0682 55.6713C46.122 56.3172 46.0951 57.2593 45.9875 58.4974C45.9875 58.8742 45.9875 59.2242 45.9875 59.5471C46.0413 59.8701 46.0682 60.1931 46.0682 60.5161V64.2305C46.0682 64.6073 46.0682 64.9572 46.0682 65.2802C46.0682 65.6032 46.0413 65.9262 45.9875 66.2492C45.9875 66.6798 45.9875 67.0566 45.9875 67.3796C46.0413 67.7026 46.0682 68.0794 46.0682 68.5101C46.0682 68.6178 46.0682 68.7254 46.0682 68.8331C46.0682 68.9946 46.0144 69.1022 45.9068 69.1561C45.7992 69.2099 45.6378 69.2368 45.4227 69.2368C45.2613 69.2368 45.1268 69.2368 45.0192 69.2368C44.5351 69.2368 44.0779 69.2368 43.6476 69.2368C43.2172 69.2906 42.76 69.2906 42.2759 69.2368L39.8553 68.9946C39.6401 68.9407 39.3443 68.9407 38.9678 68.9946C38.5912 69.0484 38.3492 68.9677 38.2416 68.7523C38.1878 67.5142 38.1609 66.6529 38.1609 66.1684C38.2147 65.6301 38.2416 65.1456 38.2416 64.715C38.2416 64.4458 38.2147 64.1228 38.1609 63.746C38.1071 63.3153 38.0533 62.7501 37.9995 62.0503L38.2416 57.7707C38.2416 57.2324 38.2147 56.8286 38.1609 56.5595C38.1609 56.2365 38.134 55.9943 38.0802 55.8328C38.0802 55.6174 38.0533 55.3752 37.9995 55.106C37.9995 54.8369 37.9995 54.4062 37.9995 53.8141C37.9995 52.8451 37.8113 51.8761 37.4347 50.9072C37.112 49.9382 36.7085 48.9692 36.2244 48.0003C35.9555 47.462 35.6058 46.9775 35.1755 46.5468C34.7452 46.1162 34.1804 45.7394 33.4811 45.4164C33.3735 45.3625 33.239 45.3087 33.0777 45.2549C32.9163 45.201 32.7818 45.1741 32.6742 45.1741L30.8184 45.0126C29.904 44.9588 28.9626 45.1203 27.9944 45.4971C27.0262 45.8739 26.4345 46.2508 26.2193 46.6276C25.8428 47.2736 25.5469 47.758 25.3318 48.081C25.1166 48.404 24.9014 48.727 24.6863 49.05C24.6325 49.2115 24.5518 49.5076 24.4442 49.9382C24.3366 50.315 24.2021 50.7995 24.0408 51.3917C23.9332 51.93 23.8256 52.5221 23.718 53.1681C23.6104 53.7603 23.5567 54.2986 23.5567 54.783C23.5567 55.1599 23.5567 55.5367 23.5567 55.9135C23.5567 56.2365 23.5298 56.5595 23.476 56.8825L23.3146 59.1434L22.8305 62.2118C22.8305 62.7501 22.8305 63.3423 22.8305 63.9882C22.8305 64.5804 22.8036 65.1456 22.7498 65.6839V67.5411C22.427 67.7564 22.1581 67.8641 21.9429 67.8641C21.3512 67.9718 20.9209 68.0794 20.6519 68.1871C20.4368 68.2948 20.0065 68.3217 19.361 68.2678C18.7693 68.214 17.9893 68.214 17.0211 68.2678C16.0528 68.3755 15.2728 68.3755 14.6811 68.2678C14.0894 68.1602 13.7936 68.0794 13.7936 68.0256C13.7936 68.0256 13.7936 67.891 13.7936 67.6219C13.7936 67.4065 13.7936 67.0836 13.7936 66.6529C13.8474 66.1684 13.8743 65.6839 13.8743 65.1994C13.8743 64.6611 13.8743 64.1497 13.8743 63.6652C13.9281 63.1808 13.955 62.8039 13.955 62.5348C13.955 61.5658 13.9281 60.7583 13.8743 60.1124C13.8205 59.4664 13.7936 58.6589 13.7936 57.69C13.7936 56.8825 13.7667 56.2365 13.7129 55.752C13.7129 55.2137 13.686 54.5408 13.6322 53.7333C13.6322 53.3027 13.6591 52.7644 13.7129 52.1184C13.7667 51.4186 13.7936 50.6919 13.7936 49.9382C13.7936 49.0231 13.7667 48.1349 13.7129 47.2736C13.7129 46.4122 13.7129 45.7663 13.7129 45.3356C13.6591 44.4205 13.6322 43.5592 13.6322 42.7517C13.6322 41.8904 13.686 41.0291 13.7936 40.1678Z" fill="white"/>
<path d="M71.8664 39.4334L74.4086 36.8893L78.3374 33.0731C78.7996 32.5335 79.2618 32.1095 79.724 31.8011C80.1863 31.4927 80.9566 31.4156 82.0351 31.5698C82.8055 31.5698 83.6529 31.6469 84.5773 31.8011C85.5017 31.9553 86.5417 32.0324 87.6972 32.0324C87.8513 32.0324 88.3135 32.0709 89.0839 32.148C89.9312 32.148 90.3549 32.1866 90.3549 32.2637C90.3549 32.6491 90.2394 32.9575 90.0083 33.1888L85.0395 38.5082C84.8854 38.6624 84.5002 39.0479 83.884 39.6646C83.2677 40.2043 82.6129 40.821 81.9196 41.5149C81.2262 42.1316 80.5714 42.7484 79.9552 43.3651C79.3389 43.9048 78.9537 44.2903 78.7996 44.5215C78.1833 45.2154 77.49 45.8707 76.7197 46.4874C76.0263 47.1042 75.3715 47.7209 74.7553 48.3377C74.0619 49.0315 73.4071 49.6868 72.7909 50.3036C72.1746 50.9203 71.4427 51.5371 70.5953 52.1538L68.6309 53.1946C68.785 53.5029 69.2472 54.0811 70.0176 54.9292C70.865 55.7772 71.7509 56.6252 72.6753 57.4733C73.5227 58.3213 74.3316 59.0537 75.1019 59.6704C75.8723 60.2101 76.3345 60.5955 76.4886 60.8268L80.6485 65.1055L84.6928 68.9217C85.078 69.4613 85.6558 70.2322 86.4261 71.2345C87.2735 72.2367 88.2365 73.2774 89.315 74.3567C89.7001 74.7422 90.0853 75.1277 90.4705 75.5132C90.9327 75.8986 91.3564 76.2841 91.7416 76.6696C92.3579 77.2863 92.8971 77.8645 93.3593 78.4042C93.8215 78.9438 94.1682 79.4064 94.3993 79.7918C94.3993 80.0231 93.8601 80.0617 92.7816 79.9075C92.1653 79.7533 91.5875 79.6377 91.0483 79.5606C90.586 79.5606 90.0468 79.522 89.4305 79.4449C88.6602 79.3678 87.8898 79.3293 87.1195 79.3293C86.3491 79.4064 85.5787 79.3678 84.8084 79.2136C84.1921 79.0595 83.6143 79.0209 83.0751 79.098C82.5358 79.1751 81.9966 79.2136 81.4573 79.2136C80.9951 79.2136 80.61 79.098 80.3018 78.8667C80.0707 78.7125 79.9166 78.5583 79.8396 78.4042C79.3774 77.8645 78.9152 77.3249 78.453 76.7852C78.0678 76.3226 77.6441 75.8601 77.1819 75.3975C76.7197 74.8579 76.1804 74.2026 75.5641 73.4316C75.0249 72.6607 74.5242 72.0439 74.0619 71.5814C73.0605 70.5021 72.1361 69.654 71.2887 69.0373C70.4413 68.3435 69.5554 67.534 68.6309 66.6088C67.9376 65.4524 67.0517 64.4502 65.9732 63.6022C64.9718 62.7542 63.9318 61.7519 62.8533 60.5955C62.9303 60.981 62.9303 61.405 62.8533 61.8676C62.8533 62.2531 62.8533 62.6385 62.8533 63.024C62.8533 63.3324 62.8533 63.872 62.8533 64.643C62.9303 65.4139 62.9688 66.2619 62.9688 67.187C63.0459 68.0351 63.0844 68.8831 63.0844 69.7311C63.1614 70.5021 63.1614 71.0417 63.0844 71.3501C63.0844 72.0439 63.0459 72.8534 62.9688 73.7785C62.9688 74.7808 62.9303 75.359 62.8533 75.5132C62.6992 75.6673 62.3526 75.7059 61.8133 75.6288C61.3511 75.5517 60.9274 75.5132 60.5422 75.5132C59.5408 75.5132 58.5008 75.5132 57.4223 75.5132C56.4208 75.5132 55.4964 75.6288 54.649 75.8601C54.2638 76.0143 53.8787 76.0528 53.4935 75.9757C53.1083 75.9757 52.7231 75.9757 52.3379 75.9757C52.3379 75.6673 52.2994 74.9735 52.2224 73.8942C52.2224 72.8149 52.1839 71.697 52.1068 70.5406C52.1068 69.3071 52.1068 68.1893 52.1068 67.187C52.1068 66.1077 52.1454 65.4139 52.2224 65.1055L51.8757 56.8951C51.8757 56.2783 51.7602 55.6616 51.5291 55.0448C51.375 54.351 51.3365 53.6957 51.4135 53.0789C51.4135 51.9996 51.452 50.9203 51.5291 49.841C51.6831 48.7617 51.7217 47.6824 51.6446 46.6031C51.5676 45.5238 51.5676 44.4444 51.6446 43.3651C51.7217 42.2087 51.7987 41.0909 51.8757 40.0116V35.5016C51.8757 34.3452 51.8372 33.2273 51.7602 32.148C51.7602 31.0687 51.7217 29.9508 51.6446 28.7944C51.4906 27.4068 51.4906 26.0191 51.6446 24.6314C51.7987 23.1666 51.9142 21.7018 51.9913 20.2371L52.2224 16.4209V8.21046C52.2224 7.59371 52.1839 6.93842 52.1068 6.24457C52.0298 5.47364 52.0298 4.7027 52.1068 3.93177V1.85024C52.1068 1.46477 52.2609 1.11785 52.569 0.809478C52.8772 0.424011 53.1853 0.231278 53.4935 0.231278C54.649 0.231278 55.612 0.231278 56.3823 0.231278C57.1527 0.154186 58.0771 0.115638 59.1556 0.115638C59.6178 0.115638 60.003 0.0770926 60.3111 0C60.5422 0.46256 60.6578 0.92512 60.6578 1.38768C60.5807 2.69827 60.5807 4.12451 60.6578 5.66637C60.8118 7.20824 60.8889 8.63447 60.8889 9.94507L61.12 13.183V16.074C61.12 16.5366 61.0815 17.2304 61.0044 18.1555C61.0044 19.0036 61.0044 19.9287 61.0044 20.9309C61.0044 21.9331 61.0044 22.8968 61.0044 23.8219C61.0044 24.6699 61.0429 25.2867 61.12 25.6722C61.12 26.6744 61.12 27.6766 61.12 28.6788C61.197 29.6039 61.2741 30.5676 61.3511 31.5698C61.3511 31.9553 61.3511 32.572 61.3511 33.4201C61.4281 34.2681 61.4666 35.1932 61.4666 36.1954C61.4666 37.1206 61.4666 38.0071 61.4666 38.8552C61.4666 39.7032 61.4666 40.3199 61.4666 40.7054L62.0444 45.6779V47.1813C63.1229 46.4103 64.0473 45.7165 64.8177 45.0997C65.588 44.4059 66.3969 43.7506 67.2443 43.1339L71.8664 39.4334Z" fill="white"/>
</svg>


