<svg width="1080" height="586" viewBox="0 0 1080 586" fill="none" xmlns="http://www.w3.org/2000/svg">
<mask id="mask0_5_1992" style="mask-type:alpha" maskUnits="userSpaceOnUse" x="0" y="0" width="1080" height="586">
<path d="M1070.5 223.207C1035.63 297.543 1042.05 268.34 1041.9 352.965C1041.82 402.299 1043.2 451.613 1043.85 500.947C1043.93 507.685 1043.67 514.463 1043.2 521.2C1042.57 530.434 1037.54 535.913 1028.41 537.943C998.103 544.66 967.862 551.6 937.559 558.338C900.031 566.678 862.422 574.613 824.975 583.319C814.157 585.856 803.46 586.79 792.865 584.435C760.411 577.211 727.186 576.866 694.387 572.604C622.761 563.269 550.871 556.024 479.102 548.069C431.466 542.793 383.77 537.598 336.195 532.017C302.746 528.1 268.871 527.39 235.727 520.043C220.687 516.695 204.897 516.35 189.39 515.599C156.307 514.037 124.015 505.249 90.7697 505.29C81.2506 505.31 72.0767 502.814 62.7606 501.069C51.3946 498.918 46.8887 492.627 46.9902 481.445C47.2135 451.714 47.0714 421.984 47.0714 392.234H46.6858C46.6858 366.562 46.4422 340.87 46.7873 315.199C46.9902 300.587 43.7225 287.437 36.0707 274.773C25.5977 257.443 16.3222 239.401 6.62051 221.604C4.69235 218.073 1.95234 214.44 1.6276 210.666C-0.868871 182.356 0.00386241 153.985 0.978093 125.635C1.20135 119.384 5.38245 115.995 11.2075 114.717C15.1653 113.865 19.184 113.073 23.223 112.789C59.5943 110.09 95.4988 103.515 131.972 101.079C158.093 99.3138 184.073 93.7534 210.357 92.211C246.119 90.1411 281.232 82.6933 317.075 80.9684C342.629 79.7507 367.959 74.1294 393.512 72.3638C429.904 69.8271 465.666 62.3793 502.2 60.7558C527.083 59.66 551.784 54.3633 576.688 52.476C614.358 49.6145 651.541 42.4306 689.353 40.523C711.558 39.4068 733.62 35.3886 755.784 32.9331C806.748 27.332 857.814 22.5224 908.677 16.1502C946.165 11.442 983.997 9.85912 1021.3 3.20278C1035.19 0.706648 1049.58 1.1328 1063.74 0.0775251C1073.87 -0.673343 1078.92 4.03483 1079.43 13.9991C1079.57 16.6981 1079.92 19.3972 1079.94 22.0962C1079.94 77.4981 1079.88 132.92 1080 188.342C1080.04 200.925 1075.68 212.127 1070.5 223.207Z" fill="#102C2C"/>
</mask>
<g mask="url(#mask0_5_1992)">
<rect x="-139" y="-3" width="1358" height="764" fill="#102C2C"/>
</g>
</svg>
