<svg width="29" height="28" viewBox="0 0 29 28" fill="none" xmlns="http://www.w3.org/2000/svg">
<g clip-path="url(#clip0_504_28449)">
<path d="M12.1665 15.1666C12.1665 15.7854 12.4123 16.3789 12.8499 16.8165C13.2875 17.2541 13.881 17.4999 14.4998 17.4999C15.1187 17.4999 15.7122 17.2541 16.1498 16.8165C16.5873 16.3789 16.8332 15.7854 16.8332 15.1666C16.8332 14.5477 16.5873 13.9543 16.1498 13.5167C15.7122 13.0791 15.1187 12.8333 14.4998 12.8333C13.881 12.8333 13.2875 13.0791 12.8499 13.5167C12.4123 13.9543 12.1665 14.5477 12.1665 15.1666Z" stroke="#B8C1E0" stroke-width="3" stroke-linecap="round" stroke-linejoin="round"/>
<path d="M9.8335 24.5V23.3333C9.8335 22.7145 10.0793 22.121 10.5169 21.6834C10.9545 21.2458 11.548 21 12.1668 21H16.8335C17.4523 21 18.0458 21.2458 18.4834 21.6834C18.921 22.121 19.1668 22.7145 19.1668 23.3333V24.5" stroke="#B8C1E0" stroke-width="3" stroke-linecap="round" stroke-linejoin="round"/>
<path d="M18 5.83333C18 6.45217 18.2458 7.04566 18.6834 7.48325C19.121 7.92083 19.7145 8.16667 20.3333 8.16667C20.9522 8.16667 21.5457 7.92083 21.9832 7.48325C22.4208 7.04566 22.6667 6.45217 22.6667 5.83333C22.6667 5.21449 22.4208 4.621 21.9832 4.18342C21.5457 3.74583 20.9522 3.5 20.3333 3.5C19.7145 3.5 19.121 3.74583 18.6834 4.18342C18.2458 4.621 18 5.21449 18 5.83333Z" stroke="#B8C1E0" stroke-width="3" stroke-linecap="round" stroke-linejoin="round"/>
<path d="M20.3335 11.6667H22.6668C23.2857 11.6667 23.8792 11.9126 24.3167 12.3502C24.7543 12.7878 25.0002 13.3812 25.0002 14.0001V15.1667" stroke="#B8C1E0" stroke-width="3" stroke-linecap="round" stroke-linejoin="round"/>
<path d="M6.3335 5.83333C6.3335 6.45217 6.57933 7.04566 7.01691 7.48325C7.4545 7.92083 8.04799 8.16667 8.66683 8.16667C9.28567 8.16667 9.87916 7.92083 10.3167 7.48325C10.7543 7.04566 11.0002 6.45217 11.0002 5.83333C11.0002 5.21449 10.7543 4.621 10.3167 4.18342C9.87916 3.74583 9.28567 3.5 8.66683 3.5C8.04799 3.5 7.4545 3.74583 7.01691 4.18342C6.57933 4.621 6.3335 5.21449 6.3335 5.83333Z" stroke="#B8C1E0" stroke-width="3" stroke-linecap="round" stroke-linejoin="round"/>
<path d="M4 15.1667V14.0001C4 13.3812 4.24583 12.7878 4.68342 12.3502C5.121 11.9126 5.71449 11.6667 6.33333 11.6667H8.66667" stroke="#B8C1E0" stroke-width="3" stroke-linecap="round" stroke-linejoin="round"/>
</g>
<defs>
<clipPath id="clip0_504_28449">
<rect width="28" height="28" fill="white" transform="translate(0.5)"/>
</clipPath>
</defs>
</svg>
